<svg xmlns="http://www.w3.org/2000/svg" width="478" height="500" fill="none" viewBox="0 0 478 500">
  <g clip-path="url(#clip0_429_2190)">
    <path fill="#fff" d="M405.467 384.455c92.969-115.753 93.37-269.798.896-344.07C313.889-33.884 163.559-.256 70.59 115.497c-92.968 115.753-93.369 269.799-.895 344.07 92.473 74.271 242.804 40.643 335.772-75.111Z"/>
    <path stroke="#1D1D1B" stroke-linejoin="round" stroke-miterlimit="10" stroke-width="6" d="M186.548 474.869c-38.746 0-73.914-11.807-101.723-34.148-81.938-65.805-79.869-204.916 4.607-310.084 26.61-33.128 59.588-60.347 95.355-78.708 34.186-17.547 70.394-26.817 104.71-26.817 38.746 0 73.914 11.807 101.723 34.148 81.929 65.815 79.86 204.916-4.616 310.094-26.611 33.127-59.588 60.346-95.356 78.708-34.185 17.547-70.393 26.816-104.71 26.816l.01-.009Z"/>
    <path stroke="#1D1D1B" stroke-linejoin="round" stroke-miterlimit="10" stroke-width="6" d="M272.934 201.386c0 21.994-12.098 40.637-28.867 47.144a36.01 36.01 0 0 1-13.09 2.463c-23.165 0-41.948-22.21-41.948-49.607s18.783-49.597 41.948-49.597c6.207 0 12.097 1.591 17.397 4.456 14.494 7.809 24.56 25.085 24.56 45.141Z"/>
    <path stroke="#1D1D1B" stroke-linejoin="round" stroke-miterlimit="10" stroke-width="6" d="M272.934 201.386c0 21.994-12.098 40.636-28.867 47.144-16.639-6.358-28.633-24.317-28.633-45.468 0-22.931 14.101-42.107 32.94-46.817 14.494 7.809 24.56 25.084 24.56 45.141Z"/>
    <path stroke="#1D1D1B" stroke-linejoin="round" stroke-miterlimit="10" stroke-width="6" d="M351.567 201.386c0 17.509-2.969 34.213-8.343 49.438-21.517 63.118-111.171 188.071-111.171 188.071s-54.728-106.488-85.215-171.629a1519.969 1519.969 0 0 1-3.867-8.333c-7.36-17.322-11.498-36.864-11.498-57.547 0-71.367 49.27-129.223 110.047-129.223 60.777 0 110.047 57.856 110.047 129.223Z"/>
    <path stroke="#1D1D1B" stroke-linejoin="round" stroke-miterlimit="10" stroke-width="6" d="M241.52 72.163h19.073c60.777 0 110.047 57.856 110.047 129.223 0 17.509-2.969 34.213-8.343 49.438C340.78 313.942 253.57 432.687 253.57 432.687l-21.517 6.208"/>
  </g>
  <defs>
    <clipPath id="clip0_429_2190">
      <path fill="#fff" d="M.593 0h476.592v500H.593z"/>
    </clipPath>
  </defs>
</svg>