<svg id="PRIVATE" xmlns="http://www.w3.org/2000/svg" width="414" height="500" fill="none" viewBox="0 0 414 500">
  <path fill="#fff" d="M273.889 493.972c107.67-29.374 165.146-162.443 128.377-297.217C365.497 61.981 248.406-23.463 140.737 5.911 33.067 35.286-24.408 168.354 12.361 303.128 49.13 437.903 166.22 523.346 273.889 493.972Z"/>
  <path stroke="#1D1D1B" stroke-miterlimit="10" stroke-width="6" d="M350.096 413.53c-21.409 29.507-49.842 49.762-82.227 58.6-95.405 26.022-200.194-52.438-233.592-174.894-10.52-38.574-13.028-78.732-7.236-116.118 5.528-35.73 18.477-68.433 37.447-94.569 21.409-29.507 49.842-49.762 82.227-58.6C242.12 1.928 346.909 80.388 380.307 202.844c10.519 38.574 13.028 78.732 7.236 116.117-5.528 35.731-18.477 68.434-37.447 94.569Z"/>
  <path stroke="#1D1D1B" stroke-miterlimit="10" stroke-width="6" d="M216.346 102.35a379.457 379.457 0 0 0-9.05-2.35m59.217 21.664c30.37 13.521 55.097 22.878 75.871 44.428 0 0-29.216 67.878-35.061 80.906-5.845 13.037-12.588 23.381-12.588 25.625 0 2.245-5.387 36.858-7.192 44.499-1.796 7.649-8.988 39.111-13.028 42.711-4.05 3.591 9.885 42.702 9.885 52.139 0 9.437-4.049 15.731-4.049 15.731s-80.009-43.601-108.328-53.944C143.705 363.424 78.08 337.35 78.08 337.35l1.796-13.934s10.334-4.939 11.69-5.837c1.346-.906 11.232-18.882 12.579-24.727 1.356-5.845 14.384-37.755 14.384-37.755s-.449-12.139 1.355-27.87c1.796-15.739 18.874-139.797 18.874-139.797s14.322 1.734 33.574 5.202"/>
  <path stroke="#1D1D1B" stroke-miterlimit="10" stroke-width="6" d="M138.758 87.43c17.64 32.817 51.69 39.894 66.866 43.6 15.176 3.706 49.216 12.474 72.817 20.563 23.6 8.09 53.38 14.499 63.943 14.499m-51.989 44.507a294.1 294.1 0 0 0-24.833 34.824c-4.12 6.769-8.028 15.264-4.296 22.253 2.58 4.842 8.513 8.099 8.812 13.583.414 7.641-10.238 11.435-11.981 18.882-.898 3.838.784 7.738 1.779 11.558 2.755 10.581-.124 22.465-7.421 30.616M131.469 242.034l27.121-95.705m96.761 236.268c-15.651-16.787-26.567-37.949-31.162-60.44m40.51 34.489-12.702 2.597m-136.356-75.924c5.995-2.131 9.437-9.613 7.148-15.555m193.742-87.139c-12.756 9.428-27.888 15.599-43.601 17.773-6.708.924-14.269.889-19.313-3.627-3.724-3.336-5.299-8.574-5.282-13.574.018-5 1.435-9.885 2.843-14.683"/>
  <path stroke="#1D1D1B" stroke-miterlimit="10" stroke-width="6" d="M213.485 132.984a31.048 31.048 0 0 0 2.253-11.646 31.127 31.127 0 0 0-3.723-14.806c-5.282-9.754-15.599-16.382-27.465-16.382-12.782 0-23.759 7.685-28.574 18.697"/>
  <path stroke="#1D1D1B" stroke-miterlimit="10" stroke-width="6" d="M194.374 128.169a11.863 11.863 0 0 0 2.148-6.831c0-6.611-5.361-11.972-11.972-11.972-6.127 0-11.171 4.604-11.875 10.546m94.982 28.152a31.114 31.114 0 0 0-3.847-7.712c-.044-.061-.079-.123-.123-.185-5.634-8.107-15.009-13.406-25.625-13.406a31.005 31.005 0 0 0-20.114 7.359"/>
  <path stroke="#1D1D1B" stroke-miterlimit="10" stroke-width="6" d="M212.015 106.532c5.713-6.708 14.225-10.96 23.723-10.96 17.227 0 31.189 13.962 31.189 31.189 0 4.7-1.039 9.155-2.905 13.151-.071.15-.141.291-.212.44a31.167 31.167 0 0 1-3.406 5.493"/>
  <path stroke="#1D1D1B" stroke-miterlimit="10" stroke-width="6" d="M247.472 128.195c.159-.757.238-1.54.238-2.341 0-6.602-5.361-11.963-11.972-11.963s-11.963 5.361-11.963 11.963c0 1.408.247 2.764.696 4.023m39.216 10.29c.115-.088.22-.176.335-.246a31.008 31.008 0 0 1 18.424-6.03c15.986 0 29.173 12.042 30.968 27.553"/>
</svg>