<svg xmlns="http://www.w3.org/2000/svg" width="588" height="500" fill="none" viewBox="0 0 588 500">
  <g clip-path="url(#clip0_429_2097)">
    <path fill="#fff" d="M321.267 500.051c-30.708 0-61.67-4.18-92.024-12.429-75.354-20.466-139.848-63.897-181.61-122.298-20.677-28.917-34.706-59.99-41.7-92.348-7.338-33.988-6.548-67.814 2.338-100.546 14.07-51.792 47.015-95.669 95.284-126.883C149.739 15.689 206.015-.101 266.288-.101c30.708 0 61.67 4.18 92.034 12.43 75.354 20.465 139.848 63.896 181.609 122.297 20.678 28.917 34.707 59.99 41.701 92.348 7.338 33.988 6.549 67.814-2.338 100.547-14.069 51.791-47.014 95.668-95.284 126.882-46.184 29.859-102.459 45.648-162.733 45.648h-.01Z"/>
    <path stroke="#1D1D1B" stroke-miterlimit="10" stroke-width="6" d="M554.707 320.801c31.974-117.765-59.002-244.97-203.201-284.12C207.308-2.472 64.492 61.258 32.518 179.022.544 296.788 91.52 423.993 235.72 463.144c144.198 39.151 287.014-24.578 318.988-142.343Zm-205.252-183.23-16.852 2.794"/>
    <path stroke="#1D1D1B" stroke-miterlimit="10" stroke-width="6" d="m360.204 135.79 33.026-5.486 99.99 64.737-12.014 33.239-43.897 7.479v.011l-12.56 2.135-15.223 2.601-12.875 2.187v.01l-14.919 2.54-13.188 2.247-14.605 2.49-13.512 2.308-14.282 2.429-13.846 2.368-13.947 2.379-14.2 2.419-13.594 2.318-14.575 2.479-13.218 2.258-14.96 2.55-45.283 7.723-71.306-65.85L99 179.15l224.686-37.297M174.981 249.312l34.889 148.462"/>
    <path stroke="#1D1D1B" stroke-miterlimit="10" stroke-width="6" d="m115.346 217.177 35.992 117.024 58.532 63.573 222.885-47.288 43.157-121.305m-83.167 91.973-11.124-8.158m28.138 20.628-8.816-6.468"/>
    <path stroke="#1D1D1B" stroke-miterlimit="10" stroke-width="6" d="m348.899 299.838-13.776 2.399h-.01m-36.518 6.357-14.312 2.489m-36.012 6.255-14.99 2.612m40.141-6.984-14.615 2.54m64.939-11.285-14.028 2.439m50.769-8.836.365-.061 11.467 8.411m20.902-175.87-16.347 84.575m-134.11 54.059c.031.141.051.283.071.425l10.112 89.312c.465 4.16-2.531 7.925-6.69 8.39a6.305 6.305 0 0 1-.871.051c-3.806 0-7.095-2.854-7.53-6.731l-10.051-88.897m42.753-7.287c.051.263.081.536.101.81l5.172 89.625a7.365 7.365 0 0 1-6.933 7.784c-.142.01-.293.01-.435.01a7.364 7.364 0 0 1-7.348-6.944l-5.132-88.805m42.369-7.217c.071.374.111.769.111 1.174l.243 89.939a7.163 7.163 0 0 1-7.146 7.176h-.02c-3.937 0-7.146-3.198-7.156-7.145l-.233-88.725m41.994-7.166c.091.496.122 1.012.091 1.528l-4.686 90.243a6.94 6.94 0 0 1-6.923 6.579c-.122 0-.243 0-.364-.01a6.945 6.945 0 0 1-6.579-7.287l4.615-88.685"/>
    <path stroke="#1D1D1B" stroke-miterlimit="10" stroke-width="6" d="m354 251.822-9.626 90.547a6.716 6.716 0 0 1-7.389 5.972 6.713 6.713 0 0 1-5.981-7.389l9.423-88.664 13.512-2.308c.101.587.131 1.215.061 1.842Zm27.732-6.579c.122.679.122 1.397.01 2.116l-14.554 90.86c-.506 3.199-3.28 5.476-6.417 5.476a6.502 6.502 0 0 1-6.427-7.531l14.2-88.674m40.982-6.983a6.243 6.243 0 0 1-.051 2.368l-19.484 91.164a6.297 6.297 0 0 1-6.143 4.98 6.305 6.305 0 0 1-6.164-7.612l18.967-88.714m40.658-6.933c.152.84.121 1.72-.111 2.591l-24.423 91.477c-.719 2.713-3.178 4.504-5.861 4.504-.516 0-1.042-.07-1.569-.202a6.087 6.087 0 0 1-4.301-7.439l23.704-88.786m-91.103-15.647 3.502-50.891a6.079 6.079 0 0 1 6.478-5.638 6.082 6.082 0 0 1 5.648 6.478l-3.31 47.945m-36.356 6.205 1.255-49.98c.091-3.441 2.925-6.174 6.376-6.063a6.204 6.204 0 0 1 6.053 6.367l-1.194 47.54m-36.61 6.245-.901-49.079a6.37 6.37 0 0 1 6.245-6.478c3.492-.05 6.417 2.733 6.478 6.245l.86 47.146m-36.882 6.296-2.965-48.178a6.502 6.502 0 0 1 6.093-6.893 6.495 6.495 0 0 1 6.892 6.093l2.885 46.771m-37.187 6.346-4.939-47.287a6.665 6.665 0 0 1 5.931-7.308c3.654-.374 6.923 2.278 7.298 5.931l4.848 46.428m-37.499 6.386-6.812-46.397c-.547-3.704 2.024-7.166 5.728-7.712a6.792 6.792 0 0 1 7.713 5.739l6.771 46.093m-37.834 6.447-8.613-45.516a6.944 6.944 0 0 1 5.536-8.107c3.755-.719 7.399 1.761 8.107 5.526l8.654 45.759m-24.2 4.13-2.713.465-14.909-13.765-6.69-28.957a7.089 7.089 0 0 1 5.314-8.502c3.806-.881 7.611 1.498 8.492 5.303l10.506 45.456Zm56.984-166.974-18.775 77.874"/>
    <path stroke="#1D1D1B" stroke-linecap="round" stroke-linejoin="round" stroke-width="6" d="m307.674 245.243 21.589-104.605"/>
    <path stroke="#1D1D1B" stroke-miterlimit="10" stroke-width="6" d="M327.866 143.634a5.005 5.005 0 0 1-2.804-.85l-88.927-59.423c-2.328-1.549-2.945-4.697-1.397-7.025 1.549-2.328 4.697-2.945 7.025-1.396l88.927 59.423c2.328 1.548 2.945 4.696 1.397 7.024a5.058 5.058 0 0 1-4.211 2.247h-.01Zm-34.089 4.555-15.931-36.964m-7.368-17.095-5.952-13.796"/>
    <path stroke="#1D1D1B" stroke-linecap="round" stroke-linejoin="round" stroke-width="6" d="m383.15 231.458-26.519-93.897"/>
    <path stroke="#1D1D1B" stroke-miterlimit="10" stroke-width="6" d="M355.275 140.476a4.94 4.94 0 0 1-2.733-.83l-86.599-57.864a4.914 4.914 0 0 1-1.356-6.832c1.508-2.267 4.574-2.865 6.832-1.357l86.599 57.865a4.915 4.915 0 0 1 1.356 6.832 4.929 4.929 0 0 1-4.099 2.186Zm137.955 54.565-318.239 54.271-75.982-70.162"/>
  </g>
  <defs>
    <clipPath id="clip0_429_2097">
      <path fill="#fff" d="M.984 0h586.032v500H.984z"/>
    </clipPath>
  </defs>
</svg>