<svg width="233" height="242" viewBox="0 0 233 242" fill="none" xmlns="http://www.w3.org/2000/svg">
<path d="M228.801 55.4809C227.601 62.2876 223.11 68.4153 216.225 71.3035L162.154 94.2909C166.823 96.3993 170.653 100.188 172.822 105.266C174.497 109.219 174.859 113.336 174.174 117.218C173.777 119.471 172.996 121.657 171.905 123.639C179.067 124.506 185.539 129.008 188.537 136.111L188.96 137.075C192.593 145.623 189.997 155.298 183.166 160.963C188.149 162.979 192.353 166.883 194.576 172.218C196.26 176.123 196.621 180.239 195.928 184.17C194.728 190.977 190.237 197.104 183.4 200.001L157.385 211.032C150.339 213.991 142.687 213.383 136.478 209.916L123.173 215.576C82.7755 232.77 36.0829 213.911 18.8889 173.514C12.6809 158.827 11.2098 143.345 13.7877 128.725C17.0417 110.27 26.7163 93.244 41.5232 81.0273C55.6845 69.3888 67.6603 55.2891 75.5698 38.7425L82.7774 23.6537C87.9894 13.1556 100.657 8.86519 111.164 14.0293C119.798 18.3195 124.223 27.6997 122.634 36.7115C122.288 38.6768 121.71 40.5519 120.788 42.4158L106.122 72.0548L199.674 32.3049C210.464 27.7329 222.877 32.7388 227.449 43.5288C229.133 47.4337 229.494 51.5503 228.801 55.4809Z" fill="#FFE5B1" stroke="#1D1D1B" stroke-width="3" stroke-linecap="round" stroke-linejoin="round"/>
<path d="M162.149 94.2901L162.102 94.2817" stroke="#1D1D1B" stroke-width="3" stroke-linecap="round" stroke-linejoin="round"/>
<path d="M106.121 72.0542L89.0805 79.2804" stroke="#1D1D1B" stroke-width="3" stroke-linecap="round" stroke-linejoin="round"/>
<path d="M102.944 111.924L145.044 94.0416C150.757 91.6385 156.892 91.8801 162.103 94.2817L162.151 94.2901" stroke="#1D1D1B" stroke-width="3" stroke-linecap="round" stroke-linejoin="round"/>
<path d="M116.357 144.338L161.454 125.156C164.869 123.731 168.466 123.229 171.904 123.637" stroke="#1D1D1B" stroke-width="3" stroke-linecap="round" stroke-linejoin="round"/>
<path d="M173.498 194.202L136.476 209.915" stroke="#1D1D1B" stroke-width="3" stroke-linecap="round" stroke-linejoin="round"/>
<path d="M130.088 176.614L166.797 160.993C172.245 158.692 178.101 158.835 183.162 160.963" stroke="#1D1D1B" stroke-width="3" stroke-linecap="round" stroke-linejoin="round"/>
</svg>
