<svg xmlns="http://www.w3.org/2000/svg" width="36" height="36" fill="none" viewBox="0 0 36 36">
  <path fill="url(#paint0_linear_2596_620)" d="M29.77 8.392a2.162 2.162 0 1 0-4.325 0 2.162 2.162 0 0 0 4.325 0Z"/>
  <path fill="url(#paint1_linear_2596_620)" d="M32.65 25.273c-.08 1.755-.374 2.708-.617 3.342a5.561 5.561 0 0 1-1.352 2.07 5.5 5.5 0 0 1-2.066 1.343c-.634.247-1.59.542-3.346.625-1.897.084-2.46.102-7.271.102-4.807 0-5.374-.018-7.272-.102-1.755-.083-2.707-.378-3.34-.625a5.506 5.506 0 0 1-2.07-1.343 5.487 5.487 0 0 1-1.349-2.07c-.243-.634-.541-1.587-.617-3.342-.092-1.898-.11-2.469-.11-7.27 0-4.812.018-5.38.11-7.277.076-1.755.374-2.707.617-3.346a5.477 5.477 0 0 1 1.348-2.066 5.568 5.568 0 0 1 2.07-1.347c.634-.248 1.586-.538 3.341-.621 1.898-.084 2.465-.105 7.272-.105 4.811 0 5.374.021 7.271.105 1.755.083 2.712.373 3.346.621.84.328 1.44.718 2.066 1.347a5.552 5.552 0 0 1 1.351 2.066c.244.639.538 1.591.618 3.346.088 1.898.11 2.465.11 7.276 0 4.802-.022 5.373-.11 7.27Zm3.24-14.694c-.087-1.918-.39-3.229-.84-4.37a8.772 8.772 0 0 0-2.073-3.19A8.85 8.85 0 0 0 29.791.943C28.645.499 27.339.193 25.42.109 23.5.017 22.888 0 17.997 0c-4.887 0-5.504.017-7.423.11-1.914.083-3.22.389-4.37.834a8.873 8.873 0 0 0-3.182 2.074A8.845 8.845 0 0 0 .945 6.21C.5 7.35.197 8.661.105 10.58.02 12.498 0 13.11 0 18.002c0 4.887.021 5.5.105 7.418.092 1.915.395 3.224.84 4.37.461 1.18 1.074 2.188 2.078 3.187a8.872 8.872 0 0 0 3.182 2.078c1.15.445 2.456.748 4.37.836 1.919.088 2.536.109 7.423.109 4.89 0 5.503-.021 7.422-.11 1.92-.087 3.225-.39 4.37-.835a8.85 8.85 0 0 0 3.187-2.078 8.755 8.755 0 0 0 2.074-3.186c.449-1.147.752-2.456.84-4.37.088-1.92.109-2.532.109-7.419 0-4.89-.021-5.504-.11-7.423Z"/>
  <path fill="url(#paint2_linear_2596_620)" d="M17.997 23.997c-3.312 0-6-2.683-6-5.995a6.001 6.001 0 1 1 12.003 0 6 6 0 0 1-6.003 5.995Zm0-15.244c-5.105 0-9.24 4.144-9.24 9.25a9.24 9.24 0 0 0 9.24 9.24c5.105 0 9.244-4.14 9.244-9.24 0-5.106-4.139-9.25-9.244-9.25Z"/>
  <defs>
    <linearGradient id="paint0_linear_2596_620" x1=".325" x2="33.002" y1="35.627" y2="2.951" gradientUnits="userSpaceOnUse">
      <stop stop-color="#FFD521"/>
      <stop offset=".05" stop-color="#FFD521"/>
      <stop offset=".501" stop-color="#F50000"/>
      <stop offset=".95" stop-color="#B900B4"/>
      <stop offset=".95" stop-color="#B900B4"/>
      <stop offset="1" stop-color="#B900B4"/>
    </linearGradient>
    <linearGradient id="paint1_linear_2596_620" x1=".325" x2="33.028" y1="35.673" y2="2.969" gradientUnits="userSpaceOnUse">
      <stop stop-color="#FFD521"/>
      <stop offset=".05" stop-color="#FFD521"/>
      <stop offset=".501" stop-color="#F50000"/>
      <stop offset=".95" stop-color="#B900B4"/>
      <stop offset=".95" stop-color="#B900B4"/>
      <stop offset="1" stop-color="#B900B4"/>
    </linearGradient>
    <linearGradient id="paint2_linear_2596_620" x1=".332" x2="33.028" y1="35.673" y2="2.978" gradientUnits="userSpaceOnUse">
      <stop stop-color="#FFD521"/>
      <stop offset=".05" stop-color="#FFD521"/>
      <stop offset=".501" stop-color="#F50000"/>
      <stop offset=".95" stop-color="#B900B4"/>
      <stop offset=".95" stop-color="#B900B4"/>
      <stop offset="1" stop-color="#B900B4"/>
    </linearGradient>
  </defs>
</svg>