<svg xmlns="http://www.w3.org/2000/svg" width="76" height="76" fill="none" viewBox="0 0 76 76">
  <rect width="76" height="76" fill="#FFF1A8" rx="14"/>
  <path fill="#000" d="m16.309 21.142-.282.141a4.134 4.134 0 0 0-.36.202h-.043c-.122.08-.244.152-.354.238-.11.085-.226.165-.33.25l-.22.196s-.03 0-.043.037c-.366.519-.72 1.057-1.057 1.6-.053.187-.08.38-.08.575v.195a1.195 1.195 0 0 0 0 .147v.055c.013.067.031.132.056.195l-.19.086.19-.08a.22.22 0 0 0 0 .055l.055-.104a.693.693 0 0 0 .073-.128l.135-.226a28.098 28.098 0 0 1 1.771-2.645c.104-.147.214-.288.324-.428.11-.14.202-.257.306-.379l.049.018Zm51.01 17.236A28.954 28.954 0 0 0 53.644 14.33l-.196-.122-.213-.134-.697-.404-.19-.11-.195-.104a29.897 29.897 0 0 0-2.596-1.252l-.275-.11-.263-.11-.526-.201-.256-.098-.25-.086a28.46 28.46 0 0 0-8.933-1.631h-.678a28.747 28.747 0 0 0-18.763 6.898L19.46 17l-.146.128a27.376 27.376 0 0 0-2.554 2.517 2.24 2.24 0 0 0-.165.184l-.177.201c-.086.098-.178.202-.257.306-.08.104-.092.104-.134.153l-.135.165c-.44.531-.85 1.075-1.222 1.631s-.72 1.057-1.057 1.6a25.74 25.74 0 0 0-.568.972c-.049.08-.092.165-.134.245a2.18 2.18 0 0 0-.129.232 30.544 30.544 0 0 0-1.368 2.975c-.025.067-.055.135-.08.202-.19.483-.36.971-.519 1.46l-.061.19c0 .067-.043.128-.061.195a29.1 29.1 0 0 0-1.29 8.602 28.759 28.759 0 0 0 7.515 19.454l.404.44c.134.14.269.28.41.415l.152.159a29.19 29.19 0 0 0 6.672 4.992l.183.097c.057.034.116.065.177.092l.568.287.19.098.19.091a29.027 29.027 0 0 0 37.88-12.17c.037-.058.07-.12.097-.183l.098-.184a28.717 28.717 0 0 0 3.311-11.565v-.385c0-.128 0-.403.03-.611.031-.208 0-.452 0-.684v-.55c.025-.116.025-.239.02-.355l.017-.018Zm-4.045 14.003-.196.355A28.595 28.595 0 0 1 50.7 64.41l-.648.306-.843.36c-.305.129-.61.25-.928.367l-.575.214a28.562 28.562 0 0 1-21.164-1.02l-.232-.104-.055-.031-.177-.092-.177-.085a12.01 12.01 0 0 1-.74-.379 1.33 1.33 0 0 1-.183-.098l-.183-.097a28.06 28.06 0 0 1-7.79-6.3 12.15 12.15 0 0 1-.379-.44c-.122-.146-.25-.293-.366-.446a28.379 28.379 0 0 1-4.888-26.192 1.26 1.26 0 0 1 .061-.201c0-.067.043-.135.067-.202.16-.489.336-.977.52-1.454l.085-.202c0-.073.055-.14.086-.213a27.366 27.366 0 0 1 1.478-3.055l.055-.104a.693.693 0 0 0 .073-.129l.135-.226a28.097 28.097 0 0 1 1.772-2.645c.104-.147.214-.287.323-.428.11-.14.202-.256.306-.379a.848.848 0 0 1 .092-.116c.041-.055.086-.108.134-.159a.08.08 0 0 1 .037-.042c.067-.092.146-.177.226-.27a26.42 26.42 0 0 1 1.49-1.612 34.64 34.64 0 0 1 1.296-1.222l.152-.134.153-.135a28.105 28.105 0 0 1 18.415-6.812h.929a27.98 27.98 0 0 1 9.079 1.833l.275.104.293.116c.17.06.342.134.507.207l.293.129.3.134c.684.312 1.35.648 2.004 1.008l.183.11.183.098c.269.159.544.318.807.489l.195.122.19.116a28.373 28.373 0 0 1 12.86 20.34c.11.87.178 1.757.202 2.657v1.27c0 .612-.03 1.168-.08 1.742.007.09.007.18 0 .269v.25A28.105 28.105 0 0 1 63.256 52.4l.019-.019Z"/>
  <path fill="#FFD600" d="M21.43 34.657a7.943 7.943 0 0 1-6.342-2.89 1.595 1.595 0 0 1 .226-2.352 1.582 1.582 0 0 1 2.101.196c1.57 1.723 2.957 2.034 5.071 1.833a1.589 1.589 0 1 1 .306 3.164c-.477.025-.929.05-1.363.05Z"/>
  <path fill="#000" d="M24.398 32.75a1.79 1.79 0 0 0-1.936-1.497h-.599a.452.452 0 0 1-.128 0 1.113 1.113 0 0 1-.202 0 4.6 4.6 0 0 1-3.55-1.368l-.14-.14a1.595 1.595 0 0 1-.14-.147l-.147-.153a1.797 1.797 0 0 0-3.098 1.045c-.029.287.015.577.128.843.021.064.05.126.086.183.03.067.067.13.11.19s.09.116.14.17a8.137 8.137 0 0 0 6.501 2.952h1.381a1.736 1.736 0 0 0 1.222-.66c.093-.12.169-.251.226-.391.097-.206.147-.432.146-.66a1.224 1.224 0 0 0 0-.367Zm-.671 1.137a1.05 1.05 0 0 1-.135.146 1.376 1.376 0 0 1-.825.385h-1.344a7.753 7.753 0 0 1-6.195-2.804 1.516 1.516 0 0 1-.128-.165 1.006 1.006 0 0 1-.098-.177 1.38 1.38 0 0 1 .428-1.723c.24-.177.531-.274.83-.275a1.358 1.358 0 0 1 1.008.446l.208.22c.044.048.09.093.14.134a.96.96 0 0 0 .141.135 4.954 4.954 0 0 0 3.819 1.448c.067.006.134.006.201 0a.272.272 0 0 0 .098 0h.636a1.388 1.388 0 0 1 1.27 2.175.507.507 0 0 1-.054.03v.025Z"/>
  <path fill="#fff" d="M17.842 27.979c.508.715.495 2.144-1.698 3.128-2.511 1.13-3.819 0-3.843-.996a4.888 4.888 0 0 1-5.572-3.55c-2.841-.036-4.6-.714-4.582-1.655.018-.941.818-1.448 4.124-1.381.15.14.309.272.476.39.213.154.435.293.666.416a4.735 4.735 0 0 0 1.644 2.994c2.193 1.784 5.73 1.149 8.309-1.356-1.992.757-3.397-.05-3.623-1.222a2.115 2.115 0 0 1 .3-1.448 5.5 5.5 0 0 1 2.443-2.016l.086-.037a4.588 4.588 0 0 1 3.482-.226c.456.187.847.503 1.124.91 1.24 1.723-.06 4.71-3.336 6.049Z"/>
  <path fill="#000" d="M19.083 20.977Zm-1.79 4.809a3.056 3.056 0 0 1-2.554 0 1.6 1.6 0 0 1-.795-1.051v-.141a1.93 1.93 0 0 1 .294-1.222 4.643 4.643 0 0 1 1.478-1.442 6.17 6.17 0 0 1 .892-.488l-.073-.153-.092.043-.03-.043a.238.238 0 0 1-.104-.147l-.281.14a4.176 4.176 0 0 0-.36.203h-.043c-.123.079-.245.152-.355.238-.11.085-.226.165-.33.25l-.22.196s-.03 0-.042.037a3.782 3.782 0 0 0-.776.965 2.386 2.386 0 0 0-.281.66c-.054.186-.08.38-.08.574v.195a1.236 1.236 0 0 0 0 .147v.055c.012.067.03.132.055.196a.22.22 0 0 0 0 .055c.072.21.184.405.33.574.077.093.163.18.257.257.1.081.206.155.318.22a3 3 0 0 0 2.034.262 7.454 7.454 0 0 1-4.417 1.73c0 .073-.061.14-.086.213l-.085.202h.085a6.609 6.609 0 0 0 2.077-.349c.233-.079.465-.17.697-.268l.348-.165a9.17 9.17 0 0 0 2.273-1.631h.03a.202.202 0 0 0-.207-.33l.043.018Zm4.063-3.978a2.706 2.706 0 0 0-1.07-.91l-.14-.067h-.05l-.189-.067-.195-.055-.171-.043h-.098l-.256-.037a3.687 3.687 0 0 0-.459 0 3.51 3.51 0 0 0-.44 0 3.33 3.33 0 0 0-.421.061h-.177l-.135.037c-.146.03-.3.073-.458.122l-.318.11-.116.049-.104.043-.079.036h-.055l-.116.055-.281.14a4.176 4.176 0 0 0-.36.203h-.043c-.123.079-.245.152-.355.238-.11.085-.226.165-.33.25l-.22.196s-.03 0-.042.037a3.782 3.782 0 0 0-.776.965 2.386 2.386 0 0 0-.281.66c-.054.186-.08.38-.08.574v.195a1.236 1.236 0 0 0 0 .147v.055c.012.067.03.132.055.196a.22.22 0 0 0 0 .055c.072.21.184.405.33.574.077.093.163.18.257.257.1.081.206.155.318.22a3 3 0 0 0 2.034.262 7.454 7.454 0 0 1-4.417 1.73 4.474 4.474 0 0 1-.703-.037 4.277 4.277 0 0 1-2.279-.923 3.302 3.302 0 0 1-.336-.312l-.226-.238-.043-.061a2.29 2.29 0 0 1-.19-.257 1.831 1.831 0 0 1-.164-.256 2.286 2.286 0 0 1-.147-.269.22.22 0 0 1 0-.055 1.864 1.864 0 0 1-.134-.3v-.042a2.34 2.34 0 0 1-.11-.312 7.396 7.396 0 0 1-.104-.39c-.03-.135-.037-.16-.049-.245a1.04 1.04 0 0 1 0-.135.196.196 0 0 0-.104-.146 4.438 4.438 0 0 1-.61-.397 6.18 6.18 0 0 1-.465-.373.165.165 0 0 0-.128-.055h-.477c-2.761 0-3.812.428-3.849 1.582a1.032 1.032 0 0 0 .324.752c.61.66 2.2 1.063 4.313 1.106a5.18 5.18 0 0 0 4.075 3.58c.227.036.456.056.685.061.261.003.523-.016.782-.055a1.687 1.687 0 0 0 .776 1.082c.404.239.868.36 1.338.348.182 0 .364-.015.543-.043l.226-.037.22-.049c.342-.09.676-.21.996-.36a4.278 4.278 0 0 0 1.65-1.204c.04-.055.076-.112.11-.17a1.833 1.833 0 0 0 .147-1.84 6.109 6.109 0 0 0 3.55-3.629 3.054 3.054 0 0 0-.38-2.609Zm-.056 2.524a5.82 5.82 0 0 1-3.53 3.464.164.164 0 0 0-.117.128.19.19 0 0 0 0 .171.63.63 0 0 1 .073.129c.169.312.208.678.11 1.02-.04.133-.093.262-.159.385l-.116.177c-.036.055-.079.104-.122.159a3.96 3.96 0 0 1-1.405.965 6.017 6.017 0 0 1-1.07.367l-.207.036-.195.03a2.254 2.254 0 0 1-1.479-.274 1.258 1.258 0 0 1-.611-.813.758.758 0 0 1 0-.165.183.183 0 0 0-.073-.152.226.226 0 0 0-.122-.043h-.043c-.26.05-.524.077-.788.08a3.251 3.251 0 0 1-.69-.043A4.785 4.785 0 0 1 6.893 26.5a.196.196 0 0 0-.19-.14h-.256c-1.919-.05-3.373-.416-3.916-.979a.61.61 0 0 1-.208-.464c0-.61.33-1.258 3.837-1.191l.085.073.129.104.232.177.293.202.244.14.061.037c0 .122.05.244.08.367 0 .103.055.207.085.305a4.76 4.76 0 0 0 1.552 2.346 4.771 4.771 0 0 0 2.377.996c.229.032.46.048.69.049h.086a6.612 6.612 0 0 0 2.077-.348c.232-.08.465-.171.697-.27l.348-.164a9.167 9.167 0 0 0 2.273-1.631h.03a.202.202 0 0 0-.207-.33 3.056 3.056 0 0 1-2.554 0 1.6 1.6 0 0 1-.795-1.051v-.141a1.93 1.93 0 0 1 .294-1.222 4.643 4.643 0 0 1 1.478-1.442 6.17 6.17 0 0 1 .892-.488l-.073-.153.153.128a5.157 5.157 0 0 1 2.444-.452c.312.027.62.101.91.22.42.176.78.468 1.039.843a2.633 2.633 0 0 1 .22 2.31Z"/>
  <path fill="#000" d="M17.366 26.17a.189.189 0 0 1-.183-.128.196.196 0 0 1 .116-.256 8.055 8.055 0 0 0 2.48-1.607.2.2 0 0 1 .308-.012.203.203 0 0 1 .022.243.202.202 0 0 1-.06.062 8.337 8.337 0 0 1-2.616 1.686l-.067.012Zm-2.511 2.633a.201.201 0 0 1 0-.397 9.167 9.167 0 0 0 2.927-.61.208.208 0 0 1 .262.11.208.208 0 0 1-.116.262c-.978.37-2.01.576-3.055.611l-.018.024Zm-8.127-2.04a.195.195 0 0 1-.195-.122 6.428 6.428 0 0 1-.165-.715.202.202 0 0 1 .242-.23.195.195 0 0 1 .149.163c.04.224.09.447.153.666a.202.202 0 0 1-.129.25l-.055-.012Zm5.573 3.544a.201.201 0 0 1-.195-.159.208.208 0 0 1 .159-.238 4.405 4.405 0 0 0 1.869-.868.197.197 0 0 1 .313.103.198.198 0 0 1-.069.209 4.747 4.747 0 0 1-2.034.947l-.043.006ZM9.955 17.556a.187.187 0 0 1-.134-.055l-.342-.306a.204.204 0 0 1-.094-.14.201.201 0 0 1 .35-.165l.354.318a.201.201 0 0 1 0 .28.194.194 0 0 1-.134.068Z"/>
  <path fill="#fff" d="M10.352 22.248h-.153a5.261 5.261 0 0 1-2.291-1.27l-.128-.11a4.087 4.087 0 0 1-.978-1.296c-.935-2.065.85-4.05 3.177-3.464.35.088.693.2 1.027.336a9.435 9.435 0 0 0-1.051.935 7.196 7.196 0 0 1 1.832 2.389c.66 1.582-.042 2.682-1.435 2.48Z"/>
  <path fill="#000" d="M11.83 19.92a.152.152 0 0 1-.103 0 .194.194 0 0 1-.147-.11 1.834 1.834 0 0 1 0 1.833 1.222 1.222 0 0 1-1.222.379h-.14c.043.01.081.033.11.067l.128.146c1.283.129 1.912-.855 1.375-2.315Zm.38.708a1.587 1.587 0 0 0-.043-.274 2.387 2.387 0 0 0-.073-.281 1.83 1.83 0 0 0-.08-.239v-.049c0-.036-.03-.067-.043-.104a.412.412 0 0 0-.036-.073l-.086-.195a6.664 6.664 0 0 0-.782-1.18c-.08-.097-.159-.195-.244-.287-.086-.091-.147-.165-.226-.244l-.336-.336c.277-.277.573-.534.886-.77a.213.213 0 0 0 .079-.183.177.177 0 0 0-.043-.098.25.25 0 0 0-.08-.061L11 16.211a6.888 6.888 0 0 0-.953-.305l-.22-.05a2.927 2.927 0 0 0-2.847.93 2.58 2.58 0 0 0-.544 2.193c.027.145.066.288.116.428 0 .06.049.128.08.189v.049l.067.134.122.226.17.257c.18.26.384.502.612.72l.128.117c.524.466 1.12.844 1.766 1.118l.208.08.201.06h.691c.312.014.621-.063.892-.22.097-.058.187-.128.268-.207l.11-.128c.054-.068.1-.142.135-.22.12-.24.183-.503.183-.77.01-.057.018-.114.025-.171v-.012Zm-1.833 1.412h-.14a5.12 5.12 0 0 1-2.2-1.222l-.11-.092a3.801 3.801 0 0 1-.923-1.222 2.347 2.347 0 0 1-.208-.708 2.175 2.175 0 0 1 .483-1.735 2.517 2.517 0 0 1 2.273-.82c.134.014.267.038.397.074.23.057.456.126.678.208-.22.183-.446.385-.66.61l-.134.135a.202.202 0 0 0-.055.14.183.183 0 0 0 .067.141c.104.092.202.19.287.281a.97.97 0 0 1 .135.14c.146.148.275.294.397.435l.03.036c.14.171.27.336.385.507.197.28.367.58.507.892a1.833 1.833 0 0 1 0 1.833 1.222 1.222 0 0 1-1.21.38v-.013Z"/>
  <path fill="#fff" d="m16.534 21.142-.03.116a5.499 5.499 0 0 0-2.444 2.016c-.271.43-.377.945-.3 1.448-1.038.556-2.114.61-2.81.049a1.71 1.71 0 0 1-.47-.611 1.381 1.381 0 0 0-.135-1.833l-.128-.147h.152c1.394.202 2.096-.898 1.412-2.505a4.937 4.937 0 0 1 2.273-1.417 14.27 14.27 0 0 1 2.48 2.884Z"/>
  <path fill="#000" d="M13.866 23.195ZM12.803 24.9l.207-.055.129-.05a.932.932 0 0 1-.123.037 1.67 1.67 0 0 1-.207.068h-.006Zm3.891-3.85-.036-.048a1.294 1.294 0 0 0-.08-.116v-.03l-.146-.209-.257-.342a14.314 14.314 0 0 0-1.686-1.833l-.196-.17-.116-.105a.214.214 0 0 0-.134-.049H14a2.46 2.46 0 0 0-.281.086c-.07.019-.136.043-.202.073-.121.046-.24.099-.354.16l-.196.103a2.056 2.056 0 0 0-.195.116 3.337 3.337 0 0 0-.244.159 4.4 4.4 0 0 0-.514.41l-.177.158-.152.153-.056.055a.22.22 0 0 0-.054.14.092.092 0 0 0 0 .055 1.832 1.832 0 0 1 0 1.833 1.222 1.222 0 0 1-1.223.38h-.14a.208.208 0 0 0-.214.097.158.158 0 0 0 0 .049.208.208 0 0 0 .043.183l.043.043.08.085a1.221 1.221 0 0 1 .134 1.564.208.208 0 0 0 0 .214l.036.067a1.7 1.7 0 0 0 .245.367l.06.073.184.165c.38.301.854.46 1.338.446.116.01.232.01.348 0 .087-.005.173-.02.257-.042l.165-.037c.083-.018.165-.043.244-.073a1.27 1.27 0 0 0 .196-.074.068.068 0 0 0 .049 0l.189-.085.08-.043a.369.369 0 0 0 .097-.049h.043a.2.2 0 0 0 .11-.177v-.141a1.93 1.93 0 0 1 .293-1.222 4.643 4.643 0 0 1 1.479-1.441 6 6 0 0 1 .892-.49.08.08 0 0 0 .036 0 .33.33 0 0 0 .043-.079l.03-.116a.19.19 0 0 0-.011-.262h-.007Zm-1.05.453H15.6c-.122.08-.245.152-.355.238-.11.085-.226.165-.33.25l-.22.196s-.03 0-.042.037a4.177 4.177 0 0 0-.776.94 2.39 2.39 0 0 0-.281.66c-.054.187-.08.38-.08.575v.195l-.268.122-.11.043a.933.933 0 0 1-.123.037 2.442 2.442 0 0 1-.556.134 1.967 1.967 0 0 1-.323 0 1.686 1.686 0 0 1-1.088-.354.883.883 0 0 1-.134-.128.452.452 0 0 1-.098-.117 1.026 1.026 0 0 1-.128-.189.617.617 0 0 0 .049-.085.132.132 0 0 0 0-.037c.031-.06.058-.124.079-.19 0-.073.043-.146.061-.226v-.385a1.522 1.522 0 0 0-.104-.421 2.266 2.266 0 0 0-.183-.373 1.64 1.64 0 0 0 .892-.22 1.54 1.54 0 0 0 .269-.207l.11-.129a.966.966 0 0 0 .134-.22c.159-.328.216-.696.165-1.057 0-.091 0-.183-.043-.275a2.368 2.368 0 0 0-.073-.28 1.83 1.83 0 0 0-.08-.239v-.049l.117-.11a4.853 4.853 0 0 1 1.356-.94c.083-.04.169-.075.257-.105.083-.034.169-.062.256-.085a13.4 13.4 0 0 1 1.912 2.071c.141.177.27.355.398.538l-.281.14c-.092.104-.214.171-.33.245h-.007Z"/>
  <path fill="#fff" d="M10.462 24.198c-.513.61-1.68.867-3.055.152a5.87 5.87 0 0 1-.666-.415 4.535 4.535 0 0 1-.476-.391c-2.06-1.882-.697-3.904.531-3.978.236.493.569.934.978 1.296l.128.11a5.26 5.26 0 0 0 2.291 1.27l.128.147a1.381 1.381 0 0 1 .14 1.809Z"/>
  <path fill="#000" d="m10.316 24.337-.037-.067a.208.208 0 0 1 0-.214c-.428.532-1.49.782-2.798.098a.194.194 0 0 1 .104.147 1.04 1.04 0 0 0 0 .134c0 .086.03.165.049.245.176.074.358.136.543.183l.208.049h.043l.238.036h.764l.128-.03c.063-.013.124-.031.183-.055.114-.035.223-.084.324-.147a.469.469 0 0 0 .116-.073.966.966 0 0 0 .16-.116 1.55 1.55 0 0 1-.025-.19Zm.61-1.069a1.518 1.518 0 0 0-.103-.421 2.285 2.285 0 0 0-.33-.58l-.128-.147a.208.208 0 0 0-.11-.068 5.12 5.12 0 0 1-2.2-1.221l-.11-.092a3.8 3.8 0 0 1-.922-1.222.202.202 0 0 0-.196-.116.11.11 0 0 0-.061 0 .85.85 0 0 0-.208 0 2.077 2.077 0 0 0-1.387 1.332 2.56 2.56 0 0 0 .66 2.596c.056.07.118.135.184.196l.152.153.055.055.086.073.128.104.232.177.294.202.244.14.061.037.086.049.14.067a3.8 3.8 0 0 0 .764.287l.208.049h.042l.239.037h.763l.129-.031a1.07 1.07 0 0 0 .183-.055c.114-.035.222-.084.324-.147a.469.469 0 0 0 .116-.073.962.962 0 0 0 .159-.116.834.834 0 0 0 .146-.147l.055-.055a.66.66 0 0 0 .08-.116.258.258 0 0 0 .049-.073.133.133 0 0 0 0-.037c.031-.06.058-.124.079-.19 0-.072.043-.146.061-.225.034-.138.047-.28.037-.422Zm-.61.788c-.428.532-1.491.782-2.798.098a4.439 4.439 0 0 1-.611-.397 4.987 4.987 0 0 1-.465-.379c-1.173-1.069-1.057-2.04-.886-2.517a1.662 1.662 0 0 1 1.173-1.094l.123.227.17.256c.18.26.384.502.612.721l.128.116c.524.466 1.12.844 1.766 1.118l.207.08.202.06.14.037.08.086a1.222 1.222 0 0 1 .147 1.588h.012Zm4.527-2.688a6.817 6.817 0 0 0-1.589.52 5.998 5.998 0 0 0-1.362.965 2.334 2.334 0 0 1 1.185-1.32 2.444 2.444 0 0 1 1.766-.165Zm-2.255.244a1.253 1.253 0 0 1 .61-.904 1.38 1.38 0 0 1 1.082-.19c-.317.208-.61.355-.873.526-.263.171-.508.348-.82.568Z"/>
  <path fill="#FFD600" d="M20.073 21.014a4.588 4.588 0 0 0-3.483.227l-.055-.08c.244-1.045.061-1.998-.61-2.523a2.139 2.139 0 0 0-1.913-.312 4.936 4.936 0 0 0-2.273 1.418 7.198 7.198 0 0 0-1.833-2.39c.326-.337.678-.65 1.05-.934 2.445-1.876 5.5-2.218 7.455-.611 1.497 1.167 2.022 3.128 1.662 5.205Z"/>
  <path fill="#000" d="M16.76 19.615a2.01 2.01 0 0 0-.69-1.13c-.38-.3-.853-.459-1.338-.447a2.883 2.883 0 0 0-.702.092h-.043c-.095.023-.19.052-.281.086a1.338 1.338 0 0 0-.202.073c-.121.045-.24.098-.354.159l-.196.104a2.07 2.07 0 0 0-.195.116c-.086.049-.165.104-.245.159-.18.124-.352.26-.513.409l-.177.159.086.195a.408.408 0 0 1 .036.074c0 .036.03.067.043.103l.116-.116a4.85 4.85 0 0 1 1.356-.94c.083-.043.169-.078.257-.104a1.4 1.4 0 0 1 .257-.086h.232c.086-.023.174-.037.263-.043.474-.068.957.053 1.344.336a1.737 1.737 0 0 1 .61 1.222 2.51 2.51 0 0 1 0 .648c0 .092 0 .19-.042.287l-.037.183a.855.855 0 0 1 .092-.116c.041-.055.086-.108.134-.159a.079.079 0 0 1 .037-.042c.067-.092.147-.177.226-.27a3.05 3.05 0 0 0-.073-.952Zm3.16-2.17a4.386 4.386 0 0 0-.306-.61 4.479 4.479 0 0 0-1.026-1.222c-1.974-1.607-5.017-1.38-7.613.556l-.092.067-.097.073-.184.147c-.22.183-.446.385-.66.611l-.134.134a.202.202 0 0 0-.055.141.183.183 0 0 0 .067.14c.104.092.202.19.287.282a.94.94 0 0 1 .135.14c.146.147.275.293.397.434l.03.037c.14.17.27.335.385.507.197.28.367.579.507.892a.195.195 0 0 0 .147.11c.034.012.07.012.104 0a.159.159 0 0 0 .08-.05l.085-.085.116-.116a4.85 4.85 0 0 1 1.356-.94c.082-.043.168-.078.257-.105.083-.036.168-.065.257-.085h.232c.086-.023.174-.037.262-.043.475-.068.958.052 1.345.336a1.736 1.736 0 0 1 .61 1.222 2.51 2.51 0 0 1 0 .648c0 .091 0 .189-.042.287l-.037.183c0 .05.014.1.043.14l.03.043a.178.178 0 0 0 .153.086h.098a5.157 5.157 0 0 1 2.444-.452c.313.026.62.1.91.22a.207.207 0 0 0 .171 0 .165.165 0 0 0 .08-.092.067.067 0 0 0 0-.049c.003-.05.003-.102 0-.152a6.323 6.323 0 0 0-.343-3.404v-.03Zm-.208 3.245-.171-.043h-.098l-.257-.036a3.687 3.687 0 0 0-.458 0 3.51 3.51 0 0 0-.44 0 3.33 3.33 0 0 0-.421.06h-.178l-.134.037c-.147.03-.3.074-.458.123l-.318.11c.025-.136.041-.272.049-.41a3.056 3.056 0 0 0-.067-.928 2.01 2.01 0 0 0-.69-1.13 2.081 2.081 0 0 0-1.339-.447 2.883 2.883 0 0 0-.702.092h-.043a2.44 2.44 0 0 0-.281.085 1.338 1.338 0 0 0-.202.074c-.121.045-.24.098-.354.159l-.196.104a2.048 2.048 0 0 0-.195.116c-.086.048-.165.103-.245.158-.18.124-.352.261-.513.41l-.177.159a6.664 6.664 0 0 0-.782-1.18 5.512 5.512 0 0 0-.244-.287c-.086-.091-.147-.165-.226-.244l-.336-.336a8.52 8.52 0 0 1 .885-.77c2.444-1.882 5.365-2.138 7.21-.61a4.4 4.4 0 0 1 .984 1.142c.113.197.213.4.299.61a5.95 5.95 0 0 1 .293 3.055l-.195-.073Z"/>
  <path fill="#FFD600" d="M17.366 25.969c-2.579 2.505-6.11 3.14-8.31 1.356a4.735 4.735 0 0 1-1.643-2.994c1.369.715 2.536.477 3.055-.152.108.237.27.446.47.61.697.569 1.772.508 2.81-.048.22 1.179 1.626 1.986 3.618 1.228Z"/>
  <path fill="#000" d="M17.531 25.865a.202.202 0 0 0-.238-.08 3.054 3.054 0 0 1-2.554 0 1.601 1.601 0 0 1-.794-1.05v-.037a.14.14 0 0 0-.037-.073.177.177 0 0 0-.073-.061.225.225 0 0 0-.11 0 .138.138 0 0 0-.067 0l-.129.06a2.644 2.644 0 0 1-.268.123l-.11.043-.129.049-.207.055a2.249 2.249 0 0 1-.343.067 1.967 1.967 0 0 1-.323 0 1.686 1.686 0 0 1-1.088-.355.89.89 0 0 1-.134-.128.895.895 0 0 1-.098-.116 1.03 1.03 0 0 1-.128-.19.716.716 0 0 1-.055-.091.16.16 0 0 0-.068-.073.165.165 0 0 0-.085-.043.213.213 0 0 0-.184.073c-.427.532-1.49.782-2.798.098a.183.183 0 0 0-.207 0 .14.14 0 0 0-.055.067.171.171 0 0 0 0 .122v.098c.018.124.042.246.073.367 0 .104.055.207.085.305a4.76 4.76 0 0 0 1.552 2.346 4.772 4.772 0 0 0 3.03 1.082h.086a6.612 6.612 0 0 0 2.078-.349c.232-.079.464-.17.696-.268l.348-.165a9.165 9.165 0 0 0 2.273-1.631h.03a.202.202 0 0 0 .031-.245Zm-8.914.776-.043-.061a1.99 1.99 0 0 1-.189-.257 1.837 1.837 0 0 1-.165-.256 2.295 2.295 0 0 1-.147-.27.22.22 0 0 1 0-.054 2.64 2.64 0 0 1-.134-.3v-.042l-.11-.312a7.303 7.303 0 0 1-.104-.39c.177.074.358.135.544.182l.208.05h.042l.239.036h.763l.129-.03c.062-.013.124-.032.183-.056a1.43 1.43 0 0 0 .324-.146.463.463 0 0 0 .116-.074.95.95 0 0 0 .159-.116c.043.07.092.135.146.196l.062.073.183.165c.38.301.853.46 1.338.446.116.01.232.01.348 0 .087-.005.173-.02.257-.043l.165-.036c.083-.018.165-.043.244-.074.067-.019.132-.043.195-.073a.068.068 0 0 0 .05 0l.189-.08a.22.22 0 0 0 0 .056c.072.21.184.405.33.574.077.093.163.18.256.257.1.081.207.155.318.22a3 3 0 0 0 2.034.262 7.454 7.454 0 0 1-4.417 1.73 4.473 4.473 0 0 1-.702-.037 4.277 4.277 0 0 1-2.28-.923c-.118-.096-.23-.2-.335-.311l-.196-.306Z"/>
  <path fill="#fff" d="M52.124 54.58c1.442 5.249-.446 10.173-3.537 10.84-3.092.665-6.33-3.141-7.173-8.518-.916-5.846 0-10.032 3.055-10.759 3.195-.751 6.018 2.493 7.655 8.438Z"/>
  <path fill="#000" d="M52.313 54.532c-.996-3.611-2.444-6.208-4.105-7.576l-.165-.129-.184-.134a4.155 4.155 0 0 0-3.287-.77l-.207.043a3.214 3.214 0 0 0-.727.263 3.72 3.72 0 0 0-1.455 1.221 2.948 2.948 0 0 0-.342.532 2.85 2.85 0 0 0-.195.391 2.17 2.17 0 0 0-.098.208l-.073.201a9.163 9.163 0 0 0-.526 2.334v1.399c0 .465 0 .96.03 1.473v.531c.062.752.154 1.552.288 2.395.544 3.477 2.157 6.513 4.203 7.943.656.48 1.433.768 2.243.83h.22c.25-.001.5-.028.745-.078a4.08 4.08 0 0 0 2.059-1.186c.32-.329.6-.694.837-1.087 1.314-2.242 1.613-5.621.74-8.804Zm-3.776 10.692a3.71 3.71 0 0 1-2.902-.703c-1.96-1.35-3.507-4.277-4.032-7.656a29.815 29.815 0 0 1-.293-2.541V53.26c0-.575 0-1.118.042-1.625v-.421a1.217 1.217 0 0 1 0-.153.231.231 0 0 0 0-.06 9.16 9.16 0 0 1 .569-2.261c.024-.072.055-.142.091-.208a2.29 2.29 0 0 1 .104-.214c.095-.189.203-.37.324-.544a2.45 2.45 0 0 1 .214-.28 2.07 2.07 0 0 1 .244-.27c.172-.178.367-.332.58-.458.094-.07.194-.128.3-.177.224-.11.46-.194.703-.25a.154.154 0 0 1 .073 0c.254-.06.515-.091.776-.092.377.001.753.061 1.112.177.238.08.469.18.69.3a2.2 2.2 0 0 1 .214.128l.055.036c.073.04.142.084.208.135.06.037.118.08.17.128.576.443 1.08.97 1.498 1.564a18.487 18.487 0 0 1 2.609 5.896c.849 3.055.562 6.342-.746 8.499a4.204 4.204 0 0 1-2.602 2.114Z"/>
  <path fill="#A4A2A0" d="M49.973 63.72a2.01 2.01 0 0 0-1.833-.28 2.09 2.09 0 0 0-1.357 1.081c-2.242-.751-4.319-3.953-4.985-8.12-.892-5.596-.14-9.586 2.633-10.245 2.89-.685 5.499 2.443 7.026 8.156 1.057 3.959.288 7.704-1.484 9.409Z"/>
  <path fill="#000" d="M51.63 54.257a19.603 19.603 0 0 0-2.31-5.498 8.637 8.637 0 0 0-1.35-1.632l-.153-.134-.177-.147a4.707 4.707 0 0 0-.3-.22h-.055a3.727 3.727 0 0 0-2.694-.61l-.208.042a3.217 3.217 0 0 0-.727.263 3.373 3.373 0 0 0-1.295 1.167 1.583 1.583 0 0 0-.171.275 2.55 2.55 0 0 0-.147.256 4.074 4.074 0 0 0-.19.434c-.03.065-.054.133-.073.202-.03.067-.049.134-.073.201a2.614 2.614 0 0 0-.092.33 9.737 9.737 0 0 0-.33 1.943.652.652 0 0 0 0 .11.6.6 0 0 0 0 .104 1.626 1.626 0 0 0 0 .171v2.914a32.5 32.5 0 0 0 .27 2.102c.66 4.149 2.718 7.472 5.12 8.273l.17.06.074-.17a1.875 1.875 0 0 1 1.222-.966 1.778 1.778 0 0 1 1.655.239l.14.128.135-.134c1.961-1.968 2.585-5.915 1.558-9.703Zm-8.005 6.978a4.004 4.004 0 0 1-.195-.355 14.718 14.718 0 0 1-1.454-4.503 26.747 26.747 0 0 1-.324-2.969c0-.476-.037-.935 0-1.368v-1.094c.06-.746.213-1.48.458-2.187.02-.072.047-.141.08-.208.025-.07.053-.14.085-.208.087-.212.19-.416.312-.61a1.2 1.2 0 0 1 .183-.257c.058-.087.124-.169.196-.245.149-.17.317-.321.5-.452a2.992 2.992 0 0 1 .954-.421h.049a.151.151 0 0 1 .073 0c.2-.047.405-.07.61-.068.434.002.863.094 1.26.27.275.116.536.266.775.445l.19.14.159.135a3.2 3.2 0 0 1 .22.196 11.09 11.09 0 0 1 2.279 3.5l.085.202c.03.073.061.153.098.226 0 .055.043.116.067.177.025.061.049.129.08.196.325.848.606 1.713.843 2.59.965 3.562.433 7.265-1.29 9.092a2.274 2.274 0 0 0-1.887-.202c-.58.15-1.08.514-1.4 1.02a6.593 6.593 0 0 1-3.005-3.042Z"/>
  <path fill="#000" d="m43.49 61.345-.256-.306a13.393 13.393 0 0 1 7.521-2.981.465.465 0 0 0 .257-.82l-.135-.115a1.277 1.277 0 0 1-.44-.984 13.716 13.716 0 0 0-4.044-9.647l.28-.281a14.09 14.09 0 0 1 4.162 9.934.874.874 0 0 0 .305.678l.135.117a.86.86 0 0 1 .256.916.855.855 0 0 1-.733.611 12.978 12.978 0 0 0-7.307 2.878Z"/>
  <path fill="#6FCFEB" d="M42.746 54.367a.53.53 0 0 1 .165-.745 8.682 8.682 0 0 1 3.403-1.149.533.533 0 0 1 .611.483.52.52 0 0 1-.452.55 7.79 7.79 0 0 0-3 1.008.521.521 0 0 1-.727-.147Z"/>
  <path fill="#000" d="M46.857 52.424a.702.702 0 0 0-.55-.158 9.049 9.049 0 0 0-3.482 1.172.74.74 0 0 0-.336.465.721.721 0 0 0 .116.568.727.727 0 0 0 .61.312.715.715 0 0 0 .367-.098 7.52 7.52 0 0 1 2.92-.984.733.733 0 0 0 .534-1.055.715.715 0 0 0-.179-.222Zm-3.977 1.564a.324.324 0 0 1 .153-.207 8.554 8.554 0 0 1 3.323-1.124.331.331 0 0 1 .367.318.318.318 0 0 1-.281.341 7.87 7.87 0 0 0-3.055 1.039.318.318 0 0 1-.428-.098l-.165.116.153-.128a.344.344 0 0 1-.098-.257h.03Z"/>
  <path fill="#6FCFEB" d="M43.393 56.578a.523.523 0 0 1-.059-.604.519.519 0 0 1 .145-.16 6.781 6.781 0 0 1 3.58-1.258.525.525 0 1 1 .073 1.045 5.615 5.615 0 0 0-3.024 1.05.52.52 0 0 1-.715-.073Z"/>
  <path fill="#000" d="M47.572 54.52a.734.734 0 0 0-.537-.196 7.014 7.014 0 0 0-3.666 1.296.726.726 0 0 0 .428 1.307.764.764 0 0 0 .434-.14 5.419 5.419 0 0 1 2.914-1.02.727.727 0 0 0 .446-1.26l-.019.013Zm-4.032 1.906a.304.304 0 0 1-.073-.25.287.287 0 0 1 .128-.22 6.568 6.568 0 0 1 3.477-1.222c.08 0 .16.03.22.085a.349.349 0 0 1 .103.257.318.318 0 0 1-.305.317 5.865 5.865 0 0 0-3.128 1.094.318.318 0 0 1-.422-.061Z"/>
  <path fill="#6FCFEB" d="M44.084 58.894a.52.52 0 0 1-.061-.764 4.78 4.78 0 0 1 3.85-1.49.525.525 0 0 1-.044 1.05 3.698 3.698 0 0 0-3.054 1.149.526.526 0 0 1-.69.055Z"/>
  <path fill="#000" d="M48.378 56.676a.72.72 0 0 0-.513-.244 4.999 4.999 0 0 0-4.002 1.551.716.716 0 0 0-.196.538.76.76 0 0 0 .275.52c.127.1.285.153.446.152a.766.766 0 0 0 .532-.226 3.477 3.477 0 0 1 2.878-1.087.745.745 0 0 0 .745-.666.734.734 0 0 0-.165-.538Zm-.556.819a3.897 3.897 0 0 0-3.177 1.222.33.33 0 0 1-.568-.202.3.3 0 0 1 .085-.232 4.491 4.491 0 0 1 3.47-1.436h.233a.323.323 0 0 1 .226.11.324.324 0 0 1 .08.263.336.336 0 0 1-.349.275Z"/>
  <path fill="#fff" d="M45.733 50.14a.294.294 0 0 1 0-.435c.476-.427 1.32-.116 1.753.336.336.318.611.82 1.082.85.093.006.187.006.28 0a.647.647 0 0 1 .666.61.611.611 0 0 1-.745.685 2.346 2.346 0 0 1-1.222-.574 3.298 3.298 0 0 1-.672-1.057.672.672 0 0 0-.819-.36.3.3 0 0 1-.311-.044l-.012-.012Z"/>
  <path fill="#000" d="M49.698 51.483a.52.52 0 0 0-.055-.25.665.665 0 0 0-.11-.19.732.732 0 0 0-.17-.165.825.825 0 0 0-.52-.165h-.263c-.263 0-.47-.25-.684-.5-.092-.105-.177-.208-.263-.288-.47-.489-1.436-.88-2.034-.348a.494.494 0 0 0-.16.36.513.513 0 0 0 .178.373.52.52 0 0 0 .513.08.47.47 0 0 1 .574.262l.08.165c.14.351.347.67.61.941.37.331.83.544 1.32.611a.65.65 0 0 0 .153 0c.204 0 .4-.076.55-.214a.672.672 0 0 0 .165-.208.729.729 0 0 0 .092-.213.646.646 0 0 0 0-.19s.024-.036.024-.06Zm-.464.312a.564.564 0 0 1-.08.091l-.091.061a.373.373 0 0 1-.27.037 2.083 2.083 0 0 1-1.117-.525 2.443 2.443 0 0 1-.544-.825l-.085-.177a.916.916 0 0 0-.795-.501.76.76 0 0 0-.28.049.104.104 0 0 1-.105 0 .116.116 0 0 1-.03-.08.061.061 0 0 1 0-.055c.385-.348 1.118-.043 1.484.33.08.08.16.171.245.269a1.44 1.44 0 0 0 .94.61c.105.007.209.007.312 0a.456.456 0 0 1 .367.172.391.391 0 0 1 .085.183v.116a.464.464 0 0 1-.036.245Z"/>
  <path fill="#fff" d="M50.17 51.69a5.149 5.149 0 0 1-.893.123.262.262 0 0 1-.269-.275.257.257 0 0 1 .245-.25c.272-.011.541-.048.806-.11a.255.255 0 0 1 .27.097.256.256 0 0 1 .045.197.27.27 0 0 1-.205.219Z"/>
  <path fill="#000" d="M50.566 51.3a.446.446 0 0 0-.28-.318.465.465 0 0 0-.227-.03h-.049l-.183.036c-.1.024-.203.04-.306.049h-.244a.458.458 0 0 0-.434.446.465.465 0 0 0 .135.348.403.403 0 0 0 .122.086.446.446 0 0 0 .201.048h.489c.134-.014.267-.036.397-.067h.062a.391.391 0 0 0 .189-.091.428.428 0 0 0 .11-.123.19.19 0 0 0 0-.06.44.44 0 0 0 .018-.325Zm-.861.256h-.483a.08.08 0 0 1 0-.055.067.067 0 0 1 .055-.061h.416l.287-.049h.122a.074.074 0 0 1 .067.05h.19l-.117.054-.085.043a.061.061 0 0 1-.043 0 .622.622 0 0 1-.104 0l-.305.018Z"/>
  <path fill="#fff" d="M42.41 51.49a.294.294 0 0 0-.171-.397c-.611-.184-1.222.452-1.454 1.044-.165.422-.202.996-.611 1.222a1.364 1.364 0 0 1-.25.129.654.654 0 0 0-.361.812.612.612 0 0 0 .965.312c.383-.254.683-.615.861-1.039a3.19 3.19 0 0 0 .165-1.222.678.678 0 0 1 .611-.672.288.288 0 0 0 .257-.17l-.012-.02Z"/>
  <path fill="#000" d="M42.58 51.172a.45.45 0 0 0-.042-.073.422.422 0 0 0-.165-.147h-.074a.977.977 0 0 0-.397-.036l-.195.042-.116.05-.092.048a.493.493 0 0 0-.11.061l-.11.08-.104.085-.061.055c-.067.067-.128.14-.19.214l-.036.055a1.831 1.831 0 0 0-.269.507 3.547 3.547 0 0 0-.122.385c-.092.318-.177.61-.428.751-.068.045-.14.084-.214.116a.861.861 0 0 0-.494.611.823.823 0 0 0 0 .214c0 .07.013.137.036.202a.175.175 0 0 0 0 .055.226.226 0 0 0 .03.067.612.612 0 0 0 .117.177.496.496 0 0 0 .165.153c.07.056.151.098.238.122a.8.8 0 0 0 .72-.122c.102-.071.198-.148.288-.232.072-.06.14-.126.202-.196.064-.063.12-.133.17-.207.07-.087.13-.182.178-.282.034-.06.062-.123.086-.189.035-.08.064-.164.085-.25.066-.287.096-.58.092-.874v-.183a.483.483 0 0 1 .415-.483.471.471 0 0 0 .379-.22.172.172 0 0 0 .049-.067.516.516 0 0 0 .049-.208 1.019 1.019 0 0 1-.08-.28Zm-.366.245a.097.097 0 0 1-.092.054.794.794 0 0 0-.495.227.972.972 0 0 0-.287.642v.188c.007.249-.017.497-.073.74a.5.5 0 0 1 0 .091l-.055.147c-.028.075-.06.149-.098.22a1.68 1.68 0 0 1-.202.281 2.691 2.691 0 0 1-.488.446.41.41 0 0 1-.263.073h-.11a.395.395 0 0 1-.104-.049.403.403 0 0 1-.14-.146.329.329 0 0 1-.043-.08.115.115 0 0 1 0-.048.451.451 0 0 1 0-.202.403.403 0 0 1 .122-.208.372.372 0 0 1 .147-.104 2.09 2.09 0 0 0 .262-.134 1.466 1.466 0 0 0 .611-.984c.03-.114.067-.226.11-.336a1.51 1.51 0 0 1 .129-.269c.037-.066.08-.13.128-.19a.71.71 0 0 1 .085-.103.882.882 0 0 1 .135-.128.775.775 0 0 1 .201-.147l.11-.049a.47.47 0 0 1 .16-.042.24.24 0 0 1 .09 0 .513.513 0 0 1 .166 0 .085.085 0 0 1 .058.082.091.091 0 0 1-.01.04l.178.085-.232-.098Z"/>
  <path fill="#fff" d="M39.031 54.746a4.99 4.99 0 0 0 .862-.263.257.257 0 0 0 .128-.36.256.256 0 0 0-.33-.122 5.364 5.364 0 0 1-.776.238.27.27 0 0 0-.207.306.262.262 0 0 0 .323.201Z"/>
  <path fill="#000" d="M40.192 54.024a.44.44 0 0 0-.342-.244.464.464 0 0 0-.238.03h-.031a2.158 2.158 0 0 1-.238.086 3.791 3.791 0 0 1-.477.128.464.464 0 0 0 .104.916h.098c.207-.045.41-.102.61-.17.085-.025.166-.055.245-.092h.043a.404.404 0 0 0 .177-.14.349.349 0 0 0 .08-.13.458.458 0 0 0-.031-.384Zm-1.265.52V54.5a.067.067 0 0 1 .055-.074c.14-.03.275-.067.397-.104l.19-.067.19-.067h.03a.068.068 0 0 1 .055.037v.091l-.196.067-.195.062c-.129.042-.263.073-.416.11a.074.074 0 0 1-.064.027.074.074 0 0 1-.058-.04h.012Z"/>
  <path fill="#fff" d="M44.242 52.04c-1.148.311-1.71-.386-1.655-1.167l1.13-.373a1.54 1.54 0 0 0 .874-.758c1.087.477.983 1.95-.349 2.297Z"/>
  <path fill="#000" d="m44.854 49.657-.183-.092a.202.202 0 0 0-.257.085c-.16.314-.437.553-.77.666a34.2 34.2 0 0 1-1.118.367.19.19 0 0 0-.128.171.3.3 0 0 0 0 .073v.306a.356.356 0 0 1 0 .11 1.327 1.327 0 0 0 .415.653c.245.2.553.303.868.294a2.11 2.11 0 0 0 .58-.086 1.54 1.54 0 0 0 1.222-1.332 1.326 1.326 0 0 0-.63-1.215Zm-1.76 2.065a.93.93 0 0 1-.317-.703c.274-.086.55-.171.818-.269l.184-.061c.086-.03.17-.067.25-.11h.055a1.35 1.35 0 0 0 .379-.293c.06-.065.115-.135.165-.208a.922.922 0 0 1 .464.861 1.143 1.143 0 0 1-.94.978 1.222 1.222 0 0 1-1.058-.195Z"/>
  <path fill="#000" d="M43.723 51.69a.202.202 0 0 1-.196-.177 1.522 1.522 0 0 1 .465-1.356.202.202 0 0 1 .325.064.196.196 0 0 1-.044.217 1.125 1.125 0 0 0-.348 1.026.202.202 0 0 1-.178.22l-.024.006Z"/>
  <path fill="#FFD600" d="M44.774 49.002c.001.258-.062.512-.183.74a1.54 1.54 0 0 1-.874.757l-1.13.373a22.98 22.98 0 0 1-6.385 1.13 6.354 6.354 0 0 1-2.902-.556c-1.985-1.032-3.201-3.012-4.277-7.087A1.588 1.588 0 0 1 31.39 42.6c.352.216.606.562.708.964.904 3.482 1.722 4.576 2.651 5.058.715.367 3.666.355 7.876-1.118a1.589 1.589 0 0 1 2.126 1.497h.024Z"/>
  <path fill="#000" d="M38.61 48.58a9.993 9.993 0 0 1-.77.123 1.405 1.405 0 0 1-.275-.03l-.275-.038-.256-.042a4.942 4.942 0 0 1-2.15-.14 2.442 2.442 0 0 1-.728-.612 2.609 2.609 0 0 1-.33-.11c-.037-.049-.067-.098-.098-.146-.03-.05-.06-.086-.091-.129h-.043a1.98 1.98 0 0 1-.263-.11c.043.086.092.165.135.239v.036l.091.129.116.165c.272.368.623.67 1.027.886.601.21 1.242.283 1.875.213h.636c.44-.036.922-.104 1.454-.195.25-.043.507-.092.776-.153a7.125 7.125 0 0 1-.831-.085Zm6.232-.25a.365.365 0 0 0-.049-.098.718.718 0 0 0-.098-.177.839.839 0 0 0-.122-.177 1.773 1.773 0 0 0-1.57-.654h-.08a1.7 1.7 0 0 0-.232.055l-.11.03-.214.068-.158.055c-1.175.4-2.378.71-3.599.929-.275.048-.532.091-.776.122h-.049l-.36.043-.36.036h-.031a4.944 4.944 0 0 1-2.15-.14 2.445 2.445 0 0 1-.728-.611 2.039 2.039 0 0 1-.195-.239.132.132 0 0 1 0-.036l-.092-.122-.104-.165a14.615 14.615 0 0 1-1.4-3.782 1.796 1.796 0 0 0-2.125-1.308h-.055c-.452.114-.84.402-1.082.8a1.741 1.741 0 0 0-.201 1.381c0 .068.03.129.049.19.018.06.06.226.085.33.024.104.061.201.086.3a13.484 13.484 0 0 0 2.18 4.783.807.807 0 0 0 .135.159c.04.054.082.105.128.153a6 6 0 0 0 1.693 1.301c.205.107.42.195.641.263l.208.06c.07.026.141.044.214.056.635.143 1.285.21 1.937.201a20.192 20.192 0 0 0 4.668-.647h.036l.22-.055h.202l.122-.037.196-.055.11-.03.158-.043.41-.122h.055l.158-.043h.098l.135-.043c.275-.086.55-.171.818-.269l.184-.06c.086-.031.17-.068.25-.11h.055c.061-.034.12-.07.177-.11a1.84 1.84 0 0 0 .196-.178 1.755 1.755 0 0 0 .269-.379c.03-.06.06-.122.085-.183.08-.209.122-.43.122-.654a1.834 1.834 0 0 0-.14-.788Zm-2.328 2.358-.61.178-.196.06h-.312a.369.369 0 0 1-.11 0h-.092l-.226.056c-2.584.653-4.839.843-6.397.537l-.226-.049-.207-.055a3.758 3.758 0 0 1-.727-.28 5.67 5.67 0 0 1-1.632-1.265l-.128-.153-.128-.159a12.38 12.38 0 0 1-1.907-4.093c-.036-.098-.06-.196-.091-.294l-.092-.317-.183-.679a1.357 1.357 0 0 1 1.039-1.686h.036a1.387 1.387 0 0 1 1.62 1.02c.288 1.19.698 2.346 1.221 3.452.055.098.104.196.16.282.054.085.09.164.133.238v.036l.092.129.116.165c.272.368.622.67 1.027.886.601.21 1.242.283 1.875.213h.636c.44-.036.922-.103 1.454-.195.25-.043.507-.092.776-.153.269-.06.531-.116.806-.19a21.098 21.098 0 0 0 1.62-.457l.183-.055.116-.037.177-.061.146-.05.16-.054h.091a1.386 1.386 0 0 1 1.57.458c.042.053.08.11.11.171a1.28 1.28 0 0 1 .177.678 1.393 1.393 0 0 1-.928 1.314c-.367.128-.746.25-1.118.367l-.03.042Z"/>
  <path fill="#FFD600" d="M58.43 30.307a18.366 18.366 0 1 1-18.531-18.36h.171a18.262 18.262 0 0 1 10.619 3.379c.311.22.61.446.91.684l.41.342c.311.27.61.55.91.843a18.328 18.328 0 0 1 5.51 13.112Z"/>
  <path fill="#000" d="M51.88 16.487a2.687 2.687 0 0 1-.172-.201 39.828 39.828 0 0 0-.201-.25l-.061-.074v-.055l-.171-.134-.569-.428-.128.159.03.06h.05c.287.202.574.422.849.642l.415.349-.043-.068ZM39.41 48.43c-.275 0-.55 0-.825-.049-.275-.049-.41-.03-.611-.055h-.27l-.274-.037a17.596 17.596 0 0 1-3.312-.812l-.213-.068-.196-.073-.293-.116a2.911 2.911 0 0 1-.293-.116c.055.098.104.196.158.281a2 2 0 0 0 .263.11h.043c.03.043.055.086.092.128.036.043.06.098.097.147.11.045.22.081.33.11.937.322 1.9.563 2.878.72l.256.044.276.036c.09.02.182.03.274.03.245-.03.501-.066.77-.121.268.031.537.047.807.049.262-.055.531-.117.806-.19h-.159c-.17 0-.385-.006-.605-.018Zm13.74-31.294-.085-.092-.074-.067-.158-.159-.239-.22-.434-.39-.299-.251-.122-.098-.037-.03-.165-.129a.506.506 0 0 0-.097-.073 12.036 12.036 0 0 0-.556-.422h-.037a19.617 19.617 0 0 0-.74-.495c-.25-.158-.335-.213-.507-.317a17.706 17.706 0 0 0-1.65-.868l-.384-.177-.36-.153c-.69-.288-1.399-.53-2.12-.727a15.526 15.526 0 0 0-.612-.165 16.03 16.03 0 0 0-1.221-.244l-.41-.067-.422-.055h-.225l-.44-.037c-.14 0-.288 0-.44-.037H39.55a18.61 18.61 0 0 0-18.048 18.445c0 .337 0 .673.03 1.003v.201a1.07 1.07 0 0 0 0 .196c.06.93.2 1.854.416 2.761.008.066.023.132.043.196 0 .067 0 .134.049.201a18.592 18.592 0 0 0 6.995 10.387c.086.067.177.128.263.183.084.07.174.134.269.19a18.048 18.048 0 0 0 3.8 2.004h.043l.159.06.177.068c.11.045.22.081.33.11a17.3 17.3 0 0 0 2.877.72l.257.043.275.037c.09.02.182.03.275.03.265.042.532.07.8.08.47.043.947.061 1.424.061.476 0 .947 0 1.411-.06.071.005.143.005.214 0 .07.005.139.005.208 0h.201c.758-.08 1.51-.213 2.249-.398.068-.008.136-.023.201-.043l.196-.049a17.276 17.276 0 0 0 2.444-.83c.114-.043.227-.092.336-.147a.056.056 0 0 0 .042 0 .755.755 0 0 0 .16-.074.056.056 0 0 0 .042 0 .528.528 0 0 0 .147-.067l.073-.03.183-.092a18.573 18.573 0 0 0 9.96-12.598 1.45 1.45 0 0 0 .054-.22c0-.073 0-.14.043-.214a18.04 18.04 0 0 0 .342-2.896v-.746a18.392 18.392 0 0 0-5.34-13.24Zm5.065 13.545c.01.071.01.143 0 .214.006.065.006.13 0 .196a18 18 0 0 1-.373 2.944c-.012.075-.03.149-.055.22a.947.947 0 0 1-.048.22 18.25 18.25 0 0 1-9.874 12.22l-.201.085h-.037l-.196.086a.232.232 0 0 1-.079.036l-.128.061-.257.104c-.773.324-1.57.59-2.383.795l-.214.049a1.422 1.422 0 0 1-.232.055c-.604.143-1.216.25-1.832.323a1.48 1.48 0 0 1-.172 0h-.495c-.47.043-.94.068-1.423.068h-.813c-.22 0-.55 0-.824-.05-.275-.048-.41-.03-.611-.054h-.27l-.274-.037a17.603 17.603 0 0 1-3.312-.813l-.214-.067-.195-.073-.293-.116a2.919 2.919 0 0 1-.293-.116 17.931 17.931 0 0 1-3.71-2.078l-.262-.189-.256-.202a18.194 18.194 0 0 1-6.422-9.775c0-.067-.036-.135-.049-.202a1.728 1.728 0 0 1-.042-.19 14.977 14.977 0 0 1-.318-1.734 14.095 14.095 0 0 1-.11-1.02v-1.388a18.219 18.219 0 0 1 17.914-18.157h.25a17.993 17.993 0 0 1 3.055.256c.153 0 .305.049.452.08.107.015.213.038.318.067.293.055.61.128.88.207.268.08.556.153.824.239a17.505 17.505 0 0 1 3.22 1.375c.607.327 1.193.692 1.754 1.093l.03.061h.05c.286.202.573.422.848.642l.416.348c.293.244.61.52.898.825a18.012 18.012 0 0 1 5.37 13.02c0 .11 0 .238-.012.372Z"/>
  <path fill="#000" d="M31.4 30.485a.19.19 0 0 1-.134-.055c-1.222-1.118-1.142-2.065-1.002-2.53a1.674 1.674 0 0 1 1.326-1.154 1.748 1.748 0 0 1 1.704.77.201.201 0 0 1-.33.226 1.32 1.32 0 0 0-1.307-.611 1.289 1.289 0 0 0-1.014.88c-.11.378-.147 1.154.892 2.12a.202.202 0 0 1 0 .28.195.195 0 0 1-.134.074Zm7.979-1.448a.207.207 0 0 1-.19-.135 1.833 1.833 0 0 0-1.613-1.399 1.662 1.662 0 0 0-1.557.69.196.196 0 0 1-.27.08.202.202 0 0 1-.073-.275 2.041 2.041 0 0 1 1.937-.892 2.298 2.298 0 0 1 1.955 1.662.202.202 0 0 1-.122.256l-.067.013Z"/>
  <path fill="#000" d="M39.777 23.812a5.902 5.902 0 0 0-1.094 3.947 2 2 0 0 0-1.9-.366c.03-.588.116-1.17.257-1.742a.213.213 0 0 1 .085-.122c.268-.174.555-.317.855-.427a.056.056 0 0 0 .02-.043.054.054 0 0 0-.02-.043 4.661 4.661 0 0 0-.494-.489.14.14 0 0 1-.037-.159c.241-.542.56-1.046.947-1.496a.867.867 0 0 1 1.13-.214.886.886 0 0 1 .25 1.154Zm-10.375 4.992a.202.202 0 0 1-.19-.135A1.87 1.87 0 0 0 27.6 27.27a1.65 1.65 0 0 0-1.558.69.197.197 0 0 1-.195.104.201.201 0 0 1-.153-.299 2.06 2.06 0 0 1 1.942-.892 2.297 2.297 0 0 1 1.955 1.662.202.202 0 0 1-.122.256l-.067.013Z"/>
  <path fill="#000" d="M29.793 23.587a5.933 5.933 0 0 0-1.087 3.947 2.004 2.004 0 0 0-1.9-.367 9.82 9.82 0 0 1 .25-1.741.214.214 0 0 1 .086-.122c.27-.174.56-.317.861-.428a.055.055 0 0 0 .015-.067 3.973 3.973 0 0 0-.504-.508.14.14 0 0 1-.036-.158 6.33 6.33 0 0 1 .94-1.497.826.826 0 0 1 1.357.94h.018Zm11.186-4.888c.611-.611 1.986.305 2.75 1.784 1.185 2.279.61 3.665.354 3.55-.36-.117.049-1.601-1.833-3.055-1.662-1.24-1.699-1.846-1.271-2.28Zm-10.66-1.057c1.631-.348 1.747 1.222.25 1.479a3.312 3.312 0 0 0-2.193 1.02c-.641.72-1.222 2.09-1.191.812.03-1.276 1.448-2.944 3.134-3.311Zm11.094 15.811h-.055a.202.202 0 0 1-.122-.256 1.777 1.777 0 0 0-.489-1.668c-.372-.416-1.222-1.063-2.871-.697a.194.194 0 0 1-.208-.08.196.196 0 0 1-.03-.072.202.202 0 0 1 .146-.239 3.268 3.268 0 0 1 3.257.819 2.158 2.158 0 0 1 .537 2.071.196.196 0 0 1-.165.122Z"/>
  <path fill="#000" d="M33.63 34.694a11.774 11.774 0 0 1-5.792-1.802.196.196 0 0 1-.073-.27.202.202 0 0 1 .269-.079c3.268 1.876 7.63 3.385 12.433-1.588a.202.202 0 0 1 .287.275c-2.505 2.596-4.93 3.464-7.124 3.464Z"/>
  <path fill="#6FCFEB" d="M48.58 33.9a2.242 2.242 0 1 1-1.08-3.153 2.364 2.364 0 0 1 1.08 3.152Z"/>
  <path fill="#000" d="M47.58 30.57a2.688 2.688 0 0 0-2.103 4.918c.28.116.578.176.88.177.504-.002.995-.16 1.405-.452a2.86 2.86 0 0 0 1.002-1.222 2.567 2.567 0 0 0-1.185-3.421Zm-1.944 4.551a2.175 2.175 0 0 1-.971-2.896 2.273 2.273 0 0 1 2.04-1.435c.248-.003.494.047.721.146a2.291 2.291 0 0 1-1.79 4.185Z"/>
  <path fill="#6FCFEB" d="M24.673 31.633c.208 1.179-.189 2.242-.898 2.364-.708.122-1.448-.727-1.662-1.906-.213-1.18.196-2.242.899-2.364.702-.123 1.448.727 1.661 1.906Z"/>
  <path fill="#000" d="M24.862 31.602c-.238-1.307-1.063-2.218-1.894-2.07a1.51 1.51 0 0 0-1.063 1.313 3.168 3.168 0 0 0-.049.427v.397c.007.154.025.308.055.459.03.192.079.38.147.562a2.12 2.12 0 0 0 1.314 1.49.885.885 0 0 0 .25.037.612.612 0 0 0 .354-.067c.563-.226.917-.96.917-1.87a3.594 3.594 0 0 0-.03-.678Zm-1.13 2.206c-.61.098-1.222-.697-1.43-1.748a3.33 3.33 0 0 1-.048-.415v-.397c.048-.703.348-1.222.775-1.326h.11a1.082 1.082 0 0 1 .8.507 3.147 3.147 0 0 1 .46 2.634 1.437 1.437 0 0 1-.313.555.751.751 0 0 1-.33.19h-.024Z"/>
  <path fill="#6FCFEB" d="M50.688 15.302a18.262 18.262 0 0 0-10.619-3.378h-.17c-1.583-1.552-1.907-5.035-.16-6.556a3.055 3.055 0 0 1 1.644-.684c3.763-.434 5.498 2.651 6.33 5.743a11.217 11.217 0 0 0 2.975 4.875Z"/>
  <path fill="#000" d="m49.467 14.227.067.091a1.28 1.28 0 0 0-.067-.091Zm-.226-.306a12.74 12.74 0 0 1-.47-.702c.144.242.301.476.47.702Zm-1.332-2.413.036.11.11.244a2.925 2.925 0 0 1-.103-.244.829.829 0 0 1-.043-.11Zm2.89 3.635-.098-.097-.116-.116a11.85 11.85 0 0 1-1.882-2.64 6.029 6.029 0 0 1-.238-.489c-.074-.17-.226-.519-.324-.794a7.846 7.846 0 0 1-.208-.66 16.28 16.28 0 0 0-.214-.715 11.724 11.724 0 0 0-.287-.8c-.104-.257-.128-.336-.201-.495a7.283 7.283 0 0 0-2.053-2.865 3.927 3.927 0 0 0-.654-.446 1.938 1.938 0 0 0-.25-.129l-.208-.097-.153-.061-.287-.104a5.022 5.022 0 0 0-.458-.116 1.137 1.137 0 0 0-.208-.037l-.324-.043h-.055a5.694 5.694 0 0 0-1.222 0l-.287.043a3.122 3.122 0 0 0-1.448.678l-.037.03a4.02 4.02 0 0 0-1.222 2.97 5.806 5.806 0 0 0 .453 2.444c.163.395.38.765.647 1.1l.165.195.128.135.061.06h.245a17.994 17.994 0 0 1 3.055.257c.153 0 .305.05.452.08.107.016.213.038.318.067.293.055.61.128.88.208.268.079.555.152.824.238a17.505 17.505 0 0 1 3.22 1.375c.604.333 1.189.698 1.754 1.093l.128-.159.122-.152-.018.042Zm-11.535-4.49a4.808 4.808 0 0 1-.25-.666 5.454 5.454 0 0 1-.251-1.784 3.664 3.664 0 0 1 1.124-2.7 2.799 2.799 0 0 1 1.533-.612c2.945-.342 5.004 1.54 6.11 5.597.055.207.122.41.19.61.067.202.11.306.17.453l.037.11.11.244c.02.05.042.1.067.147.061.134.123.263.19.39l.03.062c.061.122.122.238.19.354.067.116.152.27.232.397.145.242.301.477.47.703l.226.306.068.091a17.696 17.696 0 0 0-1.65-.867l-.385-.178-.36-.152a17.35 17.35 0 0 0-2.12-.727 15.574 15.574 0 0 0-.611-.165 16.032 16.032 0 0 0-1.223-.245l-.409-.067-.421-.055h-.226l-.44-.037c-.14 0-.288 0-.44-.036h-1.241a3.978 3.978 0 0 1-.72-1.173Z"/>
  <path fill="#6FCFEB" d="m52.008 16.334-.41-.342c-.298-.238-.61-.464-.91-.684a11.218 11.218 0 0 1-2.944-4.888c-.85-3.092-2.566-6.177-6.33-5.743a3.055 3.055 0 0 0-1.644.684 4.35 4.35 0 0 1 2.634-1.142c2.657-.171 4.466 1.747 5.498 4.124.284.647.513 1.318.685 2.004.61 2.29 2.285 4.619 3.055 5.572l.366.415Z"/>
  <path fill="#000" d="m52.124 16.17-.25-.306-.074-.086a1.027 1.027 0 0 1-.067-.085l-.14-.178-.178-.226c-.116-.159-.244-.33-.373-.513a22.43 22.43 0 0 1-.995-1.558v-.043a19.923 19.923 0 0 1-.385-.72l-.11-.22a8.103 8.103 0 0 1-.153-.33c-.049-.11-.104-.239-.153-.355a6.027 6.027 0 0 1-.17-.452c-.05-.153-.099-.269-.141-.403-.043-.135-.08-.275-.116-.41-.037-.134-.092-.36-.147-.531-.055-.171-.11-.348-.165-.513-.055-.165-.116-.33-.177-.489v-.037l-.16-.385-.036-.079-.055-.116c-1.27-2.817-3.28-4.277-5.657-4.124A4.52 4.52 0 0 0 39.69 5.19l.134.147.037.042.097.104a2.798 2.798 0 0 1 1.534-.61c2.945-.343 5.004 1.539 6.11 5.596.055.208.122.41.19.61.066.202.11.306.17.453a.82.82 0 0 0 .043.11c0 .085.067.165.104.244.02.05.042.1.067.147.061.134.122.263.19.39l.03.062c.061.122.122.238.19.354.067.116.152.27.232.397.158.257.317.49.47.703l.226.306c.03.036.055.073.086.104.134.177.262.335.385.47.192.214.396.418.61.61l.031.062h.049c.287.202.574.421.85.642l.39.317.281-.28h-.073Zm-1.326-1.027-.098-.098-.116-.116a11.845 11.845 0 0 1-1.662-2.236 8.207 8.207 0 0 1-.213-.397c-.068-.135-.165-.318-.239-.49a9.033 9.033 0 0 1-.317-.793 7.859 7.859 0 0 1-.208-.66 18.53 18.53 0 0 0-.214-.715 11.775 11.775 0 0 0-.287-.8c-.104-.257-.128-.337-.202-.495a7.284 7.284 0 0 0-2.053-2.866c-.085-.073-.177-.14-.268-.208a3.94 3.94 0 0 0-.385-.238 1.938 1.938 0 0 0-.25-.128l-.209-.098-.152-.061-.287-.104a5.025 5.025 0 0 0-.459-.116 1.137 1.137 0 0 0-.207-.037l-.324-.042h-.067a2.493 2.493 0 0 0-.373 0h.195c2.848-.184 4.442 2.138 5.2 3.727l.122.274c.276.64.5 1.3.672 1.974.037.14.073.281.122.421.05.141.086.282.14.422.056.14.105.275.16.415.054.141.103.251.158.373v.037c.062.14.123.275.19.41l.201.396a.253.253 0 0 0 0 .055 17.583 17.583 0 0 0 .831 1.418c.14.22.281.427.422.61l.165.233h-.037l.05-.067ZM39.887 5.502l-.293-.275.055-.05.238.325Z"/>
  <path fill="#fff" d="M51.642 15.894c-.752-.954-2.444-3.281-3.055-5.572a12.629 12.629 0 0 0-.685-2.004c.75-.03 1.493.14 2.157.488.183.107.356.227.52.36.224.194.429.409.61.642.298.393.54.825.721 1.283a5.664 5.664 0 0 1-.268 4.803Z"/>
  <path fill="#000" d="m49.527 12.222.11.22a3.576 3.576 0 0 1-.104-.22h-.006Zm2.926-.122a5.233 5.233 0 0 0-.22-.8 5.046 5.046 0 0 0-.103-.275c-.037-.092-.086-.184-.123-.275a5.068 5.068 0 0 0-.44-.782.572.572 0 0 0-.073-.11l-.11-.153a4.342 4.342 0 0 0-.61-.648h-.031a5.469 5.469 0 0 0-.36-.262 1.59 1.59 0 0 0-.172-.104 1.015 1.015 0 0 0-.165-.08 4.277 4.277 0 0 0-1.961-.433h-.428l.122.274c.276.64.501 1.3.672 1.974.037.14.074.281.123.421.049.141.085.282.14.422.055.14.104.275.16.415.054.141.103.251.158.373v.037c.061.14.122.275.19.41l.2.396a.253.253 0 0 0 0 .055 17.552 17.552 0 0 0 .832 1.418c.14.22.28.427.421.61l.165.233c.139.204.273.387.404.55l.146.19.055.073.202.256.061-.14.03-.061.037-.086v-.043l.037-.073c.03-.061.055-.122.08-.183.024-.062.079-.171.11-.263.14-.334.253-.68.335-1.033.055-.227.093-.458.116-.69a4.57 4.57 0 0 0 .037-.611c.02-.334.008-.67-.037-1.002Zm-.324 1.375a3.764 3.764 0 0 1-.042.379 2.95 2.95 0 0 1-.055.305v.085c0 .086-.043.165-.061.245l-.055.183a6.013 6.013 0 0 1-.184.532c-.067.165-.079.195-.122.287l-.177-.226c-.116-.16-.244-.33-.373-.513-.324-.465-.666-.99-.996-1.558v-.043a19.923 19.923 0 0 1-.385-.721c-.036-.073-.073-.147-.103-.22a8.103 8.103 0 0 1-.153-.33c-.049-.11-.104-.232-.153-.354-.049-.123-.122-.3-.17-.452-.05-.153-.099-.27-.141-.404-.043-.134-.08-.275-.117-.409-.036-.134-.091-.36-.146-.532-.055-.17-.11-.348-.165-.513-.055-.165-.116-.33-.177-.489v-.036l-.074-.184a3.85 3.85 0 0 1 1.754.465c.091.049.179.104.263.165l.244.183c.21.182.399.387.562.611.286.374.52.785.697 1.222.259.617.392 1.28.39 1.949a3.33 3.33 0 0 1-.06.373Z"/>
  <path fill="#6FCFEB" d="M52.93 17.183c-.3-.293-.61-.574-.91-.843l-.367-.44a5.664 5.664 0 0 0 .306-4.796 5.395 5.395 0 0 0-.721-1.283 4.424 4.424 0 0 0-.611-.641c.248.174.487.362.715.562 2.51 2.236 2.37 5.18 1.588 7.441Z"/>
  <path fill="#000" d="M52.515 13.69c0-.19.03-.386.03-.612a4.45 4.45 0 0 1-.03.611ZM51.6 9.723l-.147-.134a6.413 6.413 0 0 0-.324-.275l-.36-.27h-.03l-.123.16-.116.159c.21.181.398.386.562.61.287.374.52.785.697 1.223.259.617.392 1.28.39 1.949a3.325 3.325 0 0 1-.042.733 2.924 2.924 0 0 1-.055.305v.086c0 .08-.037.165-.061.244l-.055.183a6.022 6.022 0 0 1-.184.532c-.067.165-.079.195-.122.287a1.45 1.45 0 0 1-.08.171c.004.01.004.02 0 .03 0 .037-.03.068-.042.098v.117l.061.074c.08.098.14.183.202.25.06.068.128.16.17.202.294.244.612.52.899.825l.226.22.073-.202.031-.092.037-.116a8.954 8.954 0 0 0 .44-2.028c.024-.252.037-.505.036-.758A6.11 6.11 0 0 0 51.6 9.724Zm1.607 5.144a8.5 8.5 0 0 1-.373 1.95l-.238-.227-.434-.39-.25-.306c.03-.061.054-.122.079-.183.024-.062.08-.171.11-.263.14-.334.253-.68.336-1.033a5.09 5.09 0 0 0 .116-.69c0-.19.03-.385.03-.611a5.377 5.377 0 0 0-.317-1.833c-.03-.092-.068-.183-.104-.275-.037-.092-.086-.183-.122-.275a5.719 5.719 0 0 1 1.222 3.342c-.003.266-.02.531-.055.794Z"/>
  <path fill="#6FCFEB" d="M51.562 9.173a.79.79 0 0 1-.238.562 8.559 8.559 0 0 0-.715-.562 3.97 3.97 0 0 0-.52-.36.788.788 0 0 1 1.486.366l-.013-.006Z"/>
  <path fill="#000" d="M50.768 8.184a.978.978 0 0 0-.764.372.773.773 0 0 0-.11.165l-.086.171.165.092c.091.05.18.104.263.165l.244.183c.241.167.472.349.69.544l.141.116.123-.116.11-.128a1.002 1.002 0 0 0-.831-1.54l.055-.024Zm0 .403a.611.611 0 0 1 .543.886l-.177-.14-.36-.27h-.03a5.47 5.47 0 0 0-.361-.262.61.61 0 0 1 .385-.214Z"/>
  <path fill="#fff" d="M67.716 39.404h-.195c.051.425-.041.856-.263 1.222a2.357 2.357 0 0 1-.715.764 3.054 3.054 0 0 1-1.881.507c-1.546-.067-2.285-.72-2.5-1.466l-.17.091c-3.855 2.023-5.12 5.242-3.495 7.136.83.966 2.071.813 2.97.514-1.07.446-1.021 3.543 1.692 4.43.138.045.279.084.421.115l.239.05a3.734 3.734 0 0 0 3.323-.99l.14-.141.147.134c1.161.941 3.88.666 4.674-1.906l.055-.19.257-.268a4.986 4.986 0 0 0 1.35-3.41c.012-3.231-2.957-6.402-6.049-6.592Zm-6.158 8.713c.177-.061.336-.129.477-.19.001-1.134.063-2.268.183-3.397-.066 1.132.04 2.267.311 3.367.104.458.312.873.483 1.38-.165-.39-.66-1.368-1.454-1.16Z"/>
  <path fill="#000" d="m67.233 40.986.092-.122a.851.851 0 0 1-.092.122Zm6.305 2.762c-1.002-2.535-3.44-4.43-5.847-4.552h-.207a.189.189 0 0 0-.11.055.213.213 0 0 0-.05.16c.025.191.013.386-.036.573a1.992 1.992 0 0 1-.727 1.1 2.725 2.725 0 0 1-1.723.611h-.165c-1.27-.055-2.096-.525-2.316-1.32a.212.212 0 0 0-.11-.128.17.17 0 0 0-.122 0h-.049l-.134.074c-2.328 1.221-3.916 2.981-4.277 4.735a3.115 3.115 0 0 0 .666 2.73 2.524 2.524 0 0 0 2.493.752 2.444 2.444 0 0 0-.208 1.29 3.426 3.426 0 0 0 2.444 2.95c.156.055.315.1.477.135l.183.036c.274.053.552.08.83.08a3.825 3.825 0 0 0 2.75-1.112 2.944 2.944 0 0 0 2.554.44 3.488 3.488 0 0 0 2.487-2.573 5.334 5.334 0 0 0 1.197-6.036Zm-1.399 5.627a.787.787 0 0 1-.098.104.232.232 0 0 0-.073.11 3.098 3.098 0 0 1-2.212 2.346 2.596 2.596 0 0 1-2.193-.354l-.128-.123a.177.177 0 0 0-.098-.042h-.03a.195.195 0 0 0-.147.067 3.52 3.52 0 0 1-3.22 1.081c-.101-.012-.2-.03-.3-.055a3.189 3.189 0 0 1-.366-.104 3.054 3.054 0 0 1-2.23-2.633c-.061-.69.153-1.283.513-1.436h.073c.678-.177 1.118.795 1.222 1.094a.202.202 0 0 0 .257.116.195.195 0 0 0 .116-.25c-.067-.208-.147-.404-.22-.611a5.863 5.863 0 0 1-.281-.837 11.209 11.209 0 0 1-.305-3.36.196.196 0 0 0-.171-.22.208.208 0 0 0-.22.17 32.889 32.889 0 0 0-.196 3.355c-.112.05-.226.095-.342.134h-.092c-.837.281-1.992.428-2.75-.458a2.713 2.713 0 0 1-.58-2.39c.324-1.624 1.803-3.268 3.984-4.422a.933.933 0 0 0 .055.11.805.805 0 0 0 .092.158c.126.203.293.377.488.514l.116.079.074.049.177.098c.09.048.184.089.281.122h.037c.115.044.234.08.354.11h.03l.38.067h.079c.138 0 .285.012.44.037h.165c.328.019.657-.01.977-.086a2.72 2.72 0 0 0 .611-.232l.147-.086c.213-.13.408-.289.58-.47l.128-.153.092-.122c.26-.37.403-.812.41-1.265 2.236.147 4.496 1.925 5.437 4.277a4.93 4.93 0 0 1-.684 5.077 2.587 2.587 0 0 1-.238.287.658.658 0 0 1-.14.16v-.013Zm-9.922-1.4a.122.122 0 0 0 0-.066v-.44c.03.146.061.3.098.458l.036.135a1.205 1.205 0 0 0-.134-.074v-.012Z"/>
  <path fill="#fff" d="M68.04 46.919c.611 1.912.22 3.61-.745 4.686l.745-4.686Z"/>
  <path fill="#000" d="M67.295 51.807a.213.213 0 0 1-.134-.05.201.201 0 0 1 0-.28 4.576 4.576 0 0 0 .708-4.497.195.195 0 0 1 .129-.25.201.201 0 0 1 .25.128 4.968 4.968 0 0 1-.788 4.888.207.207 0 0 1-.165.06Z"/>
  <path fill="#fff" d="M71.748 45.037c.654 1.986.709 3.501.415 4.613l-.415-4.613Z"/>
  <path fill="#000" d="M72.163 49.858h-.049a.199.199 0 0 1-.122-.092.195.195 0 0 1-.018-.152 8.156 8.156 0 0 0-.416-4.497.19.19 0 0 1 .129-.25.196.196 0 0 1 .25.122 8.553 8.553 0 0 1 .422 4.729.195.195 0 0 1-.196.14Z"/>
  <path fill="#fff" d="M64.668 41.866c-1.546-.06-2.292-.715-2.5-1.466a1.877 1.877 0 0 1 1.473-2.346v.195a1.564 1.564 0 0 0 1.283 1.583 1.596 1.596 0 0 0 1.894-1.528v-.098a1.831 1.831 0 0 1 .709 1.222c.147 1.18-1.008 2.524-2.86 2.438Z"/>
  <path fill="#000" d="M67.716 39.405a2.27 2.27 0 0 0 0-.165 1.864 1.864 0 0 0-.391-.813 1.835 1.835 0 0 0-.288-.287l-.073-.061-.055-.043h-.067l-.19.05h-.03v.207a1.415 1.415 0 0 1-.526 1.063 1.386 1.386 0 0 1-2.254-1.1v-.415h-.196a.937.937 0 0 0-.189 0c-.465.101-.873.38-1.136.776a2.152 2.152 0 0 0-.355 1.63c.007.054.017.108.03.16v.043c.027.104.066.204.117.299.024.056.055.11.092.159.126.202.293.377.488.513l.116.08.074.048.177.098c.09.048.184.089.28.122h.038c.115.044.234.08.354.11h.03l.38.067h.079c.138 0 .285.013.44.037h.165a3.4 3.4 0 0 0 .971-.067c.212-.053.417-.13.611-.232l.147-.086c.213-.13.408-.289.58-.47l.128-.153a.855.855 0 0 0 .092-.116c.26-.37.403-.812.41-1.265a1.126 1.126 0 0 0-.05-.19Zm-1.155 1.692a2.725 2.725 0 0 1-1.723.611h-.165c-1.271-.055-2.096-.525-2.316-1.32a1.753 1.753 0 0 1 .27-1.46 1.5 1.5 0 0 1 .806-.61c0 .106.012.213.036.317.064.346.233.663.483.91.07.074.145.141.226.202.085.055.171.11.263.159a1.83 1.83 0 0 0 .788.177 1.78 1.78 0 0 0 1.112-.391c.078-.061.15-.131.214-.208a.414.414 0 0 0 .08-.11.76.76 0 0 0 .103-.14 1.14 1.14 0 0 0 .122-.245.212.212 0 0 0 .037-.085 1.14 1.14 0 0 0 .067-.22c.165.196.277.432.324.684a.721.721 0 0 1 0 .11 1.52 1.52 0 0 1-.037.574 1.991 1.991 0 0 1-.476.874c-.067.063-.139.12-.214.171Z"/>
  <path fill="#FFD600" d="M66.818 38.2v.099a1.593 1.593 0 0 1-1.894 1.527 1.564 1.564 0 0 1-1.283-1.582v-.19c0-1.564-.52-2.792-1.527-3.476-1.497-1.027-3.868-.807-6.507.556a1.583 1.583 0 0 1-2.029-.55 1.593 1.593 0 0 1 .611-2.267c3.733-1.924 7.228-2.065 9.776-.348 1.87 1.29 2.896 3.55 2.853 6.232Z"/>
  <path fill="#000" d="M66.304 34.584a6.555 6.555 0 0 0-2.285-2.773 7.606 7.606 0 0 0-5.4-1.161h-.208l-.196.03c-1.447.26-2.844.745-4.142 1.436a1.802 1.802 0 0 0-.697 2.566 1.796 1.796 0 0 0 2.322.611 12.18 12.18 0 0 1 2.035-.837l.22-.06.213-.056c1.552-.385 2.884-.263 3.831.385a3.697 3.697 0 0 1 1.436 3.146c.003.055.003.11 0 .165v.214a1.723 1.723 0 0 0 .513 1.277c.07.074.145.141.226.202.086.055.171.11.263.159a1.835 1.835 0 0 0 .788.177c.404 0 .797-.138 1.112-.391.079-.061.15-.131.214-.208a.61.61 0 0 0 .08-.098.843.843 0 0 0 .103-.152 1.14 1.14 0 0 0 .122-.245.214.214 0 0 0 .037-.085 1.14 1.14 0 0 0 .067-.22c.019-.095.031-.191.037-.287a.468.468 0 0 0 0-.092v-.165a8.43 8.43 0 0 0-.69-3.538Zm-1.344 5.078a1.375 1.375 0 0 1-1.124-1.381v-.245a1.573 1.573 0 0 0 0-.17 4.082 4.082 0 0 0-1.607-3.428 4.234 4.234 0 0 0-2.407-.672 7.093 7.093 0 0 0-1.552.183 1.37 1.37 0 0 0-.214.055l-.213.055a11.6 11.6 0 0 0-2.322.923 1.387 1.387 0 0 1-1.803-.501 1.346 1.346 0 0 1-.17-1.1 1.415 1.415 0 0 1 .714-.886 13.676 13.676 0 0 1 3.953-1.38.917.917 0 0 1 .196 0 1.05 1.05 0 0 1 .201-.031 7.222 7.222 0 0 1 5.188 1.081c1.832 1.222 2.834 3.366 2.822 5.963v.22a1.418 1.418 0 0 1-.525 1.063 1.368 1.368 0 0 1-1.137.226v.025Z"/>
  <path fill="#FFD600" d="M28.375 59.115a1.597 1.597 0 0 1-1.014-2.145 28.581 28.581 0 0 1 8.499-11.29 1.589 1.589 0 0 1 2.542 1.504 1.6 1.6 0 0 1-.587 1.007 25.747 25.747 0 0 0-7.533 10.02 1.589 1.589 0 0 1-1.907.904Z"/>
  <path fill="#000" d="M28.9 53.854a.872.872 0 0 1-.262.049l-.086.158-.14.263v.055h.195c-.036.08-.079.147-.11.22h.233l.11-.195.11-.202.305-.538a.842.842 0 0 1-.354.19Zm9.428-7.943a1.834 1.834 0 0 0-1.943-.734c-.236.06-.456.169-.648.319a25.46 25.46 0 0 0-2.04 1.777l-.14.135-.129.128c-.668.663-1.3 1.36-1.894 2.09l-.128.159-.129.158c-.5.611-.953 1.259-1.362 1.833l-.11.165-.11.171c-.067.104-.134.202-.195.306l-.178.28-.28.471a.153.153 0 0 1-.05.074l-.195.342-.128.22-.086.159-.14.262c-.043.068-.08.14-.117.208-.299.562-.55 1.088-.763 1.558-.11.232-.202.452-.294.654 0 .055-.042.104-.06.152a1.834 1.834 0 0 0 0 1.46.479.479 0 0 0 .067.123.775.775 0 0 0 .122.19l.043.042c.05.066.105.127.164.183l.11.086a.77.77 0 0 0 .172.116c.061.043.127.08.195.11l.14.049h.117a.272.272 0 0 0 .097 0c.05.016.101.026.153.03h.202c.044.006.09.006.134 0a1.42 1.42 0 0 0 .532-.122 1.675 1.675 0 0 0 .586-.39c.105-.106.197-.223.275-.35a1.84 1.84 0 0 0 .11-.219l.043-.098c.159-.379.354-.806.61-1.277l.105-.207c0-.068.067-.141.104-.208a26.063 26.063 0 0 1 2.938-4.497c.042-.061.089-.118.14-.171.044-.063.094-.122.148-.177a23.046 23.046 0 0 1 2.633-2.676 4.6 4.6 0 0 1 .28-.226.376.376 0 0 1 .099-.08c.062-.058.127-.113.195-.165l.177-.14h.03a1.79 1.79 0 0 0 .373-2.248l.025-.025Zm-.635 2.114-.27.22c-.072.053-.14.11-.207.171-.066.05-.13.103-.19.159l-.25.214c-.08.067-.159.134-.232.207-.88.78-1.697 1.628-2.444 2.536-.052.052-.1.11-.14.171-.05.05-.096.106-.135.165a26.272 26.272 0 0 0-2.786 4.277c-.037.06-.067.128-.098.19l-.097.189c-.306.61-.55 1.148-.746 1.606a1.392 1.392 0 0 1-1.045.831c-.075.007-.15.007-.226 0h-.415a1.366 1.366 0 0 1-.587-.354h-.036a1.394 1.394 0 0 1-.177-.244 1.283 1.283 0 0 1-.14-.324 1.543 1.543 0 0 1-.056-.41 1.53 1.53 0 0 1 .11-.513c.037-.08.067-.159.104-.244a30.86 30.86 0 0 1 1.094-2.255l.11-.195.11-.202.305-.537.037-.055.067-.117c.183-.311.385-.61.61-.965l.117-.17c.034-.06.07-.117.11-.172.39-.61.83-1.222 1.313-1.833l.129-.165.122-.153a27.943 27.943 0 0 1 1.888-2.09l.14-.146.135-.128.17-.159a30.821 30.821 0 0 1 1.87-1.607c.241-.189.538-.292.844-.293h.22a1.416 1.416 0 0 1 .94.611 1.393 1.393 0 0 1-.268 1.784Z"/>
  <path fill="#fff" d="M23.591 65.744c-.09.03-.185.048-.28.055-2.078.25-5.139-3.874-7.009-9.525-1.551-4.693-1.832-9.03-.818-10.961a.37.37 0 0 1 .043-.086c.199-.413.549-.734.977-.898 2.071-.684 5.334 3.556 7.289 9.47 1.955 5.915 1.864 11.23-.202 11.945Z"/>
  <path fill="#000" d="M23.977 53.707a25.344 25.344 0 0 0-3.63-7.264l-.225-.287a14.225 14.225 0 0 0-.452-.52c-.972-1.057-1.9-1.607-2.707-1.607-.177 0-.352.03-.52.086l-.128.049a1.593 1.593 0 0 0-.366.214c-.25.184-.459.42-.611.69a.153.153 0 0 0 0 .043l-.043.08c-1.045 2.027-.715 6.5.813 11.119.03.097.06.195.097.287.214.61.44 1.222.679 1.833 1.832 4.484 4.337 7.564 6.232 7.564a.802.802 0 0 0 .17 0h.031c.11-.009.22-.031.324-.068.187-.061.36-.157.513-.28.1-.078.193-.166.275-.263l.086-.11a.654.654 0 0 0 .091-.135v-.043c.03-.055.067-.103.098-.165a1.49 1.49 0 0 0 .085-.17l.055-.117c.09-.198.165-.402.227-.61a9.225 9.225 0 0 0 .28-2.273 25.195 25.195 0 0 0-1.374-8.053Zm-.452 11.816a.834.834 0 0 1-.232.05c-1.595.189-3.831-2.445-5.585-6.3a25.43 25.43 0 0 1-.745-1.79 24.987 24.987 0 0 1-.464-1.301c-1.497-4.522-1.833-8.866-.831-10.82 0 0 0-.044.036-.068a1.6 1.6 0 0 1 .868-.8c.126-.042.258-.063.391-.062.104-.009.208-.009.312 0a.195.195 0 0 1 .055 0c.108.023.215.055.317.098.268.112.52.258.752.434.138.098.27.205.397.318.134.114.269.242.403.385.073.073.14.14.208.22.208.226.421.47.61.745a27.982 27.982 0 0 1 4.968 15.018 9.082 9.082 0 0 1-.25 2.083 3.43 3.43 0 0 1-.22.642 1.742 1.742 0 0 1-.99 1.148Z"/>
  <path fill="#fff" d="M25.865 64.723a1.58 1.58 0 0 1-.88.697 11.2 11.2 0 0 1-1.674.354 1.12 1.12 0 0 0 .281-.055c2.065-.684 2.157-6.03.202-11.944-1.955-5.915-5.218-10.155-7.29-9.47a1.796 1.796 0 0 0-.977.898c1.051-2.23 2.224-3.055 3.342-2.994a1.106 1.106 0 0 1 1.192.977c.048.403-.047.81-.27 1.15 1.834 1.288 3.948 4.697 5.371 8.986 1.626 4.919 1.882 9.63.703 11.401Z"/>
  <path fill="#000" d="M26.64 58.9c0-.134-.03-.262-.049-.397a30.294 30.294 0 0 0-1.221-5.248c-1.345-4.07-3.41-7.558-5.291-8.982.069-.138.122-.283.159-.433 0-.08.03-.153.042-.232a1.28 1.28 0 0 0 0-.306.61.61 0 0 0 0-.146v-.104a1.32 1.32 0 0 0-1.356-1.045c-.917-.055-2.267.44-3.513 3.055a.153.153 0 0 0 0 .043.201.201 0 0 0 .085.262.195.195 0 0 0 .263-.08 1.6 1.6 0 0 1 .868-.8c.126-.041.258-.062.39-.06.104-.01.209-.01.312 0a.195.195 0 0 1 .055 0c.11.022.215.054.318.097.268.112.52.258.751.434.139.098.271.204.398.318.134.114.268.242.403.384.067.068.14.141.207.22.208.226.422.47.612.746a27.982 27.982 0 0 1 4.967 15.017 9.082 9.082 0 0 1-.25 2.084c-.053.22-.126.435-.22.641a1.74 1.74 0 0 1-1.003 1.1.832.832 0 0 1-.232.049.213.213 0 0 0-.165.128.209.209 0 0 0 0 .086.227.227 0 0 0 .055.122.172.172 0 0 0 .128.061h.037c.579-.079 1.15-.201 1.71-.367.31-.088.587-.267.795-.513.055-.06.104-.128.159-.201l.037-.055c.048-.072.091-.148.128-.226l.049-.08c.036-.073.067-.146.098-.22a.22.22 0 0 1 0-.055c0-.055.042-.116.067-.177.024-.061.06-.177.085-.275.083-.284.146-.574.19-.867l-.013-.19c0-.116.031-.232.037-.354.006-.122.03-.355.037-.538v-.574a18.157 18.157 0 0 0-.129-2.322Zm-.94 5.719c-.07.106-.151.202-.245.287a1.18 1.18 0 0 1-.525.324l-.49.128.086-.11a.651.651 0 0 0 .092-.134v-.043c.03-.055.067-.104.098-.165.032-.055.06-.112.085-.171l.055-.116c.09-.198.165-.403.226-.611a9.225 9.225 0 0 0 .281-2.273 28.306 28.306 0 0 0-5.046-15.274l-.226-.287c-.153-.184-.306-.36-.452-.52-.972-1.057-1.9-1.607-2.707-1.607-.176 0-.352.03-.52.086l-.127.049c.775-1.222 1.65-1.833 2.541-1.76.611.03.947.312 1.008.807.035.353-.05.708-.238 1.008a.195.195 0 0 0 .049.275c1.833 1.301 3.934 4.79 5.29 8.883a29.606 29.606 0 0 1 1.26 5.377c.311 2.444.201 4.466-.373 5.602a2.663 2.663 0 0 1-.122.245Z"/>
  <path fill="#A4A2A0" d="M31.393 57.971c-.256.507-1.032.037-1.423 1.18-.514 1.478-2.029 4.887-4.106 5.571 1.18-1.771.923-6.482-.703-11.406-1.423-4.277-3.531-7.699-5.37-8.988.222-.339.317-.746.269-1.148a17.749 17.749 0 0 1 7.857 9.47c.205.565.375 1.142.507 1.729 0 0 1.008-.245 1.38.52.164.453.164.95 0 1.404l.612-.525s1.484 1.18.977 2.193Z"/>
  <path fill="#000" d="M28.425 54.38v-.056l.14-.262a1.419 1.419 0 0 0-.043-.153 1.22 1.22 0 0 1-.207 0c0-.067-.037-.14-.061-.214-.025-.073-.037-.147-.061-.22l-.233-.073.074.232.06.226c.058.196.107.4.147.61a.22.22 0 0 0 .068.105.21.21 0 0 0 .152 0h.068c0-.074.073-.14.11-.22l-.214.024Zm-.47-2.072a1 1 0 0 0-.056-.116h-.152c0-.067-.05-.134-.074-.202l-.091-.213a12.292 12.292 0 0 0-.318-.721l-.11-.226a.134.134 0 0 1 .03-.05v-.036l-.165-.275-.11-.177h-.213l-.05-.08.05.098.11.19c.055.11.11.22.159.336.048.116.079.159.116.238.036.08.091.183.134.281.043.098.11.25.159.379.04.075.074.152.104.232.031.07.058.14.08.214.048.11.09.226.128.336.036.11.055.134.079.201v.055a1.9 1.9 0 0 1 .122-.25.42.42 0 0 0-.03-.08l.067-.079.03-.055Zm3.372 4.191c-.043-.06-.086-.128-.129-.183a1.936 1.936 0 0 0-.14-.165 6.584 6.584 0 0 0-.336-.354l-.159-.135-.043-.036a.195.195 0 0 0-.25 0l-.165.14c.052-.323.01-.654-.122-.953a1.222 1.222 0 0 0-1.02-.666h-.386v-.091a1.419 1.419 0 0 0-.042-.153 1.308 1.308 0 0 0-.055-.208c0-.067-.037-.134-.055-.208a16.063 16.063 0 0 0-.239-.751v-.05l-.036-.11v-.103c0-.024-.05-.14-.08-.208a.214.214 0 0 0-.036-.085c0-.061-.043-.122-.067-.184-.025-.06-.05-.134-.08-.201-.128-.324-.275-.611-.428-.96-.06-.14-.134-.274-.201-.415l-.092-.177V50.2l-.073-.134a.456.456 0 0 0-.043-.074c-.171-.323-.354-.61-.55-.947a8.884 8.884 0 0 0-.28-.44l-.135-.195a22.83 22.83 0 0 0-.709-.971l-.134-.178-.16-.201-.164-.19a10.648 10.648 0 0 0-.752-.824.232.232 0 0 0-.055-.055 15.977 15.977 0 0 0-3.745-2.909l-.08-.042a.244.244 0 0 0-.134 0 .183.183 0 0 0-.116.06.202.202 0 0 0-.043.16 1.6 1.6 0 0 1-.238 1.008.198.198 0 0 0-.033.148.194.194 0 0 0 .082.127c1.833 1.301 3.935 4.79 5.291 8.883a29.62 29.62 0 0 1 1.259 5.377c.311 2.444.201 4.466-.373 5.602-.046.09-.097.178-.153.263a.183.183 0 0 0 0 .226l.043.043a.19.19 0 0 0 .116.037h.128c.173-.062.34-.138.501-.227 1.73-.983 2.951-3.665 3.434-4.887.11-.288.183-.49.214-.575a.977.977 0 0 1 .794-.751.814.814 0 0 0 .611-.403 1.527 1.527 0 0 0-.342-1.632Zm-.116 1.381c-.055.116-.16.153-.36.202a3.45 3.45 0 0 0-.325.11 1.13 1.13 0 0 0-.305.177c-.113.106-.208.23-.281.367a1.981 1.981 0 0 0-.153.342v.036l-.098.263c-.042.11-.091.244-.152.391-.501 1.222-1.65 3.666-3.214 4.54a.22.22 0 0 1 0-.056c0-.054.043-.115.067-.177a2.42 2.42 0 0 0 .086-.275 6.54 6.54 0 0 0 .19-.867l.03-.245c0-.116.03-.232.036-.354.006-.122.03-.354.037-.538v-.574a18.172 18.172 0 0 0-.153-2.291c0-.134-.03-.263-.049-.397a30.315 30.315 0 0 0-1.221-5.248c-1.345-4.07-3.41-7.558-5.291-8.982.069-.138.122-.283.158-.433 0-.08.03-.153.043-.233a.421.421 0 0 0 0-.085 15.84 15.84 0 0 1 3.415 2.688c.16.165.312.324.459.495l.177.202.232.275c.147.165.281.336.41.507.128.17.25.324.366.489.116.164.19.256.275.39.085.135.22.318.324.483l.128.202a2.4 2.4 0 0 1 .134.226c.043.08.202.336.3.507a.849.849 0 0 1 .06.116.993.993 0 0 1 .062.11l.049.098.11.19c.055.11.11.22.159.335.049.116.08.159.116.239.036.079.091.183.134.28.043.098.11.251.159.38.04.074.074.152.104.231.032.07.058.141.08.214.048.11.09.226.128.336.036.11.055.135.079.202v.055l.11.324.092.287.073.232.061.226c.057.196.106.4.147.611a.22.22 0 0 0 .067.104c.05.019.104.019.153 0h.342a.891.891 0 0 1 .886.44c.115.316.127.66.036.984-.015.09-.04.177-.073.262a.19.19 0 0 0 .049.202.042.042 0 0 0 0 .03.202.202 0 0 0 .116.037.208.208 0 0 0 .128-.049l.49-.415c.167.15.322.313.463.488l.135.184c.043.067.085.134.122.202a1.033 1.033 0 0 1 .098.928Z"/>
  <path fill="#000" d="M29.75 59.92a.194.194 0 0 1-.14-.055 3.728 3.728 0 0 0-3.166-.947.195.195 0 0 1-.197-.095.196.196 0 0 1 .012-.22.199.199 0 0 1 .13-.076 4.1 4.1 0 0 1 3.501 1.057.202.202 0 0 1 0 .281.214.214 0 0 1-.14.055Z"/>
  <path fill="#000" d="M27.648 58.918a.202.202 0 0 1-.195-.195 19.05 19.05 0 0 0-1.528-6.544c-.782-1.735-1.448-2.505-1.876-2.847a1.492 1.492 0 0 1-.446-1.643c.171-.49.196-1.018.074-1.522a.201.201 0 0 1 .39-.091 3.128 3.128 0 0 1-.09 1.74 1.1 1.1 0 0 0 .323 1.223 8.176 8.176 0 0 1 1.986 3 19.43 19.43 0 0 1 1.564 6.72.208.208 0 0 1-.196.208l-.006-.049Z"/>
  <path fill="#A4A2A0" d="m31.04 55.357-.611.452-.611.525a2.078 2.078 0 0 0 0-1.405c-.373-.764-1.381-.52-1.381-.52a14.224 14.224 0 0 0-.507-1.728c.751-.843 1.118-1.436 2.364-.16a4.354 4.354 0 0 1 1.112 1.877.886.886 0 0 1-.366.959Z"/>
  <path fill="#000" d="M31.583 54.318a4.632 4.632 0 0 0-1.167-1.961l-.226-.226-.146-.128-.165-.129a1.333 1.333 0 0 0-.795-.317.693.693 0 0 0-.195.03.61.61 0 0 0-.165.061 2.027 2.027 0 0 0-.611.489 1.29 1.29 0 0 0-.086.104l-.036.037-.05.055-.066.079-.068.073a.201.201 0 0 0-.042.202v.055l.11.324.091.287.074.232.06.226c.058.196.107.4.147.611a.22.22 0 0 0 .067.104c.05.019.104.019.153 0h.294a.892.892 0 0 1 .885.44c.115.316.128.66.037.983-.015.09-.04.178-.073.263a.19.19 0 0 0 .049.202.044.044 0 0 0 0 .03.202.202 0 0 0 .116.037.208.208 0 0 0 .128-.049l.489-.415.116-.098.043-.03.165-.117.433-.305a1.106 1.106 0 0 0 .434-1.149Zm-.666.85-.654.458-.165.14c.053-.323.01-.654-.122-.953a1.221 1.221 0 0 0-1.02-.666h-.385v-.091a1.419 1.419 0 0 0-.043-.153 1.31 1.31 0 0 0-.055-.208 2.058 2.058 0 0 0-.06-.208c-.068-.25-.147-.507-.233-.751v-.05l.061-.066a2.52 2.52 0 0 1 .678-.611.414.414 0 0 1 .19-.05c.08.004.158.02.232.05.122.054.237.124.342.208l.165.128.14.134.166.165a4.177 4.177 0 0 1 1.069 1.784.696.696 0 0 1-.3.74h-.006Z"/>
  <path fill="#fff" d="M28.693 55.412a.292.292 0 0 1 .422-.116c.525.366.415 1.258.073 1.79-.226.391-.653.776-.574 1.222a1.6 1.6 0 0 0 .049.275.648.648 0 0 1-.416.782.611.611 0 0 1-.843-.568 2.37 2.37 0 0 1 .281-1.314 3.32 3.32 0 0 1 .874-.898.672.672 0 0 0 .159-.886.294.294 0 0 1 0-.305l-.025.018Z"/>
  <path fill="#000" d="M29.665 55.968a1.088 1.088 0 0 0-.44-.831.451.451 0 0 0-.385-.067.483.483 0 0 0-.324.25l.177.092-.165-.055a.489.489 0 0 0 .037.513.476.476 0 0 1-.123.61l-.146.117c-.223.16-.428.345-.611.55-.07.085-.132.177-.183.275a.767.767 0 0 0-.08.159.41.41 0 0 0-.06.14c-.038.078-.067.16-.086.245a2.177 2.177 0 0 0-.074.415.404.404 0 0 0 0 .122 2.259 2.259 0 0 0 0 .349.794.794 0 0 0 .354.66.862.862 0 0 0 .465.152c.065.006.13.006.195 0h.123a.614.614 0 0 0 .28-.19l.05-.054.055-.068.036-.073a.611.611 0 0 0 .067-.19.397.397 0 0 0 0-.121.87.87 0 0 0 0-.306 1.728 1.728 0 0 1-.042-.256c-.05-.263.134-.514.33-.782.079-.117.159-.227.213-.324a2.1 2.1 0 0 0 .288-.758 1.71 1.71 0 0 0 .049-.574Zm-.85 1.313a1.465 1.465 0 0 0-.403 1.063c.007.104.025.206.055.306a.103.103 0 0 1 0 .043.435.435 0 0 1 0 .152v.08a.391.391 0 0 1-.067.122.25.25 0 0 1-.116.08h-.116a.336.336 0 0 1-.202-.031.233.233 0 0 1-.104-.049.494.494 0 0 1-.085-.073.336.336 0 0 1-.086-.16.47.47 0 0 1 0-.097 1.303 1.303 0 0 1 0-.22.199.199 0 0 1 0-.085 1.491 1.491 0 0 1 .147-.745.768.768 0 0 1 .08-.16 2.52 2.52 0 0 1 .677-.715l.153-.128a.873.873 0 0 0 .195-1.142.117.117 0 0 1 0-.104.099.099 0 0 1 .062-.049.067.067 0 0 1 .042 0c.428.293.3 1.081 0 1.521-.091.196-.158.3-.232.397v-.006Z"/>
  <path fill="#fff" d="M28.23 60.08a5.413 5.413 0 0 1-.33-.843.254.254 0 0 1 .106-.286.255.255 0 0 1 .1-.038.25.25 0 0 1 .3.183c.074.26.172.51.294.751a.269.269 0 0 1-.116.355.261.261 0 0 1-.355-.122Z"/>
  <path fill="#000" d="M28.884 59.768a6.363 6.363 0 0 1-.172-.391.26.26 0 0 0 0-.061.657.657 0 0 0-.042-.116v-.037a.611.611 0 0 1 0-.086v-.03a.165.165 0 0 0-.043-.086.201.201 0 0 0-.08-.103.452.452 0 0 0-.415-.135h-.037a.397.397 0 0 0-.183.104.448.448 0 0 0-.085.098.116.116 0 0 0-.031.06.17.17 0 0 0 0 .074.47.47 0 0 0 0 .226v.037c0 .036.055.17.086.256.067.184.146.373.244.611a.467.467 0 0 0 .275.239.398.398 0 0 0 .146 0 .446.446 0 0 0 .214-.055.465.465 0 0 0 .123-.605Zm-.477.226a4.226 4.226 0 0 1-.238-.58 1.509 1.509 0 0 1-.05-.178v-.085a.08.08 0 0 1 .05-.03.06.06 0 0 1 .06.042c.009.035.02.07.031.104a.548.548 0 0 0 .03.091c0 .062.044.123.068.184.024.06.104.25.165.378a.068.068 0 0 1 .004.053.068.068 0 0 1-.035.04h-.048a.067.067 0 0 1-.037-.02Z"/>
  <path fill="#6FCFEB" d="M29.274 53.114a.674.674 0 0 1-.752.611 2.487 2.487 0 0 1-.916-.256c.018-.39.15-.766.379-1.082-.245-.55-.52-1.093-.819-1.619-.11-.19-.22-.379-.336-.562a1.96 1.96 0 0 1 .935.226c.513.275 1.729 1.583 1.509 2.682Z"/>
  <path fill="#000" d="M28.455 53.701a2.05 2.05 0 0 0-.061-.208 1.22 1.22 0 0 1-.214-.036c0 .073.043.146.061.22.019.073.043.146.061.213.07.006.139.006.208 0a1.298 1.298 0 0 0-.055-.189Zm-.269-1.356v-.055a1.233 1.233 0 0 0-.06-.129.973.973 0 0 0-.074-.165c0-.06-.055-.128-.086-.189a22.182 22.182 0 0 0-.519-1.002v.03a.85.85 0 0 0-.116.22c.116.239.22.483.318.721l.091.214c0 .067.055.135.074.202h.104c.02.037.039.076.055.116l-.05.055-.067.08a.427.427 0 0 1 .03.079 1.92 1.92 0 0 0-.121.25l.11.324c.022-.11.057-.216.104-.317a.848.848 0 0 1 .134-.227.285.285 0 0 1 .037-.055l.085-.091-.049-.061Zm1.283.17a3.06 3.06 0 0 0-.146-.513 3.473 3.473 0 0 1-.116-.238 1.34 1.34 0 0 0-.11-.208 4.822 4.822 0 0 0-.312-.445 2.577 2.577 0 0 0-.238-.275 4.088 4.088 0 0 0-.324-.324 2.082 2.082 0 0 0-.354-.27l-.275-.127-.208-.055a1.932 1.932 0 0 0-.244-.05h-.666l.073.117.067.11.049.08c.04.06.077.123.11.189.061.097.116.195.171.293l.037.061c.03.049.056.1.08.153.05.078.095.16.134.244.097.171.183.342.268.513.042.073.079.149.11.226.037.068.067.135.098.202l.073.153a1.593 1.593 0 0 0-.104.17 2.448 2.448 0 0 0-.244.93v.128l.11.055c.181.091.372.163.568.214l.22.049c.07.005.139.005.208 0h.128a.871.871 0 0 0 .263-.05.842.842 0 0 0 .367-.244l.036-.055.068-.116c.046-.088.079-.183.097-.28a1.73 1.73 0 0 0 0-.306c.011-.11.013-.22.006-.33Zm-.507.825a.487.487 0 0 1-.44.165.417.417 0 0 1-.122 0 1.229 1.229 0 0 1-.214-.036l-.232-.074-.134-.055a2.15 2.15 0 0 1 .146-.55.852.852 0 0 1 .135-.225.29.29 0 0 1 .036-.055l.086-.092-.03-.061v-.055a1.235 1.235 0 0 0-.062-.128.973.973 0 0 0-.073-.165c0-.062-.055-.129-.085-.19a22.34 22.34 0 0 0-.52-1.002l-.08-.14c-.042-.074-.085-.153-.134-.226l.116.03c.12.025.236.068.343.128.273.182.516.404.72.66.056.068.117.14.172.22.048.063.093.128.134.196a.781.781 0 0 1 .092.152 1.7 1.7 0 0 1 .097.178c.178.328.247.705.196 1.075a.764.764 0 0 1-.067.19.152.152 0 0 1-.08.06Z"/>
  <path fill="#6FCFEB" d="M28.577 51.349a.677.677 0 0 1-.708.647c-.319 0-.634-.062-.929-.183a1.991 1.991 0 0 1 .293-1.112 23.218 23.218 0 0 0-.934-1.552l-.38-.538a2.08 2.08 0 0 1 .954.16c.531.256 1.845 1.472 1.704 2.578Z"/>
  <path fill="#000" d="m27.404 50.609-.098-.14a.459.459 0 0 0-.042-.074.831.831 0 0 0-.092-.159.956.956 0 0 0-.098-.17l-.091.03h-.104c.022.032.04.067.055.104.02.024.036.05.049.08h-.098l.11.176.165.275v.037a.134.134 0 0 0-.03.049l.11.226a.845.845 0 0 1 .116-.22v-.03l.048-.068v-.116Zm.287-1.466a4.946 4.946 0 0 0-.287-.25 3.433 3.433 0 0 0-.348-.245l-.104-.055a2.09 2.09 0 0 0-.971-.177h-.434l.214.293.323.458.05.073.085.129a9.857 9.857 0 0 1 .446.733c.042.063.081.128.116.195.043.06.08.123.11.19.043.067.08.134.116.201a.491.491 0 0 0-.049.098.1.1 0 0 0 0 .043c-.13.311-.195.646-.19.984v.128l.11.049c.216.084.439.145.667.183h.372a.086.086 0 0 0 .055 0c.04.006.082.006.123 0a.788.788 0 0 0 .61-.489.649.649 0 0 0 .056-.268c.009-.09.009-.18 0-.27a3.14 3.14 0 0 0-1.07-2.003Zm.69 2.101a.407.407 0 0 1 0 .086.458.458 0 0 1-.44.464h-.598l-.201-.055c.007-.108.021-.217.042-.323a.515.515 0 0 1 0-.104.971.971 0 0 1 .061-.19.843.843 0 0 1 .116-.22v-.03l.05-.068-.062-.116-.043-.22a.459.459 0 0 0-.042-.073.831.831 0 0 0-.092-.159.956.956 0 0 0-.098-.17v-.037c-.19-.33-.39-.654-.61-.966l-.147-.214c.163.017.321.06.47.129.2.105.385.236.55.39l.214.209c.061.06.122.128.177.195.202.228.369.486.495.764a1.488 1.488 0 0 1 .159.708Z"/>
  <path fill="#6FCFEB" d="M27.545 49.601a.671.671 0 0 1-.66.69 2.387 2.387 0 0 1-.94-.121 1.967 1.967 0 0 1 .213-1.125 17.488 17.488 0 0 0-1.038-1.484 16.568 16.568 0 0 0-.416-.507c.322-.05.652-.018.96.091.55.22 1.942 1.338 1.881 2.456Z"/>
  <path fill="#000" d="M26.94 50.194a.555.555 0 0 0-.055-.104h-.336a.975.975 0 0 1 .061.11l.05.08h.317a.352.352 0 0 0-.037-.086Zm.795-.727a1.426 1.426 0 0 0-.043-.324 3.825 3.825 0 0 0-1.955-2.181 2.127 2.127 0 0 0-.947-.117h-.471l.233.276c.146.164.28.335.409.507.128.17.25.323.367.488.116.165.189.257.274.391.086.135.22.318.324.483a2.199 2.199 0 0 0-.183 1.143v.128l.116.036c.268.091.548.14.83.147h.367l.086-.03a.283.283 0 0 0 .098-.043.61.61 0 0 0 .165-.104.612.612 0 0 0 .146-.165.8.8 0 0 0 .135-.367.48.48 0 0 0 0-.134c.019-.044.035-.089.049-.134Zm-.391.067v.06a.482.482 0 0 1-.208.416h-.055l-.092.03h-.446a2.656 2.656 0 0 1-.415-.078c0-.184.02-.366.06-.544a.61.61 0 0 1 0-.086.684.684 0 0 1 .068-.153.224.224 0 0 1 .03-.067l.074-.104-.073-.11c-.07-.11-.143-.22-.22-.33a1.338 1.338 0 0 0-.129-.195l-.158-.238a22.83 22.83 0 0 0-.544-.733l-.135-.178c.163.005.324.036.477.092a3.819 3.819 0 0 1 1.466 1.32c.069.118.13.24.184.366.041.107.072.217.091.33.018.074.025.14.025.202Z"/>
</svg>