<svg width="193" height="193" viewBox="0 0 193 193" fill="none" xmlns="http://www.w3.org/2000/svg">
<path d="M170.781 32.7309L69.4275 2.15565C53.3906 -2.68221 36.6424 6.43741 31.8529 22.314L1.32604 123.507C-3.51182 139.544 5.6078 156.292 21.4844 161.082L40.0872 166.694L57.5519 108.8L40.3923 103.624L51.9871 75.628L66.4204 79.9821L70.8228 65.3885C76.8701 45.3423 97.9053 34.1917 117.791 40.1906L139.441 46.7217L130.733 75.5882L109.083 69.0571C105.074 67.8476 100.899 70.0874 99.6893 74.0966L95.2868 88.6903L124.153 97.3984L112.559 125.394L86.4183 117.508L68.9537 175.402L122.677 191.608C138.714 196.446 155.463 187.327 160.252 171.45L190.779 70.2571C195.617 54.2202 186.497 37.472 170.621 32.6825L170.781 32.7309Z" fill="black"/>
</svg>
