<svg width="249" height="250" viewBox="0 0 249 250" fill="none" xmlns="http://www.w3.org/2000/svg">
<g filter="url(#filter0_d_450_7847)">
<path d="M135.202 244.364C68.5664 251.367 8.66773 202.836 1.66407 136.201C-5.33958 69.5653 43.1629 9.66966 109.798 2.666C176.434 -4.33766 236.329 44.1648 243.333 110.8C250.337 177.436 201.834 237.331 135.199 244.335L135.202 244.364Z" fill="white"/>
<path d="M133.907 232.043C193.853 225.743 237.342 172.039 231.041 112.092C224.741 52.1458 171.037 8.65728 111.09 14.9579C51.1437 21.2585 7.65515 74.9624 13.9558 134.909C20.2564 194.855 73.9603 238.344 133.907 232.043Z" stroke="#1D1D1B" stroke-miterlimit="10"/>
<path d="M89.9769 163.299L88.7213 151.352L89.2397 151.789L84.3041 152.308L84.1332 150.682L94.9205 149.548L95.0914 151.174L90.1558 151.693L90.5534 151.16L91.809 163.106L89.9769 163.299ZM104.29 161.946C103.293 162.05 102.347 161.98 101.452 161.734C100.569 161.486 99.7843 161.096 99.0983 160.563C98.4109 160.018 97.8501 159.359 97.416 158.585C96.9819 157.812 96.7144 156.945 96.6135 155.985C96.5126 155.026 96.5941 154.123 96.858 153.276C97.1218 152.429 97.5339 151.674 98.0942 151.01C98.6532 150.334 99.3387 149.783 100.151 149.357C100.963 148.932 101.874 148.666 102.883 148.56C103.881 148.455 104.814 148.527 105.685 148.776C106.566 149.01 107.351 149.401 108.038 149.946C108.737 150.477 109.297 151.13 109.718 151.905C110.153 152.679 110.421 153.551 110.523 154.524C110.625 155.496 110.544 156.405 110.28 157.252C110.029 158.098 109.618 158.859 109.046 159.537C108.486 160.2 107.8 160.745 106.988 161.171C106.187 161.582 105.287 161.841 104.29 161.946ZM104.115 160.282C104.838 160.206 105.492 160.011 106.077 159.697C106.674 159.383 107.173 158.977 107.574 158.482C107.987 157.972 108.286 157.399 108.471 156.762C108.669 156.124 108.729 155.443 108.653 154.72C108.577 153.997 108.376 153.344 108.051 152.761C107.737 152.176 107.326 151.684 106.818 151.284C106.321 150.87 105.747 150.571 105.098 150.387C104.461 150.202 103.781 150.148 103.058 150.223C102.323 150.301 101.657 150.497 101.06 150.812C100.475 151.125 99.9767 151.537 99.564 152.046C99.15 152.543 98.8443 153.111 98.6467 153.749C98.4616 154.386 98.4071 155.066 98.4831 155.789C98.559 156.512 98.7538 157.166 99.0672 157.75C99.3931 158.333 99.8109 158.831 100.321 159.244C100.829 159.644 101.401 159.937 102.038 160.122C102.688 160.306 103.38 160.359 104.115 160.282ZM122.243 146.676L124.112 146.48L125.488 159.566L123.618 159.763L122.243 146.676ZM116.102 160.553L114.233 160.749L112.857 147.663L114.727 147.466L116.102 160.553ZM123.173 153.912L115.302 154.739L115.131 153.113L123.002 152.286L123.173 153.912ZM127.204 161.276L131.523 143.017L133.149 142.846L128.831 161.105L127.204 161.276ZM136.142 158.447L134.766 145.36L136.299 145.199L143.209 154.472L142.386 154.558L147.143 144.059L148.676 143.898L150.07 156.983L148.275 157.171L147.178 146.91L147.607 146.864L143.359 156.081L142.499 156.172L136.39 148.043L136.858 147.994L137.936 158.258L136.142 158.447ZM154.143 156.555L152.768 143.468L154.619 143.273L155.994 156.36L154.143 156.555ZM165.944 155.465C164.947 155.57 164.008 155.505 163.126 155.27C162.256 155.021 161.478 154.631 160.792 154.098C160.117 153.551 159.562 152.891 159.128 152.118C158.694 151.344 158.426 150.472 158.324 149.5C158.221 148.527 158.302 147.618 158.566 146.771C158.83 145.924 159.242 145.169 159.802 144.505C160.361 143.829 161.041 143.285 161.842 142.873C162.654 142.448 163.559 142.182 164.556 142.078C165.566 141.971 166.513 142.048 167.397 142.308C168.292 142.554 169.074 142.983 169.743 143.593L168.652 144.898C168.098 144.427 167.497 144.1 166.847 143.916C166.197 143.72 165.516 143.659 164.806 143.734C164.07 143.811 163.398 144.008 162.789 144.324C162.192 144.638 161.686 145.044 161.272 145.542C160.858 146.039 160.553 146.613 160.357 147.263C160.172 147.9 160.117 148.58 160.193 149.303C160.269 150.026 160.464 150.686 160.779 151.283C161.105 151.866 161.522 152.358 162.031 152.758C162.539 153.158 163.118 153.45 163.767 153.634C164.429 153.816 165.128 153.869 165.863 153.792C166.573 153.717 167.227 153.522 167.824 153.208C168.42 152.88 168.939 152.423 169.381 151.834L170.72 152.884C170.192 153.62 169.517 154.208 168.694 154.647C167.883 155.085 166.966 155.358 165.944 155.465Z" fill="black"/>
<path d="M76.2786 96.0327L80.5819 136.976L58.8765 139.257L56.8486 119.963L48.0431 120.889L46.4692 105.914L51.1391 105.026C55.6527 104.268 57.297 103.188 58.9479 97.8542L76.2786 96.0327ZM111.865 134.822C92.7391 136.832 83.07 129.002 81.8262 117.168L81.614 115.149C80.3701 103.315 88.2 93.6456 107.325 91.6354C126.507 89.6193 136.176 97.4492 137.42 109.283L137.632 111.303C138.876 123.137 131.046 132.806 111.865 134.822ZM110.155 118.557C114.137 118.138 115.894 115.969 115.564 112.828L115.517 112.379C115.186 109.239 113.017 107.482 109.035 107.9C105.053 108.319 103.296 110.488 103.626 113.629L103.673 114.078C104.004 117.219 106.173 118.975 110.155 118.557ZM170.032 128.708C150.907 130.718 141.238 122.889 139.994 111.054L139.782 109.035C138.538 97.201 146.368 87.5319 165.493 85.5217C184.675 83.5057 194.344 91.3355 195.588 103.17L195.8 105.189C197.044 117.023 189.214 126.692 170.032 128.708ZM168.323 112.443C172.305 112.025 174.061 109.855 173.731 106.714L173.684 106.266C173.354 103.125 171.185 101.368 167.203 101.787C163.221 102.205 161.464 104.375 161.794 107.515L161.841 107.964C162.171 111.105 164.341 112.862 168.323 112.443Z" fill="black"/>
</g>
<defs>
<filter id="filter0_d_450_7847" x="-0.00842285" y="-0.00683594" width="249.014" height="249.043" filterUnits="userSpaceOnUse" color-interpolation-filters="sRGB">
<feFlood flood-opacity="0" result="BackgroundImageFix"/>
<feColorMatrix in="SourceAlpha" type="matrix" values="0 0 0 0 0 0 0 0 0 0 0 0 0 0 0 0 0 0 127 0" result="hardAlpha"/>
<feOffset dx="2" dy="1"/>
<feGaussianBlur stdDeviation="1.5"/>
<feComposite in2="hardAlpha" operator="out"/>
<feColorMatrix type="matrix" values="0 0 0 0 0 0 0 0 0 0 0 0 0 0 0 0 0 0 0.2 0"/>
<feBlend mode="normal" in2="BackgroundImageFix" result="effect1_dropShadow_450_7847"/>
<feBlend mode="normal" in="SourceGraphic" in2="effect1_dropShadow_450_7847" result="shape"/>
</filter>
</defs>
</svg>
