<svg width="56" height="70" viewBox="0 0 56 70" fill="none" xmlns="http://www.w3.org/2000/svg">
<path d="M37.0139 64.0267C35.9983 66.8405 27.7219 66.4426 17.5817 62.7825C7.44156 59.1225 0.826706 54.1455 1.84231 51.3317C1.96163 51.0012 2.1858 50.7171 2.51205 50.4873C4.97837 48.7099 12.3182 49.3432 21.2668 52.5732C30.2153 55.8031 36.2753 60.0063 37.0378 62.9492C37.1421 63.3344 37.1332 63.6962 37.0139 64.0267Z" fill="#FF0000" stroke="black" stroke-width="3" stroke-linecap="round" stroke-linejoin="round"/>
<path d="M37.0142 64.0263C37.1335 63.6957 37.1424 63.334 37.0381 62.9487C36.2756 60.0059 30.2233 55.8054 21.267 52.5727C12.3108 49.34 4.97865 48.7094 2.51234 50.4868C2.18609 50.7167 1.96191 51.0007 1.84259 51.3313C9.35415 30.5205 21.8632 29.0138 23.9499 23.2326C25.1708 19.85 22.9176 16.9686 24.4632 12.6865C26.4417 7.20516 32.4786 4.37041 37.9523 6.34611C43.426 8.32182 46.2684 14.3615 44.29 19.8429C42.7776 24.0328 39.2091 24.7954 37.9493 28.2856C35.8543 34.0899 44.5701 43.0925 37.0142 64.0263Z" fill="#FF0000" stroke="black" stroke-width="3" stroke-linecap="round" stroke-linejoin="round"/>
</svg>
