<svg width="79" height="75" viewBox="0 0 79 75" fill="none" xmlns="http://www.w3.org/2000/svg">
<path d="M27.2964 46.224C27.5585 47.2023 27.4711 48.2865 26.9844 49.2459L24.5415 53.4607C23.3787 55.4913 20.785 56.1863 18.7627 55.0091C17.7417 54.4292 17.0631 53.4893 16.7827 52.4428C16.5663 51.6351 16.5918 50.7748 16.8722 49.956C16.9736 49.6971 17.0697 49.4641 17.2143 49.2303L19.5346 45.1948C20.7118 43.1724 23.294 42.4805 25.3247 43.6433C26.3374 44.2376 27.016 45.1775 27.2964 46.224Z" fill="#FFE5B1" stroke="black" stroke-width="3" stroke-linecap="round" stroke-linejoin="round"/>
<path d="M35.14 49.5587C35.4204 50.6052 35.3026 51.7584 34.7197 52.7681L31.8717 57.701C30.7059 59.7203 28.1123 60.4152 26.093 59.2494C25.0833 58.6665 24.4048 57.7266 24.1243 56.68C23.8439 55.6335 23.9616 54.4803 24.5415 53.4592L26.9845 49.2445L27.3812 48.5408C28.5553 46.5071 31.1376 45.8152 33.1713 46.9893C34.181 47.5722 34.8595 48.5121 35.14 49.5587Z" fill="#FFE5B1" stroke="black" stroke-width="3" stroke-linecap="round" stroke-linejoin="round"/>
<path d="M41.9618 54.6814C42.2422 55.7279 42.1245 56.8812 41.5302 57.8939L41.5166 57.9341L39.2099 61.9294C38.0441 63.9487 35.4504 64.6437 33.4198 63.4809C32.4101 62.898 31.7316 61.9581 31.4511 60.9115C31.1707 59.865 31.2884 58.7118 31.8714 57.7021L34.203 53.6635C35.3689 51.6442 37.9625 50.9492 39.9818 52.1151C41.0028 52.695 41.6814 53.6348 41.9618 54.6814Z" fill="#FFE5B1" stroke="black" stroke-width="3" stroke-linecap="round" stroke-linejoin="round"/>
<path d="M49.2758 58.9513L49.2819 58.9741C49.5623 60.0206 49.4385 61.1511 48.8556 62.1607L48.2341 63.2539L47.9759 63.701L47.2567 64.9301C46.0795 66.9524 43.4972 67.6443 41.4666 66.4815C40.4569 65.8986 39.7784 64.9587 39.4979 63.9122C39.2175 62.8656 39.3352 61.7124 39.9182 60.7028L41.517 57.9334C42.6798 55.9028 45.2734 55.2078 47.3072 56.382C48.3168 56.9649 48.9954 57.9048 49.2758 58.9513Z" fill="#FFE5B1" stroke="black" stroke-width="3" stroke-linecap="round" stroke-linejoin="round"/>
<path d="M65.6273 33.1122L62.9875 37.6845C62.7407 37.4458 62.4658 37.2391 62.1629 37.0642L40.1237 24.3398L40.1123 24.3429L37.4698 22.8076L24.0898 27.6119C23.6129 27.7885 23.1456 27.8649 22.6662 27.8959C20.4543 28.0131 18.3324 26.6918 17.5385 24.5027C16.5992 21.816 17.99 18.9074 20.6592 17.9483L24.4939 16.6526C26.6839 15.9073 28.7575 14.864 30.6874 13.6031C32.4422 12.4623 34.0997 11.1404 35.6205 9.67215C38.6143 6.78509 42.4439 5.01521 46.4457 4.4794C50.4763 3.96023 54.6822 4.6865 58.4695 6.85387C67.7112 12.1319 70.9084 23.882 65.6273 33.1122Z" fill="#FFE5B1" stroke="black" stroke-width="3" stroke-linecap="round" stroke-linejoin="round"/>
<path d="M63.7109 42.8421L63.6996 42.8451C63.1197 43.8661 62.1798 44.5447 61.1333 44.8251C60.0867 45.1055 58.9449 44.9848 57.9352 44.4018C59.9576 45.5791 60.6495 48.1613 59.4836 50.1806L59.4723 50.1837C58.8893 51.1933 57.9495 51.8719 56.9029 52.1523C55.8564 52.4327 54.7031 52.315 53.6935 51.7321L49.1964 49.1453L53.6965 51.7434C55.7272 52.9062 56.4078 55.4915 55.2419 57.5108L55.2305 57.5139C54.0677 59.5446 51.4885 60.2479 49.4662 59.0706L49.2817 58.9737L49.2756 58.951C48.9952 57.9045 48.3166 56.9646 47.307 56.3817C45.2733 55.2075 42.6797 55.9024 41.5169 57.9331L41.5305 57.8929C42.1248 56.8802 42.2425 55.727 41.9621 54.6804C41.6816 53.6339 41.0031 52.694 39.982 52.1141C37.9627 50.9483 35.3691 51.6432 34.2033 53.6626L34.7196 52.7683C35.3025 51.7586 35.4202 50.6054 35.1398 49.5589C34.8594 48.5123 34.1808 47.5724 33.1712 46.9895C31.1374 45.8153 28.5552 46.5073 27.381 48.541L26.9844 49.2447C27.471 48.2852 27.5584 47.2011 27.2963 46.2228C27.0159 45.1762 26.3373 44.2364 25.3246 43.6421C23.294 42.4793 20.7117 43.1712 19.5345 45.1935L17.2142 49.2291C17.0696 49.4629 16.9735 49.6959 16.8691 49.9433L14.2759 48.4558C5.08726 43.1026 1.98107 31.3282 7.34559 22.1365C9.5418 18.3658 12.8097 15.637 16.5713 14.0682C20.3048 12.5313 24.5063 12.1493 28.5426 13.1526C29.2483 13.3293 29.9623 13.4916 30.687 13.6022C28.757 14.8631 26.6835 15.9064 24.4935 16.6517L20.6588 17.9474C17.9896 18.9064 16.5987 21.8151 17.5381 24.5017C18.3319 26.6909 20.4538 28.0121 22.6658 27.8949C23.1452 27.864 23.6124 27.7876 24.0894 27.611L37.4693 22.8067L40.1089 24.3306L40.1202 24.3275L62.1625 37.0633L62.9871 37.6836C64.355 39.0118 64.7019 41.1256 63.7109 42.8421Z" fill="#FFE5B1" stroke="black" stroke-width="3" stroke-linecap="round" stroke-linejoin="round"/>
<path d="M57.9355 44.4019L53.4353 41.8037" stroke="black" stroke-width="3" stroke-linecap="round" stroke-linejoin="round"/>
</svg>
