<svg width="79" height="85" viewBox="0 0 79 85" fill="none" xmlns="http://www.w3.org/2000/svg">
<path d="M69.7884 18.5872L49.4916 4.85976C44.4355 1.44013 37.5645 2.76676 34.1449 7.82287L6.19169 49.1532C2.77206 54.2093 4.09869 61.0803 9.1548 64.4999L29.4516 78.2274C34.5078 81.647 41.3787 80.3204 44.7983 75.2643L72.7515 33.9339C76.1712 28.8778 74.8445 22.0069 69.7884 18.5872Z" fill="#D4B3FF" stroke="black" stroke-width="2.5" stroke-linecap="round" stroke-linejoin="round"/>
<path d="M68.7942 32.0955L41.593 72.3139C39.3529 75.6261 34.8231 76.4771 31.4775 74.2144L12.2839 61.233C8.93833 58.9703 8.04184 54.4493 10.282 51.1371L37.4831 10.9187C39.7171 7.61565 44.2699 6.76031 47.6063 9.01685C48.17 9.39811 48.3214 10.1618 47.944 10.7199C47.3793 11.5547 47.6065 12.7002 48.4498 13.2706L62.5287 22.7927C63.372 23.363 64.5198 23.1474 65.0844 22.3126C65.4618 21.7545 66.227 21.6107 66.7907 21.992C70.1409 24.2578 71.0374 28.7788 68.7942 32.0955Z" fill="#A9F0FF" stroke="black" stroke-width="2.5" stroke-linecap="round" stroke-linejoin="round"/>
</svg>
