<svg width="390" height="386" viewBox="0 0 390 386" fill="none" xmlns="http://www.w3.org/2000/svg">
<path d="M133.529 7.81888C105.187 20.7626 94.5118 53.4314 69.0683 69.6364C43.2916 86.0229 14.5299 104.025 5.06178 134.355C-9.86208 182.14 13.585 293.951 50.3376 327.94C71.3924 347.425 128.4 373.705 156.465 379.77C218.42 393.175 315.579 384.027 356.784 348.649C371.335 336.159 374.259 314.863 373.709 295.951C373.158 277.039 368.876 258.33 369.422 239.415C370.924 186.195 413.491 121.583 371.414 74.9478C359.34 62.4803 342.535 55.4051 325.792 50.2343C268.94 32.658 190.275 -18.0916 133.529 7.81888Z" fill="white"/>
</svg>
