<svg width="287" height="300" viewBox="0 0 287 300" fill="none" xmlns="http://www.w3.org/2000/svg">
<g filter="url(#filter0_d_2585_4233)">
<path d="M200.196 251.196C152.598 277.938 88.3466 254.231 56.9489 198.346C25.5512 142.462 38.7124 75.2336 86.3106 48.4914C133.909 21.7493 198.173 45.4779 229.57 101.363C260.968 157.247 247.807 224.475 200.208 251.218L200.196 251.196Z" fill="white"/>
<path d="M195.096 242.118C237.738 218.16 249.099 157.431 220.47 106.475C191.842 55.5196 134.066 33.6336 91.4233 57.5914C48.781 81.5491 37.4205 142.278 66.0489 193.234C94.6773 244.189 152.454 266.075 195.096 242.118Z" stroke="#1D1D1B" stroke-miterlimit="10"/>
<path d="M189.402 185.4L188.331 183.494C187.297 181.653 185.328 180.505 183.217 180.508L176.719 180.525C168.835 180.532 164.447 171.419 169.363 165.277L170.98 163.241" stroke="#1D1D1B" stroke-width="2" stroke-linecap="round" stroke-linejoin="round"/>
<path d="M175.96 172.106L161.355 146.112C160.201 144.057 160.92 141.427 162.997 140.26C165.074 139.093 167.683 139.825 168.85 141.902L177.379 157.083" stroke="#1D1D1B" stroke-width="2" stroke-linecap="round" stroke-linejoin="round"/>
<path d="M175.31 153.399L173.337 149.888C172.182 147.832 172.926 145.245 174.96 144.102C176.994 142.96 179.602 143.691 180.745 145.726L186.098 155.254" stroke="#1D1D1B" stroke-width="2" stroke-linecap="round" stroke-linejoin="round"/>
<path d="M182.827 149.431L181.744 147.503C180.541 145.362 181.301 142.654 183.442 141.451C185.583 140.248 188.292 141.008 189.495 143.149L194.596 152.227" stroke="#1D1D1B" stroke-width="2" stroke-linecap="round" stroke-linejoin="round"/>
<path d="M193.85 150.899L192.671 148.801C191.54 146.788 192.254 144.247 194.266 143.116C196.279 141.985 198.82 142.698 199.951 144.711L203.957 151.841C204.823 153.383 205.454 155.057 205.822 156.765L208.007 166.721C208.388 168.451 209.018 170.125 209.884 171.667L210.847 173.38" stroke="#1D1D1B" stroke-width="2" stroke-linecap="round" stroke-linejoin="round"/>
<path d="M162.394 176.74L122.59 199.104C117.858 201.762 111.893 200.071 109.246 195.36L76.5135 137.099C73.8549 132.367 75.5463 126.402 80.2569 123.756L152.265 83.2997C156.996 80.6411 162.961 82.3325 165.608 87.0431L193.12 136.012" stroke="#1D1D1B" stroke-width="2" stroke-linecap="round" stroke-linejoin="round"/>
<path d="M130.995 202.834L165.875 183.237" stroke="#1D1D1B" stroke-width="2" stroke-linecap="round" stroke-linejoin="round"/>
<path d="M119.777 184.119L156.669 163.392" stroke="#1D1D1B" stroke-width="2" stroke-linecap="round" stroke-linejoin="round"/>
<path d="M138.235 173.751L129.874 158.87" stroke="#1D1D1B" stroke-width="2" stroke-linecap="round" stroke-linejoin="round"/>
<path d="M130.409 176.118L125.477 167.339" stroke="#1D1D1B" stroke-width="2" stroke-linecap="round" stroke-linejoin="round"/>
<path d="M124.337 181.558L120.488 174.706" stroke="#1D1D1B" stroke-width="2" stroke-linecap="round" stroke-linejoin="round"/>
<path d="M145.171 169.853L139.372 159.532" stroke="#1D1D1B" stroke-width="2" stroke-linecap="round" stroke-linejoin="round"/>
<path d="M152.109 165.955L148.259 159.104" stroke="#1D1D1B" stroke-width="2" stroke-linecap="round" stroke-linejoin="round"/>
<path d="M100.358 128.097L117.295 118.581" stroke="#1D1D1B" stroke-width="2" stroke-linecap="round" stroke-linejoin="round"/>
<path d="M95.1552 131.019L90.0378 133.895" stroke="#1D1D1B" stroke-width="2" stroke-linecap="round" stroke-linejoin="round"/>
<path d="M92.2461 142.288L121.409 125.904" stroke="#1D1D1B" stroke-width="2" stroke-linecap="round" stroke-linejoin="round"/>
<path d="M103.372 145.645L125.512 133.206" stroke="#1D1D1B" stroke-width="2" stroke-linecap="round" stroke-linejoin="round"/>
<path d="M107.486 152.966L124.401 143.462" stroke="#1D1D1B" stroke-width="2" stroke-linecap="round" stroke-linejoin="round"/>
<path d="M164.194 107.191C168.645 115.113 165.83 125.146 157.908 129.597C149.986 134.048 139.953 131.233 135.502 123.311C131.051 115.388 133.866 105.356 141.788 100.905C149.71 96.4539 159.743 99.2685 164.194 107.191Z" stroke="#1D1D1B" stroke-width="2" stroke-linecap="round" stroke-linejoin="round"/>
<path d="M144.218 117.765L150.217 119.466L153.153 108.998" stroke="#1D1D1B" stroke-width="2" stroke-linecap="round" stroke-linejoin="round"/>
</g>
<defs>
<filter id="filter0_d_2585_4233" x="38.8844" y="35.4961" width="212.75" height="230.699" filterUnits="userSpaceOnUse" color-interpolation-filters="sRGB">
<feFlood flood-opacity="0" result="BackgroundImageFix"/>
<feColorMatrix in="SourceAlpha" type="matrix" values="0 0 0 0 0 0 0 0 0 0 0 0 0 0 0 0 0 0 127 0" result="hardAlpha"/>
<feOffset dx="2" dy="1"/>
<feGaussianBlur stdDeviation="1.5"/>
<feComposite in2="hardAlpha" operator="out"/>
<feColorMatrix type="matrix" values="0 0 0 0 0 0 0 0 0 0 0 0 0 0 0 0 0 0 0.2 0"/>
<feBlend mode="normal" in2="BackgroundImageFix" result="effect1_dropShadow_2585_4233"/>
<feBlend mode="normal" in="SourceGraphic" in2="effect1_dropShadow_2585_4233" result="shape"/>
</filter>
</defs>
</svg>
