<svg width="277" height="228" viewBox="0 0 277 228" fill="none" xmlns="http://www.w3.org/2000/svg">
<g filter="url(#filter0_d_2585_5150)">
<path d="M260.884 171.331L270.437 85.2172C273.897 54.028 251.418 25.9394 220.228 22.4795L78.7352 6.78354C47.546 3.32369 19.4574 25.8028 15.9975 56.992L6.44491 143.105C2.98506 174.295 25.4641 202.383 56.6533 205.843L198.147 221.539C229.336 224.999 257.424 202.52 260.884 171.331Z" fill="white"/>
<path d="M219.056 33.0393L77.5633 17.3433C52.2057 14.5303 29.3691 32.8063 26.5561 58.1639L17.0035 144.277C14.1906 169.635 32.4666 192.471 57.8241 195.284L199.317 210.98C224.675 213.793 247.511 195.517 250.324 170.16L259.877 84.0464C262.69 58.6889 244.414 35.8522 219.056 33.0393Z" stroke="#1D1D1B" stroke-linecap="round" stroke-linejoin="round"/>
<path d="M178.876 115.128C169.374 103.335 152.111 101.478 140.317 110.98C128.524 120.482 126.667 137.746 136.17 149.539C145.672 161.332 162.935 163.189 174.728 153.687C186.521 144.185 188.378 126.921 178.876 115.128Z" stroke="#1D1D1B" stroke-width="2" stroke-miterlimit="10"/>
<path d="M187.36 162.498C185.862 160.639 183.144 160.342 181.289 161.837C179.435 163.331 179.146 166.05 180.645 167.909L192.941 183.17C194.44 185.03 197.158 185.326 199.012 183.832C200.867 182.338 201.155 179.619 199.657 177.759L187.36 162.498Z" stroke="#1D1D1B" stroke-width="2" stroke-miterlimit="10"/>
<path d="M181.281 161.822L174.715 153.674" stroke="#1D1D1B" stroke-width="2" stroke-miterlimit="10"/>
<path d="M122.16 128.402L89.0165 124.726C85.9606 124.387 83.7517 121.626 84.0907 118.57L91.0691 55.6625C91.4081 52.6066 94.1682 50.3977 97.2242 50.7367L187.412 60.7413C190.468 61.0803 192.677 63.8404 192.338 66.8964L187.165 113.531" stroke="#1D1D1B" stroke-width="2" stroke-miterlimit="10"/>
<path d="M97.5381 93.7051L95.449 112.538C95.3167 113.73 96.1781 114.807 97.3707 114.939L105.843 115.879" stroke="#1D1D1B" stroke-width="2" stroke-miterlimit="10"/>
<path d="M122.16 128.402L89.0165 124.726C85.9606 124.387 83.7517 121.626 84.0907 118.57L91.0691 55.6625C91.4081 52.6066 94.1682 50.3977 97.2242 50.7367L187.412 60.7413C190.468 61.0803 192.677 63.8404 192.338 66.8964L187.165 113.531" stroke="#1D1D1B" stroke-width="2" stroke-miterlimit="10"/>
<path d="M115.03 127.611L113.23 143.835" stroke="#1D1D1B" stroke-width="2" stroke-miterlimit="10"/>
<path d="M106.572 143.095L126.821 145.341" stroke="#1D1D1B" stroke-width="2" stroke-miterlimit="10"/>
<path d="M126.467 75.759C129.623 76.1091 132.465 73.8345 132.815 70.6785C133.165 67.5225 130.891 64.6803 127.735 64.3302C124.579 63.9801 121.737 66.2547 121.387 69.4107C121.037 72.5666 123.311 75.4089 126.467 75.759Z" stroke="#1D1D1B" stroke-width="2" stroke-miterlimit="10"/>
<path d="M143.034 96.4601C146.19 96.8102 149.032 94.5356 149.382 91.3797C149.732 88.2237 147.458 85.3815 144.302 85.0314C141.146 84.6813 138.303 86.9559 137.953 90.1119C137.603 93.2678 139.878 96.11 143.034 96.4601Z" stroke="#1D1D1B" stroke-width="2" stroke-miterlimit="10"/>
<path d="M163.711 79.8908C166.866 80.2409 169.709 77.9663 170.059 74.8103C170.409 71.6544 168.134 68.8121 164.978 68.462C161.822 68.1119 158.98 70.3865 158.63 73.5425C158.28 76.6985 160.555 79.5407 163.711 79.8908Z" stroke="#1D1D1B" stroke-width="2" stroke-miterlimit="10"/>
<path d="M140.065 86.2713L130.699 74.5684" stroke="#1D1D1B" stroke-width="2" stroke-miterlimit="10"/>
<path d="M159.842 77.8014L148.139 87.1672" stroke="#1D1D1B" stroke-width="2" stroke-miterlimit="10"/>
<path d="M122.646 73.7008L109.676 84.2842" stroke="#1D1D1B" stroke-width="2" stroke-miterlimit="10"/>
</g>
<defs>
<filter id="filter0_d_2585_5150" x="5.09351" y="4.43262" width="270.695" height="221.458" filterUnits="userSpaceOnUse" color-interpolation-filters="sRGB">
<feFlood flood-opacity="0" result="BackgroundImageFix"/>
<feColorMatrix in="SourceAlpha" type="matrix" values="0 0 0 0 0 0 0 0 0 0 0 0 0 0 0 0 0 0 127 0" result="hardAlpha"/>
<feOffset dx="2" dy="1"/>
<feGaussianBlur stdDeviation="1.5"/>
<feComposite in2="hardAlpha" operator="out"/>
<feColorMatrix type="matrix" values="0 0 0 0 0 0 0 0 0 0 0 0 0 0 0 0 0 0 0.2 0"/>
<feBlend mode="normal" in2="BackgroundImageFix" result="effect1_dropShadow_2585_5150"/>
<feBlend mode="normal" in="SourceGraphic" in2="effect1_dropShadow_2585_5150" result="shape"/>
</filter>
</defs>
</svg>
