<svg width="97" height="84" viewBox="0 0 97 84" fill="none" xmlns="http://www.w3.org/2000/svg">
<path d="M65.4766 53.3001L66.3795 56.8635C67.8482 62.678 66.1508 68.8417 61.9072 73.0852L58.6027 76.3897C58.0008 76.9916 56.9715 76.5884 56.9414 75.7397C56.8451 72.706 56.195 67.4452 53.053 64.3032" fill="#FF0000"/>
<path d="M65.4766 53.3001L66.3795 56.8635C67.8482 62.678 66.1508 68.8417 61.9072 73.0852L58.6027 76.3897C58.0008 76.9916 56.9715 76.5884 56.9414 75.7397C56.8451 72.706 56.195 67.4452 53.053 64.3032" stroke="black" stroke-width="3" stroke-linecap="round" stroke-linejoin="round"/>
<path d="M43.1877 31.0112L39.6243 30.1083C33.8038 28.6456 27.6461 30.337 23.4026 34.5806L20.0981 37.8851C19.4961 38.487 19.8994 39.5163 20.7481 39.5464C23.7818 39.6427 29.0426 40.2928 32.1846 43.4348" fill="#FF0000"/>
<path d="M43.1877 31.0112L39.6243 30.1083C33.8038 28.6456 27.6461 30.337 23.4026 34.5806L20.0981 37.8851C19.4961 38.487 19.8994 39.5163 20.7481 39.5464C23.7818 39.6427 29.0426 40.2928 32.1846 43.4348" stroke="black" stroke-width="3" stroke-linecap="round" stroke-linejoin="round"/>
<path d="M56.8933 62.8347L50.6694 65.1942C48.8938 65.8623 46.8894 65.435 45.5471 64.0927L32.5456 51.0912C31.2034 49.7489 30.776 47.7446 31.4441 45.9689L33.8037 39.745C33.9421 39.3779 34.1648 39.0589 34.4537 38.794L56.9354 18.7441C62.8041 13.5134 71.7486 13.7662 77.3104 19.3279C82.8721 24.8897 83.1309 33.8282 77.8942 39.7029L57.8443 62.1846C57.5855 62.4795 57.2604 62.6962 56.8933 62.8347Z" fill="#CFE3EB" stroke="black" stroke-width="3" stroke-linecap="round" stroke-linejoin="round"/>
<path d="M34.0625 39.2451L57.3929 62.5755" stroke="black" stroke-width="3" stroke-linecap="round" stroke-linejoin="round"/>
<path d="M36.3558 73.5365C36.0127 73.8796 35.6516 74.1926 35.2663 74.4695C35.2663 74.4695 35.2543 74.4815 35.2483 74.4875C30.9265 77.9426 26.8635 77.6115 26.8635 77.6115C26.8635 77.6115 26.7672 76.8049 26.683 75.7817C26.6047 74.9089 26.5385 73.8796 26.5204 73.055C26.5325 72.8262 26.4001 72.5253 26.2135 72.3748C25.8583 72.0919 25.449 72.128 25.112 72.429C24.6726 72.8323 24.5221 73.693 24.0345 74.3611C22.2107 76.8471 19.3275 77.3105 19.3275 77.3105C18.0575 73.2235 19.2673 66.151 21.5546 62.3107C21.5546 62.3107 21.5606 62.3047 21.5667 62.2987C21.9699 61.5824 22.4816 60.9022 23.0955 60.2883C26.7552 56.6286 32.6901 56.6286 36.3498 60.2883C40.0095 63.9479 40.0095 69.8828 36.3498 73.5425L36.3558 73.5365Z" fill="#FF7A00" stroke="black" stroke-width="3" stroke-linecap="round" stroke-linejoin="round"/>
<path d="M54.4073 42.2301C57.6552 45.478 62.921 45.478 66.1688 42.2301C69.4167 38.9823 69.4167 33.7165 66.1688 30.4686C62.921 27.2208 57.6552 27.2208 54.4073 30.4686C51.1595 33.7165 51.1595 38.9823 54.4073 42.2301Z" fill="#69E4FF" stroke="black" stroke-width="3" stroke-linecap="round" stroke-linejoin="round"/>
<path d="M81.566 31.4198C77.3405 31.5763 73.0609 30.0293 69.8346 26.8031C66.6083 23.5768 65.0614 19.2971 65.2179 15.0717C69.5397 14.6022 74.0119 16.0407 77.3044 19.3332C80.0853 22.1141 81.5419 25.7377 81.6443 29.4034C81.6623 30.0715 81.6382 30.7456 81.566 31.4198Z" fill="#FF0000" stroke="black" stroke-width="3" stroke-linecap="round" stroke-linejoin="round"/>
</svg>
