<svg xmlns="http://www.w3.org/2000/svg" width="367" height="271" fill="none" viewBox="0 0 367 271">
  <ellipse cx="183.528" cy="135.525" fill="#fff" rx="153.509" ry="73.055"/>
  <path stroke="#000" stroke-width="1.849" d="M325.015 135.525c0 8.247-3.838 16.178-10.93 23.473-7.096 7.299-17.409 13.915-30.225 19.491-25.63 11.15-61.102 18.07-100.332 18.07s-74.702-6.92-100.331-18.07c-12.817-5.576-23.13-12.192-30.226-19.491-7.092-7.295-10.93-15.226-10.93-23.473 0-8.246 3.838-16.177 10.93-23.472 7.096-7.299 17.41-13.915 30.226-19.49 25.629-11.151 61.101-18.071 100.331-18.071 39.23 0 74.702 6.92 100.332 18.07 12.816 5.576 23.129 12.192 30.225 19.491 7.092 7.295 10.93 15.226 10.93 23.472Z"/>
</svg>