<svg xmlns="http://www.w3.org/2000/svg" width="1920" height="200" fill="none" viewBox="0 0 1920 200">
  <g fill="#FFE456" clip-path="url(#clip0_239_2762)">
    <path d="M199.257 25.29c-4.5-27.747-80.282-15.789-81.324-15.361-25.533 4.165-51.643.13-77.493 0C21.62 8.144-4.75 8.106.736 33.882 2.8 43.608 8.472 52.367 11.894 61.647c.595 1.599 6.025 12.515 6.546 15.25.223 1.227 31.113 75.409 38.31 85.117 39.593 53.429 87.628 15.975 104.663-33.791.688-.278.279-.929.465-1.376 1.413-1.952 2.008-4.258 2.827-6.471l-.168-.075v-.037l.149.112c2.325-4.947 4.445-10.024 6.044-15.25 2.696-6.676 5.951-13.78 7.959-20.828 6.1-19.657 21.015-37.826 20.587-59.008h-.019Zm-79.073 87.628c-1.098 20.01-26.073 32.991-36.785 11.995C71.274 98.84 97.142 9.929 114.753 77.826c1.86 10.786 5.877 23.283 5.412 35.092h.019ZM1490.04 25.29c-4.5-27.747-80.29-15.789-81.33-15.361-25.53 4.165-51.64.13-77.49 0-18.82-1.785-45.19-1.823-39.7 23.953 2.06 9.726 7.73 18.485 11.15 27.765.6 1.599 6.03 12.515 6.55 15.25.22 1.227 31.11 75.409 38.31 85.117 39.59 53.429 87.63 15.975 104.66-33.791.69-.278.28-.929.47-1.376 1.41-1.952 2.01-4.258 2.82-6.471l-.16-.075v-.037l.15.112c2.32-4.947 4.44-10.024 6.04-15.25 2.7-6.676 5.95-13.78 7.96-20.828 6.1-19.657 21.01-37.826 20.59-59.008h-.02Zm-79.08 87.628c-1.09 20.01-26.07 32.991-36.78 11.995-12.13-26.073 13.74-114.984 31.35-47.087 1.86 10.786 5.88 23.283 5.41 35.092h.02ZM407.375 170.697c-16.198-25.385-32.098-54.545-59.38-67.674 20.401-10.284 35.632-31.131 47.552-51.271 24.585-27.933 25.497-40.709-15.733-38.273-30.517.056-60.235 1.618-90.789.893-21.182-.28-79.093-8.239-45.414 26.854 15.547 20.419 26.854 46.399 50.491 58.729 1.432.688 2.863 1.432 4.295 2.101 2.251 1.413-5.225 2.752-6.397 4.352-12.404 6.936-21.721 18.429-29.29 30.145-5.244 13.948-41.359 41.285-24.194 52.592 29.438 5.542 60.625 1.283 90.38 1.19 17.705-3.496 50.844 6.435 70.687 1.005 8.852-2.418 12.739-12.888 7.792-20.624v-.019Zm1290.775 0c-16.19-25.385-32.09-54.545-59.38-67.674 20.4-10.284 35.64-31.131 47.56-51.271 24.58-27.933 25.49-40.709-15.74-38.273-30.51.056-60.23 1.618-90.79.893-21.18-.28-79.09-8.239-45.41 26.854 15.55 20.419 26.85 46.399 50.49 58.729 1.43.688 2.86 1.432 4.3 2.101 2.25 1.413-5.23 2.752-6.4 4.352-12.41 6.936-21.72 18.429-29.29 30.145-5.25 13.948-41.36 41.285-24.2 52.592 29.44 5.542 60.63 1.283 90.39 1.19 17.7-3.496 50.84 6.435 70.68 1.005 8.85-2.418 12.74-12.888 7.79-20.624v-.019ZM609.113 130.454c-.242-1.302.446-2.715-.465-3.961-.688-11.307-1.581-22.93-3.106-34.014-.353-10.86-1.376-22.019-1.004-33.028 1.637-20.754 3.05-44.893-23.822-46.362h-9.968c-11.103 2.362-23.767 3.44-34.367 8.331-22.112 8.573-12.07 51.309-18.411 71.989-2.492 19.843-18.634 31.428-34.386 41.452-.39.037-.781.037-.967.465-20.289 10.358-36.171 41.88-7.494 52.332 2.622 1.301 5.542 2.101 8.461 2.473 6.491 1.692 13.613 1.915 20.475 1.86 22.949-.93 46.809 2.25 69.162-1.972.539.038 1.153.298 1.525-.353.856-.074 1.767.056 2.473-.632 11.884-2.641 23.804-10.917 28.398-22.54.967-1.859 1.971-3.719 2.008-5.913.484-.205.465-.614.409-1.023 1.246-1.99.335-4.594 1.544-6.416v-20.215c-.893-.669-.335-1.636-.484-2.473h.019Zm1290.777 0c-.24-1.302.45-2.715-.46-3.961-.69-11.307-1.58-22.93-3.11-34.014-.35-10.86-1.37-22.019-1-33.028 1.63-20.754 3.05-44.893-23.83-46.362h-9.96c-11.11 2.362-23.77 3.44-34.37 8.331-22.11 8.573-12.07 51.309-18.41 71.989-2.49 19.843-18.64 31.428-34.39 41.452-.39.037-.78.037-.96.465-20.29 10.358-36.17 41.88-7.5 52.332 2.62 1.301 5.54 2.101 8.46 2.473 6.49 1.692 13.62 1.915 20.48 1.86 22.95-.93 46.81 2.25 69.16-1.972.54.038 1.15.298 1.52-.353.86-.074 1.77.056 2.48-.632 11.88-2.641 23.8-10.917 28.4-22.54.96-1.859 1.97-3.719 2-5.913.49-.205.47-.614.41-1.023 1.25-1.99.34-4.594 1.55-6.416v-20.215c-.9-.669-.34-1.636-.49-2.473h.02ZM839.381 25.289C834.88-2.458 759.117 9.5 758.056 9.909c-25.533 4.166-51.643.13-77.493 0-18.82-1.767-45.19-1.804-39.704 23.971 2.064 9.727 7.736 18.486 11.158 27.766.595 1.599 6.026 12.515 6.546 15.249.223 1.227 31.113 75.41 38.31 85.118 39.593 53.429 87.628 15.975 104.663-33.791.688-.279.279-.929.465-1.376 1.413-1.952 2.008-4.258 2.827-6.472l-.168-.074v-.037l.149.111c2.325-4.946 4.445-10.023 6.044-15.249 2.696-6.676 5.951-13.78 7.959-20.828 6.1-19.657 21.015-37.826 20.587-59.008h-.018Zm-79.074 87.628c-1.098 20.01-26.073 32.991-36.785 11.995-12.125-26.073 13.743-114.984 31.354-47.087 1.86 10.786 5.877 23.283 5.412 35.092h.019Zm287.193 57.78c-16.2-25.385-32.1-54.545-59.382-67.674 20.402-10.284 35.632-31.131 47.552-51.271 24.58-27.933 25.5-40.709-15.73-38.273-30.52.056-60.238 1.618-90.793.893-21.182-.28-79.092-8.239-45.413 26.854 15.547 20.419 26.853 46.399 50.49 58.729 1.432.688 2.864 1.432 4.296 2.101 2.25 1.413-5.226 2.752-6.397 4.352-12.404 6.936-21.721 18.429-29.29 30.145-5.245 13.948-41.36 41.285-24.195 52.592 29.439 5.542 60.626 1.283 90.381 1.19 17.704-3.496 50.841 6.435 70.691 1.005 8.85-2.418 12.73-12.888 7.79-20.624v-.019Zm201.74-40.243c-.25-1.302.44-2.715-.47-3.961-.69-11.307-1.58-22.93-3.11-34.014-.35-10.86-1.37-22.019-1-33.028 1.64-20.754 3.05-44.893-23.82-46.362h-9.97c-11.1 2.362-23.77 3.44-34.37 8.331-22.11 8.573-12.07 51.309-18.41 71.989-2.49 19.843-18.63 31.428-34.38 41.452-.39.037-.78.037-.97.465-20.29 10.358-36.17 41.88-7.5 52.332 2.63 1.301 5.55 2.101 8.47 2.473 6.49 1.692 13.61 1.915 20.47 1.86 22.95-.93 46.81 2.25 69.16-1.972.54.038 1.16.298 1.53-.353.85-.074 1.76.056 2.47-.632 11.88-2.641 23.81-10.917 28.4-22.54.97-1.859 1.97-3.719 2.01-5.913.48-.205.46-.614.41-1.023 1.24-1.99.33-4.594 1.54-6.416v-20.215c-.89-.669-.33-1.636-.48-2.473h.02Z"/>
  </g>
  <defs>
    <clipPath id="clip0_239_2762">
      <path fill="#fff" d="M0 0h1920v200H0z"/>
    </clipPath>
  </defs>
</svg>