<svg xmlns="http://www.w3.org/2000/svg" width="1920" height="200" fill="none" viewBox="0 0 1920 200">
  <g fill="#FFE456" clip-path="url(#clip0_239_3094)">
    <path d="M858.371 133.493c-3.329-66.697 22.647-142.17-76.44-125.026-18.613.688-37.634 3.607-56.489 2.529-13.722 1.283-39.679-5.225-44.03 11.286-.316-.055-.465-.464-.688-.725-5.931 11.343-3.533 25.4 1.153 37.188 0 22.722 25.232 27.073 43.547 25.864 25.288-.483 90.72 10.86 25.269 20.993-29.639 3.942-69.43-5.839-71.401 36.072-3.347 11.882-3.96 30.848 9.651 36.63 19.616 6.992 42.115.223 62.68 3.087 4.202.781 10.468 1.264 14.708.558a.97.97 0 0 1-.391.427c41.985 5.411 96.038 10.785 92.412-48.865l.019-.018ZM1088.69 32.101c-10.07-36.89-88.82-19.077-117.324-23.205-20.026 1.06-45.239 4.964-56.786 24.172-1.041 1.897-2.324 3.793-2.845 5.969-3.068 6.991-4.147 16.474-3.105 23.874v.633c2.584 34.547 8.032 69.076 5.392 104.256 0 6.656 1.99 13.741 7.214 18.203 3.161 3.105 7.55 5.002 11.733 5.969 17.59 5.02 35.979-.651 53.625-3.514 18.576-1.823 29.006-18.799 27.536-36.389.8-1.766.09-3.997.32-5.95-.17-5.82.63-11.491.95-17.292 0-63.777 67.66-49.386 73.61-96.707-.09 0-.2 0-.3-.019h-.02Zm190.2 17.442c1.73-19.766 4.5-43.994-23.26-40.647-24.86 7.27-49.76 17.869-74.13 26.348.03-.112.07-.223.13-.335-29.05 10.97-66.72 19.635-80.74 50.408-10.19 24.228 10.95 47.526 32.15 56.693 27.33 14.745 58.07 22.164 87.19 33.172 13.55 4.5 26.1 12.681 40.87 12.588h.91c19.24.744 18.94-24.005 17.12-37.244h.06c-.73-6.935-.99-13.666 0-20.676 1.37-4.054.3-14.764-.45-18.892-3.35-20.193-.11-40.906.17-61.434l-.02.019Zm-43.71 52.695c-.41.186-.99.446-.92 1.004-21.73 9.278-53.53 19.542-75.8 7.214-.43-1.264-1.29-2.026-2.66-2.194-.47-1.729-1.64-3.068-3.27-3.737-6.16-11.807 6.6-20.38 15.56-23.317 5.93-1.748 12.62.54 18.5 0 9.93 3.98 52.7 8.163 48.59 21.03ZM207.816 133.493c-3.328-66.697 22.648-142.17-76.439-125.026-18.613.688-37.635 3.607-56.489 2.529-13.722 1.283-39.68-5.225-44.03 11.286-.316-.055-.465-.464-.688-.725-5.932 11.343-3.533 25.4 1.153 37.188 0 22.722 25.232 27.073 43.547 25.864 25.287-.483 90.719 10.86 25.269 20.993-29.639 3.942-69.43-5.839-71.4 36.072-3.348 11.882-3.962 30.848 9.65 36.63 19.616 6.992 42.115.223 62.68 3.087 4.202.781 10.468 1.264 14.707.558a.962.962 0 0 1-.39.427c41.985 5.411 96.038 10.785 92.412-48.865l.018-.018Zm1290.574 0c-3.33-66.697 22.65-142.17-76.44-125.026-18.61.688-37.63 3.607-56.49 2.529-13.72 1.283-39.68-5.225-44.03 11.286-.31-.055-.46-.464-.68-.725-5.94 11.343-3.54 25.4 1.15 37.188 0 22.722 25.23 27.073 43.55 25.864 25.28-.483 90.72 10.86 25.26 20.993-29.63 3.942-69.42-5.839-71.4 36.072-3.34 11.882-3.96 30.848 9.65 36.63 19.62 6.992 42.12.223 62.68 3.087 4.21.781 10.47 1.264 14.71.558a.924.924 0 0 1-.39.427c41.99 5.411 96.04 10.785 92.41-48.865l.02-.018ZM438.158 32.101C428.08-4.789 349.335 13.024 320.83 8.896c-20.026 1.06-45.239 4.964-56.786 24.172-1.041 1.897-2.324 3.793-2.845 5.969-3.068 6.991-4.146 16.474-3.105 23.874v.633c2.585 34.547 8.033 69.076 5.392 104.256 0 6.656 1.99 13.741 7.215 18.203 3.161 3.105 7.549 5.002 11.733 5.969 17.589 5.02 35.979-.651 53.624-3.514 18.576-1.823 29.007-18.799 27.538-36.389.8-1.766.093-3.997.316-5.95-.167-5.82.632-11.491.948-17.292 0-63.777 67.664-49.386 73.614-96.707-.093 0-.205 0-.298-.019h-.018Zm1290.572 0c-10.07-36.89-88.82-19.077-117.32-23.205-20.03 1.06-45.24 4.964-56.79 24.172-1.04 1.897-2.32 3.793-2.84 5.969-3.07 6.991-4.15 16.474-3.11 23.874v.633c2.58 34.547 8.03 69.076 5.39 104.256 0 6.656 1.99 13.741 7.22 18.203 3.16 3.105 7.55 5.002 11.73 5.969 17.59 5.02 35.98-.651 53.62-3.514 18.58-1.823 29.01-18.799 27.54-36.389.8-1.766.1-3.997.32-5.95-.17-5.82.63-11.491.95-17.292 0-63.777 67.66-49.386 73.61-96.707-.09 0-.2 0-.3-.019h-.02ZM628.337 49.543c1.729-19.766 4.5-43.994-23.261-40.647-24.86 7.27-49.757 17.869-74.134 26.348.037-.112.074-.223.13-.335-29.044 10.97-66.715 19.635-80.735 50.408-10.189 24.228 10.952 47.526 32.149 56.693 27.333 14.745 58.069 22.164 87.187 33.172 13.555 4.5 26.106 12.681 40.87 12.588h.911c19.245.744 18.947-24.005 17.125-37.244h.056c-.725-6.935-.986-13.666 0-20.676 1.376-4.054.297-14.764-.447-18.892-3.347-20.193-.111-40.906.168-61.434l-.019.019Zm-43.714 52.695c-.409.186-.986.446-.911 1.004-21.737 9.278-53.532 19.542-75.808 7.214-.428-1.264-1.283-2.026-2.659-2.194-.465-1.729-1.636-3.068-3.272-3.737-6.155-11.807 6.601-20.38 15.563-23.317 5.931-1.748 12.625.54 18.501 0 9.929 3.98 52.695 8.163 48.586 21.03ZM1918.91 49.543c1.73-19.766 4.5-43.994-23.26-40.647-24.86 7.27-49.75 17.869-74.13 26.348.04-.112.07-.223.13-.335-29.04 10.97-66.72 19.635-80.74 50.408-10.19 24.228 10.96 47.526 32.15 56.693 27.34 14.745 58.07 22.164 87.19 33.172 13.55 4.5 26.11 12.681 40.87 12.588h.91c19.25.744 18.95-24.005 17.13-37.244h.05c-.72-6.935-.98-13.666 0-20.676 1.38-4.054.3-14.764-.45-18.892-3.34-20.193-.11-40.906.17-61.434l-.02.019Zm-43.71 52.695c-.41.186-.99.446-.91 1.004-21.74 9.278-53.53 19.542-75.81 7.214-.43-1.264-1.28-2.026-2.66-2.194-.46-1.729-1.63-3.068-3.27-3.737-6.16-11.807 6.6-20.38 15.56-23.317 5.93-1.748 12.63.54 18.5 0 9.93 3.98 52.7 8.163 48.59 21.03Z"/>
  </g>
  <defs>
    <clipPath id="clip0_239_3094">
      <path fill="#fff" d="M0 0h1920v200H0z"/>
    </clipPath>
  </defs>
</svg>