<svg xmlns="http://www.w3.org/2000/svg" width="1920" height="200" fill="none" viewBox="0 0 1920 200">
  <g fill="#FFE456" clip-path="url(#clip0_239_3120)">
    <path d="M181.421 163.21c-.186-3.607.893-7.326-.911-10.803 2.548-27.575-1.934-55.484.465-83.227-.223-8.404.242-16.92.446-25.176 2.046-27.035-5.485-43.082-29.917-19.393-17.813 12.495-38.322 22.517-52.156 39.642-3.72 4.295-6.025 9.539-8.665 14.336C83.636 59.363 64.577 47.221 48.4 36.437 38.304 30.3 28.802 23.365 19.338 16.207c-.614-.298-.948-1.08-1.767-1.005-.613-1.04-1.636-1.301-2.733-1.376C-7.772 5.961 2.715 54.714.818 66.95c.13.019.242.075.354.112-2.585 9.892.204 25.957.557 36.76-.427 17.906-.743 35.738-1.45 53.532.39-.186.781-.372 1.172-.26-.391.093-.781.148-1.172.26 1.413 9.092-4.24 30.568 7.233 33.767v.037c5.318 2.361 13.332-3.124 17.348-7.233 18.873-14.28 42.227-24.86 57.567-43.677 3.607-4.128 5.932-9.446 8.61-14.15.836 2.156 1.747 4.165 2.9 6.061.26-.149.446-.372.65-.558-.074.224-.26.428-.65.558 9.074 16.103 25.009 26.738 40.404 36.184-.185 0-.371-.056-.557-.167 23.521 13.722 49.813 47.21 47.656-4.965h-.019Zm1290.579 0c-.19-3.607.89-7.326-.91-10.803 2.54-27.575-1.94-55.484.46-83.227-.22-8.404.24-16.92.45-25.176 2.04-27.035-5.49-43.082-29.92-19.393-17.81 12.495-38.32 22.517-52.16 39.642-3.71 4.295-6.02 9.539-8.66 14.336-7.05-19.226-26.11-31.368-42.28-42.152-10.1-6.136-19.6-13.072-29.06-20.23-.62-.298-.95-1.08-1.77-1.005-.61-1.04-1.64-1.301-2.73-1.376-22.61-7.865-12.13 40.888-14.02 53.123.13.019.24.075.35.112-2.59 9.892.2 25.957.56 36.76-.43 17.906-.75 35.738-1.45 53.532.39-.186.78-.372 1.17-.26-.39.093-.78.148-1.17.26 1.41 9.092-4.24 30.568 7.23 33.767v.037c5.32 2.361 13.33-3.124 17.35-7.233 18.87-14.28 42.22-24.86 57.56-43.677 3.61-4.128 5.94-9.446 8.61-14.15.84 2.156 1.75 4.165 2.9 6.061.26-.149.45-.372.65-.558-.07.224-.26.428-.65.558 9.08 16.103 25.01 26.738 40.41 36.184-.19 0-.37-.056-.56-.167 23.52 13.722 49.81 47.21 47.66-4.965h-.02ZM381.158 145.118c-.558-23.689-4.035-47.731-5.671-71.197.353-26.533 7.326-62.327-29.75-63.833-32.856 0-103.531-12.049-121.028 21.737-12.328 29.043 1.06 61.639.13 92.021-3.254 49.943 1.078 65.748 55.131 63.35 36.425.39 98.436 8.255 101.17-42.078h.018Zm1290.572 0c-.55-23.689-4.03-47.731-5.67-71.197.36-26.533 7.33-62.327-29.75-63.833-32.85 0-103.53-12.049-121.02 21.737-12.33 29.043 1.06 61.639.13 92.021-3.26 49.943 1.07 65.748 55.13 63.35 36.42.39 98.43 8.255 101.17-42.078h.01ZM595.973 58.86c7.754-26.403-3.886-44.588-32.613-40.683-84.919 6.322-156.766-42.99-145.814 83.952-.967 47.842-5.058 96.614 59.742 89.883v-.391c22.034.075 44.068-4.76 66.567-3.867 16.344-1.953 41.632 7.047 50.798-10.655.056.075.112.149.112.242 2.194-3.458 2.938-7.698 2.993-11.77 3.422-76.254-60.374-36.816-102.936-62.438 5.263-4.481 12.477-5.95 18.892-7.81 4.909-.93 10.134-1.45 14.875-2.417 29.918-3.291 63.424 6.21 67.347-34.046h.037Zm1290.577 0c7.75-26.403-3.89-44.588-32.61-40.683-84.92 6.322-156.77-42.99-145.82 83.952-.96 47.842-5.05 96.614 59.75 89.883v-.391c22.03.075 44.06-4.76 66.56-3.867 16.35-1.953 41.63 7.047 50.8-10.655.06.075.11.149.11.242 2.2-3.458 2.94-7.698 3-11.77 3.42-76.254-60.38-36.816-102.94-62.438 5.26-4.481 12.48-5.95 18.89-7.81 4.91-.93 10.13-1.45 14.88-2.417 29.91-3.291 63.42 6.21 67.34-34.046h.04ZM821.462 163.21c-.186-3.607.893-7.326-.911-10.803 2.548-27.575-1.934-55.484.465-83.227-.223-8.404.242-16.92.446-25.176 2.046-27.035-5.485-43.082-29.917-19.393-17.813 12.495-38.322 22.517-52.156 39.642-3.719 4.295-6.025 9.539-8.665 14.336-7.047-19.226-26.106-31.368-42.283-42.152-10.096-6.136-19.598-13.072-29.062-20.23-.614-.298-.948-1.08-1.767-1.005-.613-1.04-1.636-1.301-2.733-1.376-22.61-7.865-12.123 40.888-14.02 53.123.131.019.242.075.354.112-2.585 9.892.204 25.957.557 36.76-.427 17.906-.743 35.738-1.45 53.532.391-.186.781-.372 1.172-.26-.391.093-.781.148-1.172.26 1.413 9.092-4.239 30.568 7.233 33.767v.037c5.318 2.361 13.332-3.124 17.348-7.233 18.873-14.28 42.227-24.86 57.567-43.677 3.607-4.128 5.932-9.446 8.609-14.15.837 2.156 1.748 4.165 2.901 6.061.26-.149.446-.372.651-.558-.075.224-.261.428-.651.558 9.074 16.103 25.009 26.738 40.404 36.184-.185 0-.371-.056-.557-.167 23.521 13.722 49.813 47.21 47.656-4.965h-.019Zm199.738-18.092c-.56-23.689-4.04-47.731-5.67-71.197.35-26.533 7.32-62.327-29.753-63.833-32.855 0-103.531-12.049-121.028 21.737-12.328 29.043 1.06 61.639.13 92.021-3.254 49.943 1.079 65.748 55.131 63.35 36.426.39 98.44 8.255 101.17-42.078h.02ZM1236 58.86c7.75-26.403-3.89-44.588-32.62-40.683-84.92 6.322-156.76-42.99-145.81 83.952-.97 47.842-5.06 96.614 59.74 89.883v-.391c22.03.075 44.07-4.76 66.57-3.867 16.34-1.953 41.63 7.047 50.8-10.655.05.075.11.149.11.242 2.19-3.458 2.94-7.698 2.99-11.77 3.42-76.254-60.37-36.816-102.94-62.438 5.27-4.481 12.48-5.95 18.9-7.81 4.91-.93 10.13-1.45 14.87-2.417 29.92-3.291 63.43 6.21 67.35-34.046h.04Z"/>
  </g>
  <defs>
    <clipPath id="clip0_239_3120">
      <path fill="#fff" d="M0 0h1920v200H0z"/>
    </clipPath>
  </defs>
</svg>