<svg xmlns="http://www.w3.org/2000/svg" width="383" height="426" fill="none" viewBox="0 0 383 426">
  <g clip-path="url(#clip0_701_3406)">
    <path fill="#797774" d="M300.921 58.154c-27.179-7.045-56.498-3.1-82.471 7.64-25.972 10.739-48.84 27.907-69.157 47.33-34.81 33.294-65.27 75.209-75.692 122.909-3.454 15.806-4.78 32.696-1.254 48.628a79.623 79.623 0 0 0 2.11 7.7c2.876 8.649 7.765 16.897 12.016 24.926 4.784 9.036 11.055 17.29 18.6 24.175 22.436 20.496 53.711 30.894 83.97 29.414 41.407-2.026 80.127-24.082 108.352-54.464 21.224-22.868 37.054-50.218 49.281-78.783 10.856-25.316 22.353-50.101 24.114-78.052.339-5.526.383-11.179.027-16.841-.693-11.3-2.923-22.603-7.23-32.868-10.886-25.867-35.531-44.674-62.71-51.72l.044.006ZM278.01 188.616c-8.839 8.762-17.526 17.722-25.188 27.51a182.787 182.787 0 0 0-11.871 17.093c-3.456 5.667-5.849 12.056-10.689 16.581-9.904 9.222-20.186 17.948-31.012 26.068-7.436 5.606-14.773 11.136-24.667 9.977-8.406-.962-16.103-6.553-19.644-14.221-3.318-7.17-3.029-15.487-1.46-23.21 5.339-26.05 23.905-47.043 41.739-66.73 13.516-14.891 27.235-29.978 44.23-40.73 7.499-4.752 15.844-8.655 24.68-9.241 8.879-.579 18.336 2.684 23.473 9.917 3.897 5.51 4.898 12.683 3.932 19.395-1.52 10.515-6.14 20.217-13.536 27.522l.013.069Z" opacity=".6" style="mix-blend-mode:multiply"/>
    <path fill="#FFED9A" d="M294.084 56.621c-27.178-7.045-56.497-3.1-82.451 7.664-25.967 10.696-48.859 27.883-69.176 47.306-34.81 33.294-65.27 75.21-75.692 122.909-3.454 15.806-4.78 32.697-1.254 48.628a76.371 76.371 0 0 0 2.11 7.701c2.875 8.648 7.765 16.896 12.015 24.925 4.785 9.036 11.055 17.29 18.6 24.175 22.436 20.496 53.712 30.894 83.971 29.414 41.407-2.025 80.127-24.082 108.351-54.464 21.224-22.867 37.055-50.218 49.281-78.783 10.856-25.316 22.354-50.101 24.114-78.052.339-5.525.383-11.179.027-16.841-.692-11.3-2.922-22.603-7.23-32.868-10.886-25.867-35.531-44.674-62.709-51.72l.043.006Zm-22.91 130.462c-8.839 8.762-17.527 17.722-25.189 27.51a182.977 182.977 0 0 0-11.871 17.093c-3.455 5.668-5.849 12.056-10.689 16.581-9.903 9.223-20.186 17.949-31.011 26.068-7.436 5.606-14.773 11.137-24.668 9.977-8.406-.962-16.102-6.553-19.644-14.221-3.318-7.17-3.028-15.486-1.459-23.21 5.338-26.049 23.905-47.043 41.739-66.729 13.515-14.892 27.235-29.979 44.229-40.731 7.5-4.751 15.844-8.655 24.68-9.24 8.861-.605 18.337 2.683 23.474 9.917 3.897 5.509 4.897 12.682 3.931 19.394-1.519 10.515-6.139 20.217-13.535 27.522l.013.069Z"/>
    <path fill="#FFE455" d="M245.297 119.74c-15.793.953-29.947 9.966-42.225 19.942-23.258 18.921-42.745 42.465-56.991 68.801-7.648 14.179-14.586 31.037-10.35 47.33 2.921 11.128 8.66 17.194 15.66 19.506-1.326-1.58-2.472-3.336-3.333-5.233-3.299-7.146-3.028-15.487-1.415-23.205 5.313-26.03 23.886-47.067 41.739-66.729 13.49-14.873 27.235-29.979 44.204-40.712 7.5-4.751 15.844-8.655 24.68-9.24 8.049-.534 16.608 2.119 21.964 8.045-5.417-12.129-20.295-19.343-33.971-18.554l.038.049Zm93.096 69.752c-16.938 34.958-34.178 70.342-59.474 99.821-25.315 29.454-60.068 52.84-98.752 56.163-33.971 2.902-66.607-9.48-97.63-24.59 4.335 7.06 9.597 13.531 15.694 19.087 22.46 20.477 53.711 30.893 83.97 29.413 41.407-2.025 80.151-24.1 108.351-54.463 21.224-22.868 37.055-50.218 49.281-78.783 10.812-25.322 22.354-50.101 24.114-78.053.483-7.6.396-15.432-.522-23.219-7.604 18.507-16.367 36.682-25.057 54.643l.025-.019Z"/>
    <path fill="#FFE455" d="M279.268 138.294c-5.356-5.926-13.915-8.579-21.964-8.045-8.855.561-17.18 4.489-24.68 9.24-16.994 10.753-30.733 25.815-44.204 40.712-17.878 19.681-36.426 40.699-41.739 66.73-1.569 7.723-1.859 16.04 1.415 23.204a24.223 24.223 0 0 0 3.333 5.234c-7-2.312-12.782-8.384-15.66-19.506-4.236-16.294 2.708-33.195 10.35-47.33 14.227-26.361 33.733-49.88 56.991-68.801 12.259-10.001 26.413-19.015 42.225-19.942 13.701-.808 28.554 6.426 33.971 18.554l-.038-.05Z"/>
    <path stroke="#000" stroke-miterlimit="10" stroke-width=".98" d="M294.066 56.597c-27.179-7.045-56.479-3.076-82.471 7.638-25.929 10.746-48.821 27.933-69.138 47.356-34.81 33.294-65.27 75.21-75.692 122.909-4.025 18.403-5.17 38.26.856 56.329 2.876 8.648 7.765 16.896 12.016 24.925 4.784 9.036 11.054 17.29 18.6 24.175 22.435 20.496 53.711 30.894 83.97 29.414 41.407-2.025 80.127-24.082 108.352-54.464 21.224-22.867 37.054-50.218 49.281-78.783 10.855-25.316 22.353-50.101 24.113-78.052 1.08-16.545-.707-34.318-7.178-49.728-10.886-25.867-35.531-44.674-62.709-51.72Zm-13.307 83.544c3.897 5.509 4.916 12.708 3.951 19.42-1.52 10.515-6.14 20.217-13.536 27.522-8.839 8.762-17.527 17.722-25.188 27.51-4.295 5.445-8.25 11.18-11.872 17.093-3.455 5.667-5.848 12.056-10.688 16.581-9.904 9.223-20.187 17.949-31.012 26.068-7.455 5.581-14.773 11.137-24.668 9.977-8.406-.962-16.102-6.553-19.644-14.221-3.318-7.17-3.028-15.486-1.459-23.21 5.338-26.049 23.886-47.067 41.739-66.729 13.515-14.892 27.235-29.979 44.229-40.731 7.5-4.751 15.844-8.655 24.68-9.24 8.861-.605 18.337 2.683 23.474 9.916l-.006.044Z"/>
  </g>
  <defs>
    <clipPath id="clip0_701_3406">
      <path fill="#fff" d="M0 216.22 282.816 0l159.735 208.935-282.816 216.22z"/>
    </clipPath>
  </defs>
</svg>