<svg xmlns="http://www.w3.org/2000/svg" width="338" height="342" fill="none" viewBox="0 0 338 342">
  <g clip-path="url(#clip0_701_3414)">
    <path fill="#797774" d="M319.096 246.996c-2.283 7.479-6.082 15.85-11.96 21.224-2.956 2.689-5.857 5.505-8.889 8.139-2.679 2.304-5.123 5.013-7.982 7.04-5.707 4.121-13.009 5.302-19.793 6.331-5.297.788-10.627 1.582-15.987 1.564-2.614-.019-5.326-.227-7.795.649-4.26 1.539-7.179 5.923-9.539 9.571-2.354 3.681-7.019 5.864-10.851 7.742-9.082 4.429-19.15 6.533-29.184 6.965-14.414.596-28.765-2.187-42.76-5.707a414.098 414.098 0 0 1-20.809-5.821c-6.457-1.983-13.846-3.646-19.809-6.765-9.74-5.093-21.127-7.368-31.404-11.591-10.168-4.174-20.2-9.185-28.982-15.896-17.119-12.984-25.59-31.822-19.595-53.034 3.124-11.086 8.579-21.8 8.716-33.321.16-11.797-5.3-22.923-6.747-34.597a53.31 53.31 0 0 1-.39-9.122 53.684 53.684 0 0 1 1.661-11.53c1.215-4.857 3.04-9.507 5.342-13.928 2.769-5.312 6.263-10.334 10.228-14.956 7.582-8.88 16.903-16.444 26.542-22.459 2.588-1.61 5.769-2.906 7.984-4.931 2.812-2.53 4.946-4.848 8.366-6.762 1.026-.574 2.052-1.149 3.138-1.562.799-.3 1.576-.527 2.391-.727 3.966-1.05 8.062-1.304 12.13-1.724 2.665-.294 3.72-1.316 5.079-2.556.68-.62 1.442-1.356 2.584-2.05 1.904-1.227 4.168-1.695 6.36-2.186 2.621-.56 5.419-1.08 7.946-.128.182.072.325.117.506.19 4.549 1.714 8.28 2.982 13.008.142.651-.377 1.286-.854 1.931-1.265a17.843 17.843 0 0 1 9.202-2.849c3.781-.1 8.127 1.408 11.808.268 2.744-.852 5.383-2.775 8.161-3.837 10.252-3.903 19.84-9.604 28.213-16.742 6.285-5.37 14.085-12.484 23.312-8.26 4.465 2.034 6.633 7.262 7.151 12.145.519 4.884-.201 9.865.422 14.766.959 7.193 4.79 13.48 9.306 18.975 2.283 2.795 4.737 5.392 7.257 7.978 1.063 1.121 2.528 2.211 3.414 3.497 1.017 1.468.896 2.814 2.635 3.928 1.4.897 3.005 1.385 4.454 2.172 3.618 2.034 5.741 5.943 7.282 9.81.572 1.44 1.083 2.922 1.963 4.174.75 1.07 1.742 1.964 2.706 2.896.226 1.393 3.768 4.426 4.664 5.778 1.258 1.906 2.146 3.838 3.145 5.82 2.286 4.495 6.766 8.295 10.123 12.073 1.742 1.964 3.522 3.955 4.651 6.324 1.314 2.68 1.374 5.357 1.61 8.279.182 2.386.963 3.655 1.961 5.841l.027.166c2.416 5.086 4.462 10.403 6.366 15.674 3.937 10.931 7.07 22.127 9.316 33.501 3.286 16.547 4.542 34.375-.486 50.668l-.099.016Z" opacity=".6" style="mix-blend-mode:multiply"/>
    <path fill="#FFED9A" d="M317.643 238.011c-2.283 7.479-6.083 15.851-11.961 21.224-2.955 2.689-5.856 5.506-8.888 8.139-2.679 2.305-5.123 5.013-7.982 7.041-5.708 4.12-13.009 5.301-19.793 6.33-5.297.789-10.627 1.583-15.987 1.565-2.614-.02-5.326-.228-7.795.648-4.26 1.539-7.179 5.924-9.539 9.571-2.354 3.681-7.019 5.864-10.851 7.743-9.082 4.428-19.151 6.533-29.184 6.964-14.415.596-28.765-2.186-42.76-5.707a415.151 415.151 0 0 1-20.809-5.82c-6.457-1.984-13.846-3.647-19.809-6.765-9.74-5.093-21.127-7.369-31.405-11.592-10.167-4.173-20.2-9.185-28.981-15.896-17.12-12.984-25.59-31.822-19.595-53.034 3.124-11.085 8.579-21.8 8.716-33.321.16-11.797-5.3-22.923-6.747-34.597a53.296 53.296 0 0 1-.39-9.122 53.683 53.683 0 0 1 1.66-11.53c1.216-4.857 3.04-9.507 5.343-13.927 2.769-5.313 6.262-10.335 10.228-14.956 7.582-8.881 16.903-16.444 26.542-22.46 2.588-1.609 5.769-2.906 7.984-4.93 2.812-2.53 4.946-4.85 8.366-6.763 1.026-.574 2.052-1.148 3.138-1.562.799-.3 1.575-.527 2.39-.727 3.967-1.05 8.063-1.304 12.131-1.723 2.665-.295 3.72-1.316 5.079-2.557.679-.62 1.442-1.356 2.584-2.05 1.904-1.227 4.167-1.695 6.36-2.186 2.621-.56 5.419-1.08 7.946-.128.182.073.324.118.506.19 4.549 1.714 8.28 2.982 13.008.142.651-.377 1.286-.854 1.931-1.265a17.842 17.842 0 0 1 9.202-2.848c3.781-.101 8.127 1.407 11.808.268 2.744-.852 5.383-2.776 8.161-3.838 10.252-3.903 19.84-9.604 28.213-16.741 6.285-5.371 14.085-12.484 23.312-8.26 4.465 2.033 6.633 7.262 7.151 12.145.519 4.883-.202 9.864.421 14.765.96 7.193 4.791 13.48 9.307 18.975 2.283 2.795 4.737 5.392 7.257 7.978 1.063 1.121 2.528 2.211 3.414 3.497 1.017 1.468.896 2.815 2.635 3.928 1.4.897 3.004 1.386 4.454 2.172 3.617 2.034 5.741 5.944 7.282 9.811.572 1.438 1.083 2.92 1.963 4.173.75 1.07 1.742 1.964 2.706 2.897.226 1.392 3.767 4.426 4.664 5.778 1.258 1.906 2.146 3.837 3.145 5.819 2.286 4.495 6.766 8.296 10.123 12.073 1.742 1.964 3.521 3.956 4.65 6.325 1.315 2.679 1.375 5.357 1.61 8.278.183 2.386.964 3.655 1.962 5.841l.027.166c2.416 5.086 4.462 10.403 6.366 15.675 3.937 10.93 7.07 22.127 9.316 33.5 3.286 16.548 4.542 34.376-.486 50.668l-.099.016Z"/>
    <path fill="#FFE664" d="M244.504 283.246c-2.976 2.353-6.778 6.098-8.839 9.289-2.354 3.68-7.014 5.897-10.851 7.742-9.083 4.428-19.151 6.533-29.184 6.965-14.415.595-28.765-2.187-42.76-5.707a416.23 416.23 0 0 1-20.809-5.821c-6.458-1.984-13.846-3.647-19.809-6.765-9.74-5.093-21.132-7.401-31.41-11.625-10.168-4.173-20.2-9.185-28.982-15.896-17.08-12.956-25.551-31.794-19.556-53.006 1.576-5.562 7.818-16.437 8.541-37.545 12.103 3.35 21.668 31.469 32.87 37.006 14.695 7.218 32.897 11.385 40.927 18.694 1.278 1.188 2.882 1.677 4.109 2.975 1.425 1.471 2.91 2.898 4.478 4.209a57.33 57.33 0 0 0 10.19 6.824c7.264 3.826 15.299 6.133 23.452 6.652 3.906.253 7.923.352 11.739-.368 4.208-.816 7.49-2.742 11.595-3.984 8.271-2.528 17.31-4.704 25.933-5.894 2.488-.335 5.032-.542 7.544-.098.803.143 2.459.317 3.067.933.696.738.541 2.09.73 3.046 1.022 5.482 3.951 10.18 6.032 15.287 2.777 6.899 7.959 13.58 11.927 20.082.972 1.612 2.829 2.401 3.956 3.919 1.029 1.331 4.324 1.581 5.066 3.026l.044.06Z"/>
    <path fill="#000" d="M247.021 282.669c-2.423.528-4.984-.214-7.059-1.512-2.107-1.292-3.877-3.013-5.498-4.86-3.11-3.716-5.889-7.689-8.391-11.843-2.503-4.154-4.922-8.424-6.482-13.037-1.593-4.607-2.667-9.366-2.944-14.221l.298-.048c1.874 4.46 3.539 8.886 5.457 13.202 1.886 4.322 3.578 8.709 5.75 12.917 2.2 4.169 4.692 8.257 7.477 12.059 1.389 1.885 2.934 3.676 4.815 5.039 1.849 1.368 4.134 2.291 6.491 1.978l.048.299.038.027ZM39.564 169.451c1.814.319 3.5 1.101 4.921 2.13 1.399 1.101 2.714 2.317 3.996 3.538 2.565 2.443 4.87 5.166 7.076 7.906 4.385 5.516 8.3 11.279 12.713 16.553 4.374 5.247 9.295 10.098 15.299 12.632 6.014 2.599 12.962 3.211 19.914 5.319 3.457 1.04 6.949 2.72 9.839 5.077 2.912 2.284 5.278 4.964 7.678 7.433a55.549 55.549 0 0 0 7.615 6.628c2.81 1.859 5.707 3.636 8.778 5.01 6.151 2.816 12.901 4.514 19.734 4.838 6.832.528 13.754-.489 20.394-2.618-6.352 2.865-13.374 4.306-20.445 4.395-7.077.056-14.153-1.351-20.812-3.949-6.653-2.564-12.726-6.787-17.812-11.817-2.498-2.453-4.87-4.961-7.492-6.919-2.595-1.996-5.544-3.254-8.721-4.237-6.33-2.038-13.493-2.513-20.303-5.63-6.821-3.184-11.938-8.616-16.228-14.182-4.329-5.594-8.034-11.527-12.121-17.092-2.041-2.766-4.176-5.483-6.57-7.919-2.377-2.542-5.193-4.229-7.525-7.118l.072.022Z"/>
    <path fill="#FFF5CC" d="M317.643 238.011c-2.283 7.48-6.083 15.851-11.961 21.224-2.955 2.689-5.856 5.506-8.888 8.139-2.679 2.305-5.123 5.013-7.982 7.041-5.708 4.12-13.009 5.301-19.793 6.33-4.532-4.54-8.221-11.632-9.995-17.776-1.81-6.375 4.196-12.211 2.375-18.653-1.187-4.196-5.452-6.671-7.842-10.333-2.066-3.136-2.688-6.981-3.189-10.711-.535-3.724-1.091-7.58-3.064-10.765-2.426-3.894-5.143-3.081-8.525-4.711-3.158-1.497-3.429-5.059-5.111-8.121-2.113-3.843-6.692-6.165-11.042-5.597-8.204 1.054-10.122 10.788-14.542 16.368-4.416 5.613-10.572 10.521-17.688 12.012-4.423.953-13.701 1.025-17.054-2.516-1.753-1.826-2.297-4.561-3.989-6.431-1.567-1.72-3.897-2.5-5.862-3.747-7.063-4.471-1.694-16.77-9.045-22.182-4.926-3.626-12.095-1.412-16.789 2.477-4.732 3.861-8.178 9.181-13.173 12.677-2.743 1.906-5.134 3.892-8.514 1.649-1.975-1.314-3.232-3.424-4.384-5.517-1.147-2.06-2.31-4.22-4.208-5.682-3.718-2.869-8.608-2.078-12.963-2.802-5.862-1.026-7.053-2.942-7.122-8.817-.078-7.404 3.519-17.239 1.012-24.352-2.022-5.797-9.257-10.071-15.105-10.384-5.92-.335-11.936 2.713-15.199 7.697-1.905 2.894-3.705 6.859-7.138 6.802-2.245-.045-4.009-1.937-5.322-3.766-7.16-9.899-10.53-22.35-9.752-34.519.82-12.754 7.2-22.564 15.358-32.082 7.582-8.88 16.903-16.444 26.542-22.459 2.588-1.61 5.769-2.906 7.984-4.931 2.812-2.53 4.946-4.849 8.366-6.762 1.026-.575 2.052-1.149 3.138-1.562.799-.3 1.576-.527 2.39-.727 3.967-1.05 8.063-1.304 12.131-1.724 2.665-.294 3.72-1.316 5.079-2.556.679-.62 1.442-1.356 2.584-2.05 1.904-1.227 4.167-1.695 6.36-2.186 2.621-.56 5.419-1.08 7.946-.128.182.072.324.117.506.19 4.549 1.714 8.28 2.982 13.008.142.651-.377 1.286-.854 1.931-1.265a17.843 17.843 0 0 1 9.202-2.849c3.781-.1 8.127 1.408 11.808.268 2.744-.852 5.383-2.775 8.161-3.837 10.252-3.903 19.84-9.604 28.213-16.742 6.285-5.37 14.085-12.484 23.312-8.26 4.465 2.033 6.633 7.262 7.151 12.146.519 4.883-.201 9.864.421 14.764.96 7.194 4.791 13.48 9.307 18.976 2.283 2.795 4.737 5.392 7.257 7.978 1.063 1.121 2.528 2.21 3.414 3.496 1.017 1.469.896 2.816 2.635 3.929 1.4.896 3.004 1.385 4.454 2.172 3.617 2.034 5.741 5.943 7.282 9.81.572 1.44 1.083 2.921 1.963 4.174.75 1.07 1.742 1.964 2.706 2.896.226 1.393 3.767 4.426 4.664 5.778 1.258 1.906 2.146 3.838 3.145 5.82 2.286 4.495 6.766 8.295 10.123 12.073 1.742 1.964 3.522 3.955 4.65 6.324 1.315 2.679 1.375 5.357 1.61 8.279.183 2.386.964 3.655 1.962 5.841l.027.166c2.416 5.086 4.462 10.403 6.366 15.674 3.937 10.931 7.07 22.127 9.316 33.501 3.286 16.547 4.542 34.375-.486 50.668l-.132.021Z"/>
    <path fill="#fff" d="M173.587 198.81c1.534 2.78 3.079 5.626 5.304 7.851 2.257 2.221 5.332 3.833 8.475 3.563 3.045-.254 5.821-2.37 7.066-5.157 1.206-2.815.891-6.234-.777-8.788-3.63-5.673-12.522-6.991-14.674-13.379-.712-2.096-.504-4.375-.759-6.579-.898-8.7-12.418-6.769-13.434.574-.948 6.719 5.823 16.511 8.809 21.981l-.01-.066ZM61.634 100.256C71.05 87.2 84.853 77.79 99.627 71.454c14.78-6.302 30.638-9.717 46.459-12.513 10.381-1.85 20.937-3.454 30.759-7.288 7.91-3.082 15.187-7.559 22.404-11.992 6.88-4.208 13.755-8.45 20.635-12.658-5.815 9.956-18.209 14.035-25.67 22.828-3.644 4.298-6.016 9.546-9.864 13.639-6.108 6.465-15.062 9.171-23.618 11.61-14.97 4.291-29.944 8.55-44.914 12.842-12.705 3.62-26.056 7.65-35.22 17.228-8.496 8.893-12.13 21.013-19.1 30.952-1.65 2.376-3.487 4.646-5.609 6.622-2.89 2.679-4.178 4.146-5.464-.035-1.916-6.188-.427-14.593 1.057-20.719 1.926-7.796 5.408-15.197 10.119-21.709l.033-.005Z"/>
    <path stroke="#000" stroke-miterlimit="10" stroke-width=".88" d="M317.643 238.011c-2.283 7.479-6.083 15.851-11.961 21.224-2.955 2.689-5.856 5.506-8.888 8.139-2.679 2.305-5.123 5.013-7.982 7.041-5.708 4.12-13.009 5.301-19.793 6.33-5.297.789-10.627 1.583-15.987 1.565-2.614-.02-5.326-.228-7.795.648-4.26 1.539-7.179 5.924-9.539 9.571-2.354 3.681-7.019 5.864-10.851 7.743-9.082 4.428-19.151 6.532-29.184 6.964-14.415.596-28.765-2.186-42.76-5.707a415.151 415.151 0 0 1-20.809-5.82c-6.457-1.984-13.846-3.647-19.809-6.765-9.74-5.093-21.127-7.369-31.405-11.592-10.167-4.173-20.2-9.185-28.981-15.896-17.12-12.984-25.59-31.822-19.595-53.034 3.124-11.085 8.579-21.8 8.716-33.321.16-11.797-5.3-22.923-6.747-34.597a53.296 53.296 0 0 1-.39-9.122 53.683 53.683 0 0 1 1.66-11.53c1.216-4.857 3.04-9.507 5.343-13.927 2.769-5.313 6.262-10.335 10.228-14.956 7.582-8.881 16.903-16.444 26.542-22.46 2.588-1.609 5.769-2.906 7.984-4.93 2.812-2.53 4.946-4.85 8.366-6.763 1.026-.574 2.052-1.148 3.138-1.562.799-.3 1.575-.527 2.39-.727 3.967-1.05 8.063-1.304 12.131-1.723 2.665-.295 3.72-1.316 5.079-2.557.679-.62 1.442-1.356 2.584-2.05 1.904-1.227 4.167-1.695 6.36-2.186 2.621-.56 5.419-1.08 7.946-.128.182.073.324.118.506.19 4.549 1.714 8.28 2.982 13.008.142.651-.377 1.286-.854 1.931-1.265a17.842 17.842 0 0 1 9.202-2.848c3.781-.101 8.127 1.407 11.808.268 2.744-.852 5.383-2.776 8.161-3.838 10.252-3.903 19.84-9.604 28.213-16.741 6.285-5.371 14.085-12.484 23.312-8.26 4.465 2.033 6.633 7.262 7.151 12.145.519 4.883-.202 9.864.421 14.765.96 7.193 4.791 13.48 9.307 18.975 2.283 2.795 4.737 5.392 7.257 7.978 1.063 1.121 2.528 2.211 3.414 3.497 1.017 1.468.896 2.815 2.635 3.928 1.4.897 3.004 1.386 4.454 2.172 3.617 2.034 5.741 5.944 7.282 9.811.572 1.438 1.083 2.92 1.963 4.173.75 1.07 1.742 1.964 2.706 2.897.226 1.392 3.767 4.426 4.664 5.778 1.258 1.906 2.146 3.837 3.145 5.819 2.286 4.495 6.766 8.296 10.123 12.073 1.742 1.964 3.521 3.956 4.65 6.325 1.315 2.679 1.375 5.357 1.61 8.278.183 2.386.964 3.655 1.962 5.841l.027.166c2.416 5.086 4.462 10.403 6.366 15.675 3.937 10.93 7.07 22.127 9.316 33.5 3.286 16.548 4.542 34.376-.486 50.668l-.099.016Z"/>
    <path stroke="#000" stroke-miterlimit="10" stroke-width="3" d="M317.643 238.011c-2.283 7.48-6.083 15.851-11.961 21.224-2.955 2.689-5.856 5.506-8.888 8.139-2.679 2.305-5.123 5.013-7.982 7.041-5.708 4.12-13.009 5.301-19.793 6.33-4.532-4.54-8.221-11.632-9.995-17.776-1.81-6.375 4.196-12.211 2.375-18.653-1.187-4.196-5.452-6.671-7.842-10.333-2.066-3.136-2.688-6.981-3.189-10.711-.535-3.724-1.091-7.58-3.064-10.765-2.426-3.894-5.143-3.081-8.525-4.711-3.158-1.497-3.429-5.059-5.111-8.121-2.113-3.843-6.692-6.165-11.042-5.597-8.204 1.054-10.122 10.788-14.542 16.368-4.416 5.613-10.572 10.521-17.688 12.012-4.423.953-13.701 1.025-17.054-2.516-1.753-1.826-2.297-4.561-3.989-6.431-1.567-1.72-3.897-2.5-5.862-3.747-7.063-4.471-1.694-16.77-9.045-22.182-4.926-3.626-12.095-1.412-16.789 2.477-4.732 3.861-8.178 9.181-13.173 12.677-2.743 1.906-5.134 3.892-8.514 1.649-1.975-1.314-3.232-3.424-4.384-5.517-1.147-2.06-2.31-4.22-4.208-5.682-3.718-2.869-8.608-2.078-12.963-2.802-5.862-1.026-7.053-2.942-7.122-8.817-.078-7.404 3.519-17.239 1.012-24.352-2.022-5.797-9.257-10.071-15.105-10.384-5.92-.335-11.936 2.713-15.199 7.697-1.905 2.894-3.705 6.859-7.138 6.802-2.245-.045-4.009-1.937-5.322-3.766-7.16-9.899-10.53-22.35-9.752-34.519.82-12.754 7.2-22.564 15.358-32.082 7.582-8.88 16.903-16.444 26.542-22.459 2.588-1.61 5.769-2.906 7.984-4.931 2.812-2.53 4.946-4.849 8.366-6.762 1.026-.575 2.052-1.149 3.138-1.562.799-.3 1.576-.527 2.39-.727 3.967-1.05 8.063-1.304 12.131-1.724 2.665-.294 3.72-1.316 5.079-2.556.679-.62 1.442-1.356 2.584-2.05 1.904-1.227 4.167-1.695 6.36-2.186 2.621-.56 5.419-1.08 7.946-.128.182.072.324.117.506.19 4.549 1.714 8.28 2.982 13.008.142.651-.377 1.286-.854 1.931-1.265a17.843 17.843 0 0 1 9.202-2.849c3.781-.1 8.127 1.408 11.808.268 2.744-.852 5.383-2.775 8.161-3.837 10.252-3.903 19.84-9.604 28.213-16.742 6.285-5.37 14.085-12.484 23.312-8.26 4.465 2.033 6.633 7.262 7.151 12.146.519 4.883-.201 9.864.421 14.764.96 7.194 4.791 13.48 9.307 18.976 2.283 2.795 4.737 5.392 7.257 7.978 1.063 1.121 2.528 2.21 3.414 3.496 1.017 1.469.896 2.816 2.635 3.929 1.4.896 3.004 1.385 4.454 2.172 3.617 2.034 5.741 5.943 7.282 9.81.572 1.44 1.083 2.921 1.963 4.174.75 1.07 1.742 1.964 2.706 2.896.226 1.393 3.767 4.426 4.664 5.778 1.258 1.906 2.146 3.838 3.145 5.82 2.286 4.495 6.766 8.295 10.123 12.073 1.742 1.964 3.522 3.955 4.65 6.324 1.315 2.679 1.375 5.357 1.61 8.279.183 2.386.964 3.655 1.962 5.841l.027.166c2.416 5.086 4.462 10.403 6.366 15.674 3.937 10.931 7.07 22.127 9.316 33.501 3.286 16.547 4.542 34.375-.486 50.668l-.132.021Z"/>
  </g>
  <defs>
    <clipPath id="clip0_701_3414">
      <path fill="#fff" d="M0 46.808 289.46 0l47.576 294.207-289.462 46.808z"/>
    </clipPath>
  </defs>
</svg>