<svg xmlns="http://www.w3.org/2000/svg" width="271" height="237" fill="none" viewBox="0 0 271 237">
  <g clip-path="url(#clip0_701_3391)">
    <path fill="#797774" d="M270.439 122.859c.062-.801.156-1.633.218-2.434.093-1.232.156-2.433.218-3.635.031-.678.062-1.355.062-2.033 0-.647.031-1.294.062-1.941v-2.31c0-.617 0-1.233-.062-1.849 0-.863-.062-1.756-.093-2.619 0-.492-.063-.955-.094-1.447a83.347 83.347 0 0 0-.249-2.927 13.43 13.43 0 0 0-.124-1.109 39.24 39.24 0 0 0-.249-2.003c-.093-.862-.218-1.725-.342-2.588a57.76 57.76 0 0 0-.561-3.204c0-.123-.062-.246-.062-.338-1.867-9.859-5.259-19.378-10.239-28.158-.56-.986-1.151-1.972-1.742-2.958l-.032-.03c-.311-.493-.622-1.017-.964-1.51-1.587-2.403-3.268-4.806-5.104-7.178a117.85 117.85 0 0 0-10.394-11.738 135.128 135.128 0 0 0-8.528-7.732 72.833 72.833 0 0 0-3.018-2.403 100.323 100.323 0 0 0-3.081-2.31c-1.027-.74-2.085-1.51-3.143-2.219-4.762-3.235-9.71-6.1-14.752-8.472-1.12-.524-2.24-1.016-3.392-1.51-1.027-.43-2.054-.831-3.05-1.232-1.245-.462-2.489-.924-3.765-1.324a72.023 72.023 0 0 0-3.424-1.017 61.476 61.476 0 0 0-5.135-1.17c-2.894-.524-5.788-1.048-8.713-1.48-.934-.123-1.868-.277-2.832-.4-1.494-.216-2.988-.4-4.513-.555-1.245-.154-2.49-.277-3.734-.4h-.249c-.467-.062-.934-.092-1.37-.123a123.806 123.806 0 0 0-3.236-.247c-.218 0-.436 0-.654-.061-1.462-.093-2.925-.185-4.357-.278l-2.24-.092c-1.619-.062-3.237-.123-4.855-.123h-6.473c-.903 0-1.805 0-2.739.061-.747 0-1.525.062-2.272.093-.311 0-.653 0-.996.03-.715.031-1.431.093-2.147.124-1.992.123-3.952.246-5.944.462-.716.062-1.463.123-2.21.216-.56.061-1.151.123-1.742.184-.934.093-1.837.216-2.739.34-.591.061-1.151.153-1.712.246l-1.867.277c-.685.092-1.369.216-2.054.308-.591.093-1.214.185-1.805.308-2.614.431-5.197.955-7.749 1.54-.84.185-1.68.37-2.521.586-.435.092-.84.185-1.276.308a283.77 283.77 0 0 0-5.477 1.448 49.906 49.906 0 0 0-3.05.924c-1.213.37-2.427.74-3.64 1.17l-1.681.555c-.25.093-.498.154-.747.247-.405.154-.81.277-1.214.431a136.25 136.25 0 0 0-11.826 4.898 2.94 2.94 0 0 0-.436.216 2.28 2.28 0 0 1-.249.093 124.82 124.82 0 0 0-7.842 4.005c-.031 0-.093.061-.156.092-.902.493-1.805.986-2.676 1.51-.778.43-1.556.893-2.334 1.355a131.603 131.603 0 0 0-3.486 2.157 99.009 99.009 0 0 0-2.365 1.54c-.871.585-1.774 1.17-2.645 1.787a92.96 92.96 0 0 0-2.863 2.064c-.405.277-.81.585-1.183.893-.622.462-1.245.924-1.867 1.417-.405.308-.778.616-1.151.924-.498.37-.965.74-1.401 1.11-.498.4-.996.831-1.525 1.232a138.198 138.198 0 0 0-5.01 4.436c-.498.462-.965.924-1.463 1.386-.436.4-.871.801-1.245 1.233-.498.493-.996.955-1.462 1.448-.25.246-.498.492-.747.77-.405.37-.747.77-1.12 1.14l-.094.123a7.7 7.7 0 0 0-.498.524l-.062.061s-.187.185-.25.278c-.528.554-1.026 1.14-1.555 1.694-.125.123-.218.246-.343.37a74.21 74.21 0 0 0-2.023 2.372c-.715.831-1.4 1.663-2.053 2.495l-1.494 1.941c-.25.308-.498.647-.747.955-.53.709-1.058 1.417-1.587 2.157 0 .03-.031.061-.063.092-1.524 2.126-3.018 4.313-4.388 6.531-.342.585-.715 1.17-1.058 1.756a64.863 64.863 0 0 0-1.151 1.94 3.362 3.362 0 0 0-.187.34c-.529.924-1.027 1.848-1.525 2.773A47.98 47.98 0 0 0 15 82.47c-2.334 4.713-4.356 9.581-5.975 14.572-.155.431-.31.862-.435 1.263-.187.585-.374 1.17-.53 1.756-.093.37-.217.708-.31 1.078-.125.431-.25.832-.343 1.263-.156.586-.311 1.202-.467 1.787-.218.832-.404 1.633-.591 2.434-.125.554-.28 1.14-.405 1.725l-.373 1.756c-.156.739-.28 1.479-.405 2.218-.28 1.479-.498 2.958-.715 4.436-.094.74-.218 1.479-.28 2.218-.125 1.11-.25 2.219-.343 3.297-.155 1.725-.28 3.45-.311 5.175a26.537 26.537 0 0 0-.062 1.572c-.031 1.294-.063 2.587-.031 3.851 0 .677 0 1.355.03 2.002 0 .77.063 1.54.094 2.311.093 1.817.249 3.604.405 5.391.062.801.155 1.571.249 2.341.062.678.186 1.325.249 2.003.093.677.186 1.324.31 1.971.125.678.219 1.356.343 2.034l.374 2.033c.155.678.28 1.355.435 2.033.311 1.356.654 2.68.996 4.005.53 1.91 1.09 3.82 1.743 5.699a104.53 104.53 0 0 0 2.8 7.333c.094.246.219.492.312.739.124.277.249.585.405.893.062.154.124.278.186.432.063.154.125.308.218.462 0 .031 0 .061.062.123.187.4.374.832.592 1.201.093.185.155.37.28.555.28.585.56 1.14.871 1.694.342.678.716 1.325 1.058 2.003.498.924 1.027 1.817 1.556 2.711a118 118 0 0 0 3.392 5.268c4.98 7.209 10.924 13.709 17.584 19.408 2.054 1.787 4.201 3.482 6.38 5.114.84.647 1.711 1.233 2.551 1.849a119.574 119.574 0 0 0 7.967 5.083 123.686 123.686 0 0 0 15.996 7.825h.031a115.635 115.635 0 0 0 10.55 3.728 90.82 90.82 0 0 0 5.664 1.571c3.081.77 6.193 1.448 9.306 2.002 2.116.37 4.294.709 6.442.955.093 0 .155.031.217.031 16.152 2.064 33.113 1.479 49.763-1.54h.124c36.816-6.716 72.2-25.324 94.452-53.605a113.794 113.794 0 0 0 4.294-5.853 110.98 110.98 0 0 0 4.793-7.763c.591-1.079 1.183-2.157 1.743-3.235.56-1.078 1.089-2.188 1.618-3.297a110.472 110.472 0 0 0 1.525-3.358c.498-1.109.965-2.249 1.431-3.388a119.834 119.834 0 0 0 3.05-8.719c.343-1.17.685-2.372 1.027-3.543a110.139 110.139 0 0 0 2.957-14.51c.187-1.355.342-2.68.498-4.036l.093.031ZM149.006 94.332c13.133-2.496 27.946 1.725 38.434 10.289l.124.093a48.102 48.102 0 0 1 4.482 4.22c0 .031-.062.062-.094.124-.249.308-.466.585-.747.862-4.605 5.176-10.456 8.996-16.898 11.645a51.962 51.962 0 0 1-4.357 1.571 68.293 68.293 0 0 1-11.328 2.527 90.967 90.967 0 0 1-6.442.585 67.26 67.26 0 0 1-4.326.123c-1.431 0-2.863 0-4.326-.061-7.282-.247-14.595-1.14-21.815-2.126l-6.536-.924c5.478-14.202 18.766-26.032 33.829-28.898v-.03Z" opacity=".6" style="mix-blend-mode:multiply"/>
    <path fill="#FFED9A" d="M268.323 117.16c.062-.801.155-1.633.218-2.434.093-1.201.155-2.434.218-3.635.031-.678.062-1.356.062-2.033 0-.647.031-1.294.062-1.941v-2.311c0-.616 0-1.232-.062-1.848 0-.863-.062-1.756-.094-2.619 0-.493-.062-.955-.093-1.448a85.872 85.872 0 0 0-.249-2.927c-.031-.37-.062-.739-.124-1.108a40.434 40.434 0 0 0-.249-2.003 73.92 73.92 0 0 0-.343-2.588 56.835 56.835 0 0 0-.56-3.204c0-.123-.062-.246-.062-.339-1.867-9.858-5.26-19.377-10.239-28.157-.56-.986-1.151-1.972-1.743-2.958 0 0-.031-.03-.031-.062-.311-.492-.622-.985-.964-1.51-1.588-2.402-3.268-4.805-5.104-7.177a117.736 117.736 0 0 0-10.395-11.738 134.833 134.833 0 0 0-8.527-7.732 73.505 73.505 0 0 0-3.018-2.403 100.323 100.323 0 0 0-3.081-2.31c-1.027-.74-2.086-1.51-3.144-2.219-4.761-3.235-9.709-6.1-14.751-8.472a112.78 112.78 0 0 0-3.392-1.51c-1.027-.43-2.054-.831-3.05-1.232-1.245-.462-2.49-.924-3.766-1.325a71.628 71.628 0 0 0-3.423-1.016 61.5 61.5 0 0 0-5.135-1.17 205.328 205.328 0 0 0-8.714-1.48c-.933-.123-1.867-.277-2.832-.4-1.493-.216-2.987-.4-4.512-.555-1.245-.154-2.49-.277-3.735-.4h-.249c-.466-.062-.933-.093-1.369-.123a122.969 122.969 0 0 0-3.236-.247c-.218 0-.436 0-.654-.061a3243.43 3243.43 0 0 1-4.357-.278l-2.241-.092c-1.618-.062-3.236-.123-4.854-.123h-6.474c-.902 0-1.805 0-2.738.061-.747 0-1.525.062-2.272.093-.311 0-.654 0-.996.03-.716.031-1.431.093-2.147.124-1.992.123-3.953.246-5.944.462-.716.061-1.463.123-2.21.216-.56.061-1.151.123-1.743.184-.933.093-1.836.216-2.738.34-.56.06-1.152.153-1.712.246l-1.867.277c-.685.092-1.369.216-2.054.308-.591.092-1.214.185-1.805.308a127.55 127.55 0 0 0-7.749 1.54c-.84.185-1.681.37-2.521.586-.436.092-.84.185-1.276.308-1.836.462-3.672.955-5.477 1.448a49.807 49.807 0 0 0-3.05.924c-1.214.37-2.427.74-3.641 1.17l-1.68.555c-.25.093-.499.154-.748.247-.404.154-.809.277-1.213.431a136.237 136.237 0 0 0-11.826 4.898 2.94 2.94 0 0 0-.436.216c-.062.03-.156.062-.249.092a124.82 124.82 0 0 0-7.842 4.005c-.031 0-.094.062-.156.093-.902.493-1.805.986-2.676 1.51-.778.43-1.556.893-2.334 1.355a131.603 131.603 0 0 0-3.486 2.156 105.61 105.61 0 0 0-2.365 1.54c-.871.586-1.774 1.171-2.645 1.788a96.247 96.247 0 0 0-2.863 2.064c-.405.277-.81.585-1.183.893-.622.462-1.245.924-1.867 1.417-.405.308-.778.616-1.152.924a27.5 27.5 0 0 0-1.4 1.11c-.498.4-.996.831-1.525 1.232a138.198 138.198 0 0 0-5.01 4.436c-.498.462-.965.924-1.463 1.386-.436.4-.872.801-1.245 1.233-.498.492-.996.955-1.463 1.448-.249.246-.498.492-.747.77-.404.37-.746.77-1.12 1.14l-.093.123a7.7 7.7 0 0 0-.498.523l-.063.062s-.186.185-.248.277c-.53.555-1.027 1.14-1.556 1.695-.125.123-.218.246-.343.37-.684.77-1.37 1.57-2.023 2.372-.715.831-1.4 1.663-2.054 2.495l-1.494 1.94c-.248.309-.497.648-.746.956a128.51 128.51 0 0 0-1.587 2.156c0 .031-.032.062-.063.093-1.525 2.126-3.018 4.313-4.388 6.531-.342.585-.716 1.17-1.058 1.756a64.863 64.863 0 0 0-1.151 1.94 3.362 3.362 0 0 0-.187.34c-.53.924-1.027 1.848-1.525 2.772a47.98 47.98 0 0 0-1.463 2.804c-2.334 4.713-4.357 9.58-5.975 14.572-.156.43-.311.862-.436 1.263-.186.585-.373 1.17-.529 1.756-.093.37-.217.708-.31 1.078-.125.431-.25.832-.343 1.263-.156.585-.311 1.202-.467 1.787a87.926 87.926 0 0 0-.591 2.434c-.125.554-.28 1.14-.405 1.725l-.373 1.756c-.156.739-.28 1.479-.405 2.218-.28 1.479-.498 2.958-.716 4.436-.093.74-.218 1.479-.28 2.218a131.921 131.921 0 0 0-.342 3.297c-.156 1.725-.28 3.45-.311 5.175-.031.524-.063 1.048-.063 1.572-.03 1.293-.062 2.587-.03 3.85 0 .678 0 1.356.03 2.003 0 .77.063 1.54.094 2.31.093 1.818.249 3.605.404 5.392.063.801.156 1.571.25 2.341.062.678.186 1.325.248 2.003.094.677.187 1.324.312 1.971.124.678.217 1.356.342 2.033l.373 2.034c.156.678.28 1.355.436 2.033.311 1.356.654 2.68.996 4.005.529 1.91 1.09 3.82 1.743 5.699a104.86 104.86 0 0 0 2.8 7.332c.094.247.218.493.312.74.124.277.249.585.404.893.063.154.125.277.187.432.062.154.125.308.218.462 0 .03 0 .061.062.123.187.4.374.832.591 1.201.094.185.156.37.28.555.28.585.56 1.14.872 1.694.342.647.716 1.325 1.058 2.003.498.924 1.027 1.817 1.556 2.711a118 118 0 0 0 3.392 5.268c4.98 7.209 10.924 13.709 17.583 19.408 2.054 1.787 4.202 3.482 6.38 5.114.84.647 1.712 1.233 2.552 1.849a119.574 119.574 0 0 0 7.967 5.083 123.686 123.686 0 0 0 15.996 7.825h.031a115.938 115.938 0 0 0 10.55 3.728 90.82 90.82 0 0 0 5.664 1.571c3.081.77 6.162 1.448 9.305 2.002 2.117.37 4.295.709 6.442.955.094 0 .156.031.218.031 16.152 2.064 33.113 1.479 49.762-1.54h.125c36.816-6.716 72.2-25.324 94.451-53.605a113.222 113.222 0 0 0 4.295-5.853 110.768 110.768 0 0 0 4.793-7.764 170.362 170.362 0 0 0 1.743-3.234c.56-1.079 1.089-2.188 1.618-3.297a110.472 110.472 0 0 0 1.525-3.358c.498-1.14.964-2.249 1.431-3.388a120.001 120.001 0 0 0 3.05-8.719c.342-1.171.685-2.372 1.027-3.543a110.139 110.139 0 0 0 2.957-14.51c.186-1.355.342-2.68.498-4.036l.093.062ZM146.889 88.632c13.133-2.495 27.947 1.726 38.435 10.29l.124.093a48.166 48.166 0 0 1 4.482 4.22c0 .031-.063.062-.094.123-.249.308-.467.586-.747.863-4.606 5.175-10.456 8.996-16.898 11.645a52.319 52.319 0 0 1-4.357 1.571 68.212 68.212 0 0 1-11.328 2.526 91.025 91.025 0 0 1-6.442.586 67.26 67.26 0 0 1-4.326.123c-1.432 0-2.863 0-4.326-.062-7.282-.246-14.595-1.14-21.815-2.125l-6.536-.925c5.477-14.202 18.766-26.032 33.828-28.897v-.03Z"/>
    <path fill="#FFE455" d="M268.323 117.16c.062-.801.156-1.633.218-2.434.093-1.201.156-2.434.218-3.635.031-.678.062-1.356.062-2.033 0-.647.031-1.294.062-1.941v-2.311c0-.616 0-1.232-.062-1.848 0-.863-.062-1.756-.093-2.619 0-.493-.062-.955-.094-1.448a83.365 83.365 0 0 0-.249-2.927c-.031-.37-.062-.739-.124-1.109a39.273 39.273 0 0 0-.249-2.002c-.093-.863-.218-1.725-.342-2.588a57.757 57.757 0 0 0-.561-3.204c0-.123-.062-.246-.062-.339-2.676 9.859-6.099 19.47-10.581 28.713-6.878 14.202-16.432 26.987-27.791 37.923-4.077 3.944-8.433 7.61-12.946 11.06-14.969 11.337-32.179 19.902-50.322 25.016-6.691 1.879-13.507 3.327-20.384 4.22-2.459.339-4.886.586-7.345.77-2.303.185-4.606.308-6.94.401-9.274.277-18.548-.37-27.729-2.033-28.444-5.176-54.679-18.824-82.999-24.677a117.905 117.905 0 0 0-10.58-1.694c.093.246.217.492.31.739.125.277.25.585.405.893.062.154.125.278.187.432.062.154.124.308.217.462 0 .031 0 .061.063.123.187.401.373.832.591 1.201.093.185.156.37.28.555.28.585.56 1.14.872 1.694.342.647.715 1.325 1.058 2.003a76.656 76.656 0 0 0 1.556 2.711 117.112 117.112 0 0 0 3.392 5.268c4.98 7.209 10.923 13.709 17.583 19.409 2.054 1.786 4.201 3.481 6.38 5.113.84.647 1.712 1.233 2.552 1.849a119.574 119.574 0 0 0 7.967 5.083 123.68 123.68 0 0 0 15.996 7.825h.03a115.637 115.637 0 0 0 10.55 3.728 90.8 90.8 0 0 0 5.665 1.571c3.08.77 6.162 1.448 9.305 2.002 2.116.37 4.295.709 6.442.955.093 0 .156.031.218.031 16.152 2.064 33.112 1.479 49.762-1.54h.125c36.815-6.716 72.2-25.324 94.451-53.605a113.222 113.222 0 0 0 4.295-5.853 110.967 110.967 0 0 0 4.792-7.763 162.516 162.516 0 0 0 1.743-3.235c.56-1.078 1.089-2.187 1.618-3.297.53-1.109 1.027-2.218 1.525-3.358a111.02 111.02 0 0 0 1.432-3.388 120.794 120.794 0 0 0 3.05-8.719c.342-1.17.684-2.372 1.027-3.543a109.941 109.941 0 0 0 2.956-14.51c.187-1.355.343-2.68.498-4.036v-.061Z"/>
    <path fill="#FFF8D9" d="M256.933 82.748c-3.299-7.24-8.278-13.986-9.212-21.842-.591-4.713.342-9.365 1.276-14.017a117.862 117.862 0 0 0-10.394-11.738 126.135 126.135 0 0 0-8.527-7.702 80.894 80.894 0 0 0-3.05-2.433c-.996-.77-2.054-1.572-3.081-2.311a92.12 92.12 0 0 0-3.143-2.218c-4.731-3.266-9.71-6.13-14.752-8.472-1.12-.524-2.24-1.017-3.392-1.51-1.027-.4-2.023-.831-3.05-1.201-1.245-.462-2.52-.924-3.765-1.294-1.121-.37-2.272-.74-3.424-1.017-1.711-.462-3.423-.831-5.135-1.17a196.053 196.053 0 0 0-8.682-1.48l-3.953-.523a294.274 294.274 0 0 0-25.923-2.249c-12.511-.523-25.052.216-37.127 3.666a334.574 334.574 0 0 1-6.038 1.602c-.435.093-.871.185-1.276.278-5.664 1.355-11.39 2.587-16.805 4.744a143.335 143.335 0 0 0-11.328 5.145c-.093 0-.156.092-.249.123h-.031s-.218.123-.342.185c-4.202 2.156-8.403 4.436-12.51 6.685a.33.33 0 0 1-.157.062c-.746.43-1.493.831-2.24 1.263-10.021 5.452-19.357 14.048-27.2 22.366-.03.03-.093.061-.093.092-.218.185-.405.4-.53.585l-.28.309c-.528.523-1.026 1.109-1.524 1.694a3.262 3.262 0 0 0-.311.37h-.031c-.685.77-1.37 1.57-2.023 2.341-.716.8-1.37 1.663-2.054 2.495-.498.647-.996 1.325-1.494 1.972-.25.308-.498.616-.747.955-.53.678-1.027 1.417-1.556 2.157l-.094.092c-1.524 2.126-3.018 4.313-4.387 6.531-.25.431-.498.832-.779 1.294-.093.154-.155.308-.248.462-.405.616-.778 1.294-1.152 1.941-.062.092-.093.216-.187.308-.498.924-1.027 1.88-1.493 2.803-.56.925-1.027 1.88-1.494 2.804A109.047 109.047 0 0 0 6.97 91.498c-.125.4-.312.831-.405 1.263-.187.585-.405 1.17-.56 1.756 3.61 3.234 6.94 6.654 7.967 12.661 1.742 10.228-3.953 16.914-8.403 25.293-13.444 25.293 29.13 15.435 39.461 20.826 9.18 4.775 12.2 18.515 22.376 20.641 9.74 2.033 17.521-8.103 27.106-10.66 9.025-2.341 18.611 2.557 24.617 9.612 5.415 6.347 8.527 14.233 11.608 21.997.342.893.654 1.725.996 2.557 2.365 5.884 5.01 11.86 9.647 16.297 4.606 4.405 11.671 6.9 17.552 4.436 7.874-3.266 10.301-13.494 8.559-21.719-.467-2.372-1.245-4.652-2.085-6.932-2.148-5.638-4.949-11.06-6.567-16.913-2.241-8.133-1.183-18.299 5.944-22.921 6.006-3.881 14.16-2.341 20.509 1.017 6.38 3.327 11.826 8.226 18.299 11.306 3.703 1.756 8.06 2.773 12.075 2.465 3.05-.247 5.944-1.202 8.34-3.204 2.521-2.126 3.921-4.806 4.637-7.887 2.77-11.737-4.481-28.466 4.793-37.276 6.099-5.792 16.618-4.899 22.438-10.937 5.508-5.7 4.263-15.126.964-22.366l.094-.062Zm-67.688 20.395c-8.122 9.149-20.353 14.109-32.583 15.711-12.231 1.602-24.648.801-36.879-.924a379.271 379.271 0 0 0-6.597-.862c5.228-14.634 17.676-26.803 33.081-29.699 15.405-2.926 33.144 3.42 43.507 15.096-.187.216-.373.4-.56.647l.031.031Z"/>
    <path fill="#000" d="M258.177 82.193c-.964-2.187-2.116-4.343-3.267-6.438-2.645-4.991-5.166-9.735-5.82-15.034-.56-4.59.405-9.396 1.276-13.617l.125-.585-.343-.493c-3.236-4.128-6.753-8.133-10.518-11.861a134.635 134.635 0 0 0-8.621-7.794c-.996-.832-2.023-1.633-3.05-2.434-1.027-.832-2.085-1.602-3.112-2.372-1.058-.74-2.116-1.51-3.174-2.25-4.98-3.357-9.99-6.253-14.969-8.594-1.152-.493-2.272-1.017-3.455-1.54-1.027-.401-2.054-.863-3.081-1.202-1.276-.462-2.52-.955-3.796-1.356-1.183-.4-2.334-.677-3.486-1.047a79.887 79.887 0 0 0-5.228-1.202 185.782 185.782 0 0 0-8.776-1.478l-3.953-.524A310.64 310.64 0 0 0 148.85.092c-14.409-.585-26.702.647-37.5 3.728a246.16 246.16 0 0 1-5.976 1.571l-2.801.647c-5.134 1.201-10.456 2.465-15.498 4.467-3.579 1.386-7.282 3.111-11.359 5.176l-.373.154.653 1.201-.964-1.017c-4.015 2.034-7.998 4.221-11.92 6.408l-2.987 1.602c-8.496 4.622-17.521 12.015-27.636 22.736-.217.185-.435.431-.84.863-.467.493-.902 1.016-1.4 1.57l-.498.555c-.685.77-1.37 1.602-2.023 2.373a44.363 44.363 0 0 0-2.116 2.557l-1.525 1.91c-.25.338-.467.647-.747.985l-1.618 2.25a123.649 123.649 0 0 0-4.482 6.592c-.249.462-.529.863-.747 1.263l-.31.524c-.405.616-.779 1.294-1.09 1.848a7.11 7.11 0 0 0-.25.432c-.56.924-1.026 1.879-1.524 2.803a50.197 50.197 0 0 0-1.494 2.865C9.491 80.9 7.437 85.86 5.82 90.85c-.187.432-.311.894-.467 1.356l-.156.462-.404 1.325-.405 1.51 1.12.153c3.268 2.958 6.256 6.162 7.22 11.615 1.308 7.763-1.898 13.339-5.632 19.778-.903 1.509-1.805 3.05-2.645 4.652-3.05 5.73-3.58 10.135-1.588 13.524 3.735 6.377 15.654 6.778 26.204 7.178 6.473.216 12.542.431 15.467 1.941 3.828 2.002 6.66 5.823 9.367 9.581 3.548 4.868 7.22 9.889 13.383 11.183 6.41 1.356 11.95-2.156 17.303-5.484 3.36-2.095 6.784-4.251 10.425-5.144 9.305-2.465 18.361 3.388 23.247 9.149 5.26 6.254 8.372 14.079 11.359 21.658l1.027 2.526c2.397 5.977 5.104 12.2 9.928 16.79 2.925 2.773 7.002 5.052 11.39 5.638 2.552.338 5.197.092 7.687-.925 8.621-3.542 11.266-14.387 9.367-23.259-.435-2.187-1.12-4.436-2.116-7.117-.809-2.125-1.68-4.189-2.583-6.284-1.431-3.42-2.956-6.932-3.952-10.505-2.085-7.579-1.245-17.16 5.353-21.411 4.854-3.143 11.981-2.742 19.17 1.047 2.863 1.51 5.602 3.42 8.247 5.206 3.174 2.188 6.473 4.437 10.083 6.131 4.201 1.972 8.714 2.896 12.791 2.588 3.579-.277 6.629-1.448 9.118-3.512 2.552-2.157 4.202-4.96 5.042-8.565 1.151-4.621.716-10.012.373-15.157-.653-8.441-1.213-16.42 4.077-21.472 2.739-2.588 6.504-3.759 10.488-4.96 4.326-1.325 8.776-2.65 11.981-6.008 6.038-6.254 4.606-16.42 1.214-23.845h-.125ZM76.463 18.33l.311-.154c4.077-2.064 7.75-3.728 11.204-5.114 4.855-1.91 10.083-3.112 15.125-4.344l2.769-.647a149.691 149.691 0 0 0 6.131-1.602c10.55-3.019 22.5-4.22 36.66-3.635a305.22 305.22 0 0 1 25.8 2.218l3.952.524c2.894.431 5.788.924 8.62 1.479 1.681.338 3.361.708 5.042 1.17 1.12.308 2.209.616 3.361.986 1.214.4 2.459.832 3.703 1.294.996.37 1.992.77 3.019 1.201 1.12.463 2.21.986 3.33 1.48 4.824 2.279 9.741 5.082 14.565 8.379 1.058.708 2.116 1.417 3.112 2.156 1.058.74 2.054 1.54 3.049 2.31.996.771 2.023 1.572 3.019 2.373a114.38 114.38 0 0 1 8.403 7.671c3.548 3.512 6.909 7.24 9.896 11.09-.84 4.252-1.743 9.058-1.182 13.833.684 5.792 3.485 10.967 6.162 15.989 1.089 2.033 2.209 4.159 3.174 6.285 2.987 6.623 4.419 15.588-.685 20.887-2.738 2.834-6.66 4.036-10.799 5.299-4.108 1.263-8.402 2.557-11.608 5.607-6.193 5.915-5.539 14.88-4.886 23.598.343 4.991.747 10.136-.249 14.356-.716 3.019-2.116 5.361-4.201 7.148-1.992 1.663-4.544 2.649-7.531 2.895-3.61.278-7.625-.585-11.422-2.341-3.392-1.633-6.597-3.82-9.678-5.946-2.739-1.848-5.571-3.789-8.527-5.36-8.092-4.252-16.308-4.59-21.94-.955-7.75 5.021-8.87 15.896-6.505 24.399 1.027 3.728 2.583 7.363 4.046 10.875.871 2.003 1.743 4.067 2.521 6.161.996 2.557 1.618 4.683 2.023 6.716 1.587 7.579-.592 17.252-7.718 20.21-5.695 2.341-12.169-.4-16.121-4.159-4.45-4.251-7.033-10.136-9.305-15.835l-.996-2.526c-3.081-7.763-6.255-15.804-11.826-22.397-5.01-5.915-11.546-9.612-18.019-10.474-2.707-.37-5.415-.247-7.998.431-3.983 1.047-7.624 3.327-11.141 5.514-5.135 3.204-9.99 6.285-15.312 5.114-5.103-1.078-8.309-5.452-11.7-10.135-2.895-3.974-5.914-8.072-10.333-10.382-3.423-1.787-9.523-2.003-16.587-2.249-9.835-.339-20.976-.739-23.963-5.823-1.432-2.464-.872-6.161 1.68-10.905.84-1.602 1.68-3.112 2.552-4.591 3.859-6.562 7.469-12.816 5.975-21.596-1.058-6.069-4.326-9.735-7.749-12.846.062-.154.093-.308.156-.462l.155-.462c.125-.37.25-.801.436-1.233 1.587-4.96 3.579-9.766 5.882-14.387.436-.924.902-1.848 1.431-2.803.498-.924 1.027-1.787 1.525-2.711l.187-.34a30.42 30.42 0 0 1 1.12-1.91l.312-.492c.249-.431.498-.832.747-1.263 1.338-2.095 2.77-4.282 4.388-6.531l1.556-2.095c.28-.339.529-.678.747-.955l1.493-1.91c.654-.832 1.338-1.633 2.054-2.496.592-.708 1.183-1.447 1.805-2.156l.53-.524c.497-.585.995-1.14 1.524-1.694l.28-.308c.125-.185.311-.34.592-.647C44.44 38.17 53.247 30.96 61.494 26.494l2.988-1.633c3.89-2.126 7.842-4.282 12.137-6.47l-.156-.061ZM31.027 50.308l-.25-.123v-.123l.25.215v.03Z"/>
    <path fill="#FEFEFE" d="M201.227 71.504c6.286 12.754 3.143 29.421-7.376 39.094-4.139 3.82-9.772 7.548-9.616 13.155 12.075-3.512 21.971-13.525 25.27-25.54 3.299-12.014-.125-25.631-8.745-34.688-6.691-7.055-22.812-15.558-32.77-10.783 13.786.986 26.733 5.484 33.268 18.792l-.031-.03Zm-64.171 121.195c1.867 5.022 3.859 10.228 7.624 14.079 3.766 3.851 9.834 6.038 14.752 3.759 1.805-.832 3.361-2.311 3.983-4.19.622-1.879.093-4.159-1.525-5.33-2.832-2.095-6.878 0-10.301-.708-3.548-.771-5.695-4.313-6.94-7.702-2.023-5.484-2.894-11.368-5.539-16.574-1.276-2.496-11.577-13.525-10.146-5.207.623 3.635 2.739 7.486 4.046 10.937 1.369 3.666 2.707 7.301 4.077 10.967l-.031-.031Z"/>
    <path stroke="#000" stroke-miterlimit="10" stroke-width=".88" d="M238.603 35.151c-14.441-14.325-33.082-25.94-51.288-29.39-32.583-6.162-67.501-5.237-98.87 6.13C56.39 23.538 28.07 46.52 12.945 76.834c-15.093 30.345-15.933 67.93.436 97.628 16.214 29.329 47.74 48.737 81.008 54.591 53.31 9.396 117.294-11.307 150.998-54.19 25.083-31.917 31.899-80.376 11.452-116.328-4.574-8.01-10.861-16.05-18.236-23.383Z"/>
    <path fill="#FEFEFE" d="M13.32 132.81c-1.526 2.649-3.082 5.761-1.9 8.564 1.152 2.835 4.544 4.005 7.5 4.806 1.775.493 3.642.986 5.416.586 1.805-.401 3.454-2.003 3.205-3.821-.31-2.31-3.174-3.234-4.699-5.021-1.805-2.064-1.618-5.268-.498-7.764 1.12-2.495 3.05-4.559 4.575-6.839 2.427-3.543 2.925-14.695-2.894-8.903-4.606 4.59-7.532 12.754-10.737 18.33l.031.062Z"/>
    <path fill="#6FCFEB" d="M189.961 102.682s-.094-.124-.156-.186l.156.186Zm-76.713 14.386s-.062.184-.124.308l.124-.308Z"/>
    <path fill="#000" d="M82.656 115.774c12.355-.617 24.772.338 37.065 1.756 12.199 1.509 24.523 2.125 36.567.338 11.888-1.786 23.341-6.9 31.308-15.403 7.873-8.38 11.732-21.165 7.655-32.717l.374-.185c3.205 5.36 4.077 12.015 3.081 18.3-.996 6.315-3.859 12.291-8.029 17.282-4.233 4.898-9.679 8.657-15.561 11.183-5.882 2.557-12.106 4.067-18.392 4.744-12.511 1.448-25.052.37-37.283-1.571-12.137-1.971-24.399-3.45-36.754-3.358v-.4l-.03.031Z"/>
    <path fill="#000" d="M112.937 117.468c2.427-7.486 6.753-14.418 12.604-19.87 5.851-5.423 13.289-9.335 21.287-10.783 7.998-1.479 16.431-.709 23.994 2.249 7.5 2.988 14.44 7.701 19.108 14.171l-.218.185c-5.757-5.392-12.511-9.427-19.824-11.83-7.251-2.434-15.062-3.697-22.687-2.588-7.625 1.11-14.876 4.59-20.726 9.643-5.913 5.021-10.519 11.614-13.289 18.915l-.249-.092Z"/>
  </g>
  <defs>
    <clipPath id="clip0_701_3391">
      <path fill="#fff" d="M0 0h271v237H0z"/>
    </clipPath>
  </defs>
</svg>