<svg xmlns="http://www.w3.org/2000/svg" width="54" height="43" fill="none" viewBox="0 0 54 43">
  <path fill="#FFE5B1" stroke="#000" stroke-linecap="round" stroke-linejoin="round" stroke-width="1.25" d="M1 23.62c0 1.99 1.61 3.6 3.59 3.6h3.07a3.596 3.596 0 0 0 0 7.19h3.98c-1.99 0-3.59 1.61-3.59 3.59 0 1.98 1.6 3.59 3.57 3.59h.02l24.86-.04c9.03-.04 16.31-7.38 16.27-16.41-.02-3.71-1.26-7.11-3.36-9.85A16.366 16.366 0 0 0 41 9.53c-3.62-1.05-7.02-2.74-9.86-5.22l-2.58-2.27a4.356 4.356 0 0 0-6.14.49 4.365 4.365 0 0 0-.32 5.21c.22.34.48.65.81.93l4.82 4.17H8.67c-1.99 0-3.59 1.61-3.59 3.59 0 1.99 1.6 3.6 3.59 3.6H4.59C2.61 20.03 1 21.64 1 23.62Z"/>
  <path stroke="#000" stroke-linecap="round" stroke-linejoin="round" stroke-width="1.25" d="M22.89 20.03H8.67m19.07-7.19h-.01m-6.52 14.38H7.66m16.85 7.19H11.64"/>
  <path fill="#FFE5B1" d="M27.73 12.84h.01l4.19 3.63s-4.97 8.18 3.45 12.97"/>
  <path stroke="#000" stroke-linecap="round" stroke-linejoin="round" stroke-width="1.25" d="M27.73 12.84h.01l4.19 3.63s-4.97 8.18 3.45 12.97"/>
</svg>