<svg xmlns="http://www.w3.org/2000/svg" width="465" height="473" fill="none" viewBox="0 0 465 473">
  <g clip-path="url(#clip0_701_3236)">
    <path fill="#797774" d="M56.712 204.258c.423 17.567 6.364 35.381 14.5 50.789 13.741 26.04 35.447 44.765 56.762 64.347 24.025 22.084 50.996 41.444 81.174 54.151 40.152 16.912 86.795 21.25 127.394 5.213 29.654-11.707 55.179-35.193 67.898-64.577 4.298-9.903 6.732-20.499 7.445-31.248.627-9.528 1.757-19.565.794-29.09-2.013-19.947-11.647-38.472-23.422-54.37-30.548-41.178-77.802-68.18-125.525-84.991-27.841-9.804-57.181-16.37-86.726-15.392-29.545.977-59.356 9.901-82.404 28.404-23.049 18.503-38.595 47.205-37.89 76.764Zm104.884-22.156c8.754-3.296 18.446-3.138 27.673-1.841 20.904 2.931 40.578 11.436 59.948 19.841 25.603 11.1 52.441 23.199 68.781 45.833 4.808 6.709 8.669 14.563 8.612 22.866-.11 8.875-5.067 17.563-12.735 22.159-8.994 5.394-18.385 3.264-27.969 1.117-13.883-3.057-27.519-6.983-40.977-11.543-6.612-2.246-11.664-7.34-17.402-11.242a193.128 193.128 0 0 0-18.774-11.242c-11.586-6.081-23.744-10.887-35.999-15.438-10.252-3.795-18.835-11.103-24.842-20.519-3.814-5.996-5.942-13.311-4.559-20.293 1.821-9.157 9.489-16.402 18.243-19.698Z" opacity=".6" style="mix-blend-mode:multiply"/>
    <path fill="#FFEB8D" d="M47.637 199.129c.424 17.567 6.365 35.381 14.5 50.789 13.742 26.04 35.47 44.791 56.763 64.347 24.025 22.084 50.996 41.444 81.174 54.151 40.152 16.912 86.795 21.25 127.415 5.239 29.655-11.707 55.18-35.193 67.899-64.577 4.297-9.902 6.731-20.499 7.445-31.248.626-9.528 1.757-19.565.794-29.09-2.014-19.947-11.647-38.472-23.423-54.37-30.591-41.23-77.823-68.206-125.547-85.017-27.84-9.804-57.181-16.37-86.726-15.392-29.545.977-59.356 9.901-82.404 28.404-23.048 18.503-38.595 47.205-37.89 76.764Zm104.859-22.134c8.754-3.296 18.446-3.138 27.673-1.841 20.904 2.931 40.578 11.436 59.948 19.841 25.603 11.1 52.44 23.199 68.781 45.833 4.808 6.709 8.669 14.563 8.612 22.866-.11 8.875-5.068 17.563-12.736 22.159-8.993 5.394-18.385 3.264-27.968 1.117-13.884-3.057-27.52-6.983-40.977-11.543-6.612-2.246-11.664-7.34-17.402-11.242a193.353 193.353 0 0 0-18.775-11.243c-11.585-6.08-23.744-10.887-35.998-15.437-10.252-3.795-18.836-11.103-24.843-20.519-3.813-5.996-5.941-13.311-4.559-20.293 1.822-9.157 9.49-16.402 18.244-19.698Z"/>
    <path fill="#FFE245" d="M134.887 194.221c2.56-8.009 9.654-14.245 17.609-17.226 8.754-3.296 18.446-3.138 27.673-1.841 20.93 2.909 40.578 11.435 59.948 19.841 25.603 11.1 52.462 23.225 68.781 45.833 4.856 6.713 8.691 14.589 8.612 22.865a25.576 25.576 0 0 1-.948 6.442c5.704-5.251 8.629-13.564 6.632-25.492-2.939-17.452-16.865-30.626-30.309-40.892-25.021-19.09-53.843-33.195-84.278-41.23-16.086-4.263-33.536-6.768-49.085-.797-13.476 5.166-24.642 18.554-24.635 32.497Zm-82.24 33.211c2.489 7.853 5.75 15.413 9.49 22.486 13.768 26.018 35.448 44.765 56.763 64.347 24.025 22.084 50.97 41.465 81.174 54.151 40.13 16.886 86.795 21.25 127.415 5.239 29.655-11.707 55.158-35.219 67.899-64.577 3.45-8.003 5.714-16.471 6.862-25.111-23.258 27.948-49.23 53.971-83.047 65.888-38.543 13.57-81.954 6.267-118.917-11.014-36.963-17.28-68.708-43.731-100.022-69.879-16.094-13.437-32.292-27.053-47.595-41.504l-.022-.026Z"/>
    <path fill="#FFE245" d="M134.887 194.221c2.559-8.009 9.654-14.245 17.609-17.226 8.754-3.296 18.446-3.138 27.673-1.841 20.93 2.909 40.577 11.435 59.947 19.841 25.604 11.1 52.463 23.225 68.781 45.833 4.857 6.713 8.692 14.589 8.612 22.865-.03 2.189-.374 4.374-.947 6.442 5.704-5.251 8.629-13.565 6.632-25.492-2.939-17.452-16.865-30.626-30.309-40.892-25.021-19.09-53.843-33.195-84.278-41.23-16.086-4.263-33.536-6.768-49.085-.798-13.476 5.167-24.642 18.555-24.635 32.498Z"/>
    <path stroke="#000" stroke-miterlimit="10" stroke-width=".95" d="M47.638 199.129c.424 17.567 6.364 35.381 14.5 50.789 13.741 26.04 35.47 44.791 56.762 64.347 24.026 22.084 50.997 41.444 81.174 54.151 40.13 16.886 86.795 21.25 127.416 5.239 29.654-11.707 55.179-35.193 67.898-64.577 4.298-9.902 6.732-20.499 7.445-31.248.627-9.528 1.757-19.565.794-29.09-2.013-19.947-11.647-38.472-23.422-54.37-30.592-41.23-77.823-68.206-125.547-85.017-27.841-9.804-57.181-16.37-86.726-15.392-29.545.977-59.356 9.901-82.404 28.404-23.048 18.503-38.6 47.252-37.89 76.764Zm104.858-22.134c8.754-3.296 18.446-3.138 27.673-1.841 20.93 2.909 40.578 11.435 59.948 19.841 25.604 11.1 52.441 23.199 68.781 45.833 4.808 6.709 8.67 14.563 8.612 22.865-.109 8.876-5.067 17.564-12.735 22.16-8.993 5.394-18.385 3.264-27.968 1.116-13.884-3.056-27.52-6.982-40.978-11.542-6.612-2.246-11.663-7.34-17.402-11.242-6.033-4.097-12.289-7.876-18.774-11.243-11.585-6.08-23.744-10.887-35.999-15.437-10.252-3.795-18.835-11.103-24.842-20.519-3.814-5.996-5.941-13.311-4.559-20.293 1.821-9.158 9.489-16.402 18.265-19.672l-.022-.026Z"/>
    <path fill="#000" d="M343.543 238.591c2.09 1.124 4.127 2.556 6.542 2.746 1.673-2.236 1.104-4.984-.008-7.321-1.468-.804-3.036-1.569-4.752-1.769-1.186 1.918-1.982 4.039-1.782 6.344Zm2.881-4.127 2.841 1.334c.091.321.295.989.434 1.315-.313.526-.652 1.074-.991 1.622a10.89 10.89 0 0 1-3.106-2.129c.283-.721.539-1.421.822-2.142Zm-8.816 10.586c1.547-.056 3.093-.112 4.636-.12.443-.37.842-.792 1.264-1.189a30.814 30.814 0 0 0-.534-5.248 74.397 74.397 0 0 1-2.832-1.43c-3.08 1.558-4.523 4.97-2.56 8.009l.026-.022Zm1.743-4.854c.99.232.521 1.948-.209 2.293-.917-.25-.452-1.918.209-2.293Zm7.33-10.405c1.412-2.548-.786-4.861-1.633-7.2-5.312-3.286-5.557 5.746-2.347 7.787 1.352-.025 2.681-.341 3.98-.587Zm-18.807 2.6c-.33 3.896 4.735 6.992 7.263 3.291.001-.795-.047-1.594-.069-2.414a103.934 103.934 0 0 0 2.798 3.666c2.949.14 3.918-3.097 4.257-5.499-1.398-1.833-3.674-2.757-5.899-3.194a30.51 30.51 0 0 1-.834 1.491c-2.528-2.125-6.468-.114-7.563 2.655l.047.004Zm5.222-1.272c.443-.9 2.924-.633 1.716.464-.447.418-1.994.474-1.716-.464Zm-.164-7.72c5.452-.361 7.716-8.3 3.494-11.394-.448.683-.847 1.37-1.295 2.053-.656.062-1.286.103-1.938.117-2.024 2.663-1.812 6.414-.261 9.224Zm1.669-7.486c.803.962 1.429 2.029 2.054 3.095-.534.579-1.047 1.184-1.629 1.759-2.454-.819-1.342-3.249-.451-4.832l.026-.022Zm-97.477-68.474c2.09 1.123 4.101 2.577 6.516 2.767 1.699-2.258 1.13-5.005.019-7.343-1.469-.804-3.037-1.568-4.731-1.742-1.208 1.892-1.981 4.039-1.804 6.318Zm2.881-4.128c.947.445 1.894.89 2.815 1.356.091.321.321.968.434 1.315-.313.526-.652 1.074-.99 1.622-1.16-.488-2.177-1.228-3.106-2.129.282-.721.539-1.421.821-2.142l.026-.022Zm-8.842 10.608c1.573-.078 3.094-.112 4.64-.168.443-.37.843-.792 1.264-1.188-.056-1.763-.208-3.534-.533-5.249a75.185 75.185 0 0 1-2.833-1.43c-3.08 1.558-4.522 4.97-2.559 8.009l.021.026Zm1.769-4.876c.991.232.521 1.948-.209 2.293-.916-.25-.451-1.918.209-2.293Z"/>
    <path fill="#5F5D59" d="M221.429 141.26c-.352 3.87 4.761 6.97 7.29 3.269 0-.795-.048-1.594-.07-2.414a52.058 52.058 0 0 0 2.798 3.666c2.923.162 3.918-3.097 4.253-5.451-1.372-1.855-3.675-2.757-5.899-3.194a47.72 47.72 0 0 1-.808 1.469c-2.554-2.103-6.469-.114-7.59 2.677l.026-.022Zm5.222-1.272c.443-.9 2.924-.633 1.716.464-.447.418-1.994.474-1.716-.464Z"/>
    <path fill="#000" d="M224.523 136.645c5.456-.408 7.742-8.321 3.494-11.394-.448.683-.847 1.37-1.295 2.053a47.07 47.07 0 0 1-1.963.14c-1.999 2.64-1.787 6.392-.262 9.223l.026-.022Zm1.669-7.485c.804.962 1.429 2.028 2.054 3.095-.534.579-1.047 1.183-1.603 1.736-2.454-.819-1.342-3.249-.451-4.831Zm121.196 68.258c1.034-.775 2.02-1.555 2.967-2.434-.039-1.954.479-5.52-2.419-5.439-4.548-.571-4.766 7.115-.548 7.873Zm-.451-5.096c1.125-.19 1.646 1.759.686 2.252-1.073.146-1.646-1.759-.686-2.252Z"/>
    <path fill="#000" d="M338.279 192.977c.282 1.928 2.619 1.123 3.957 1.241 1.99-2.28 2.838-5.239 3.998-7.93 1.273-1.549 2.546-3.098 2.924-5.135l1.13-.767c-.482-2.644-2.741-5.877-5.665-3.92-.699 2.129-1.117 4.332-1.512 6.56-5.192-.121-5.857 6.129-4.858 9.973l.026-.022Zm5.17-7.056a28.84 28.84 0 0 1-1.46.955c.309 1.906.156 3.842-1.004 5.474-2.25-2.005-.989-9.768 2.416-6.433l.048.004Zm-23.289 34.375c-.456 4.486 7.593 4.957 7.49.541-.595-2.725-.187-5.892-2.506-7.927-3.919.449-3.367 4.711-4.984 7.386Zm64.135-13.187c1.742 4.151 9.062.728 6.834-3.105-1.833-2.088-3.006-5.081-5.977-5.777-3.241 2.266-.717 5.764-.857 8.882ZM198.8 106.489c-.456 4.486 7.593 4.957 7.49.541-.595-2.725-.186-5.892-2.506-7.927-3.919.449-3.367 4.711-4.984 7.386Zm106.681 72.923a4.57 4.57 0 0 0-.065.982c1.499 1.794 4.214 2.925 4.743 5.307-1.433-.392-2.91-.57-4.426-.584-.227 3.279-3.837 7.222-1.73 10.009.291-.817.53-1.591.821-2.408 1.338 2.502-.148 5.863-2.012 7.817.091 1.116.208 2.209.351 3.282-.942.037-1.911.096-2.88.154-2.168 3.71-.535 9.85 4.456 9.785.435-.539.869-1.079 1.282-1.644.269-2.168-.078-4.438.357-6.567 2.194-1.082 4.136-2.572 4.54-5.161.161.352.478 1.102.638 1.453-1.438 2.835-1.877 6.071-1.343 9.2.66.155 1.321.31 1.959.438.3-.118.878-.38 1.156-.524.834.098 1.646.17 2.459.242.656-2.712 2.012-6.228-.642-8.292.934-1.266 1.594-2.701 2.111-4.148.786 1.948 1.738 4.199 3.732 5.049 2.623-.514 4.101-2.719 5.148-4.963 2.737-.432 5.356 3.074 8.193.484.326-1.994 1.034-4.219-.573-5.878.057-.357.122-1.073.152-1.408-.534-.745-1.068-1.491-1.628-2.214-2.342 1.382-4.975 1.992-7.685 1.873l-1.226 1.024c-1.542-.787-3.223-.839-4.9-.674a57.915 57.915 0 0 1-1.468 1.845 88.613 88.613 0 0 0-2.072-1.315c-1.234.854-2.485 1.634-3.676 2.54-.617 1.222-.839 2.599-1.013 3.98-.53.002-1.06.003-1.616.026-.282-1.133-.343-2.318.261-3.396a8.213 8.213 0 0 0 2.112-.705c.778-1.665.439-3.5.335-5.267 1.455.947 3.11 1.286 4.718.561.751.476 1.503.951 2.232 1.401 3.133-.012 5.127-2.87 5.106-5.809-.574-1.905-2.085-3.291-3.51-4.572a36.183 36.183 0 0 0-1.238-3.866c-2.024.014-4.3-.645-5.96.918-.317-1.015-.704-2.061-1.068-3.08-.687-.133-1.395-.292-2.129-.429l-.052.043c-1.673 1.177-3.597 2.476-3.98 4.561l.03-.07Zm25.899 13.149c2.476.844 1.533 4.325.582 6.047-2.107-1.463-1.199-4.031-.582-6.047Zm-6.721 1.862c.383-.231 1.173-.715 1.556-.946.369 1.236.738 2.473 1.007 3.749-1.777.204-2.254-1.428-2.563-2.803Zm-5.473-.725a32.65 32.65 0 0 0 2.168-.001c-2.242 1.343-.983 3.911-1.482 5.961-.865-1.882-1.112-3.926-.686-5.96Zm-6.069 2.907c1.828.812 1.528 2.519.768 3.993-1.277-1.052-1.381-2.554-.768-3.993Zm5.192-13.916-1.703.981c-1.281-1.269-1.972-2.943-2.267-4.727 1.199.058 2.394.163 3.58.364.139 1.12.252 2.262.39 3.382Zm-13.364 18.227c1.099.097 2.202.146 3.284.17-.413.83-.869 1.608-1.304 2.413-.716-.328-1.459-.635-2.176-.963.096-.521.143-1.047.217-1.594l-.021-.026Zm7.599-15.221c.904.923 2.598 1.361 2.885 2.711-1.677 1.224-3.541-1.059-2.885-2.711Zm.101-4.542c.499.863.977 1.7 1.355 2.576-.443-.16-1.273-.57-1.716-.73.104-.617.23-1.207.361-1.846Zm40.753-1.071c1.498 1.794 4.213 2.925 4.721 5.282-1.459-.37-2.91-.57-4.426-.584-.179 3.283-3.837 7.222-1.73 10.009l.795-2.386c1.338 2.502-.148 5.862-2.034 7.79.091 1.116.23 2.236.325 3.304-.942.037-1.911.096-2.854.133-2.168 3.709-.557 9.823 4.435 9.759.434-.54.847-1.105 1.281-1.645.27-2.167-.103-4.416.357-6.566 2.194-1.083 4.136-2.572 4.545-5.209.135.373.478 1.102.638 1.453-1.438 2.835-1.877 6.071-1.343 9.2.66.155 1.321.309 1.959.438.278-.144.882-.428 1.182-.546.834.098 1.668.196 2.48.268.657-2.712 2.008-6.18-.668-8.271.956-1.239 1.617-2.674 2.138-4.169.786 1.948 1.737 4.199 3.753 5.075 2.598-.493 4.079-2.746 5.17-4.937 2.763-.454 5.356 3.074 8.193.483.326-1.993 1.035-4.218-.573-5.877.057-.357.122-1.073.153-1.408-.513-.719-1.073-1.443-1.629-2.214-2.32 1.408-5.001 2.014-7.685 1.873l-1.199 1.002c-1.543-.787-3.25-.817-4.927-.652-.443.635-.956 1.24-1.446 1.87a89.954 89.954 0 0 0-2.073-1.314c-1.186.858-2.459 1.612-3.649 2.519-.643 1.243-.865 2.62-1.013 3.979-.53.002-1.06.003-1.611-.022-.283-1.132-.343-2.317.261-3.396a7.343 7.343 0 0 0 2.111-.704c.778-1.665.439-3.501.335-5.268 1.455.947 3.089 1.26 4.744.54.751.475 1.507.903 2.233 1.401 3.18-.008 5.126-2.87 5.105-5.81-.547-1.926-2.063-3.264-3.484-4.594a39.358 39.358 0 0 0-1.263-3.844c-1.999-.008-4.275-.666-5.913.923-.339-1.042-.704-2.061-1.068-3.081-.687-.132-1.395-.291-2.081-.424-1.933 1.394-4.236 2.876-4.097 5.585l-.148.035Zm25.964 12.167c2.502.823 1.555 4.351.603 6.073-2.128-1.488-1.22-4.057-.603-6.073Zm-6.721 1.862a249.07 249.07 0 0 1 1.556-.946c.39 1.263.712 2.495 1.007 3.749-1.755.231-2.233-1.401-2.563-2.803Zm-5.473-.724c.747-.006 1.446-.017 2.167-.001-2.215 1.321-.956 3.889-1.482 5.961-.816-1.878-1.133-3.953-.685-5.96Zm-6.07 2.907c1.829.812 1.529 2.519.791 4.019-1.277-1.052-1.382-2.554-.791-4.019Zm5.193-13.916c-.56.335-1.121.671-1.703.981-1.281-1.269-1.946-2.965-2.219-4.723 1.199.058 2.394.163 3.553.386.139 1.12.274 2.288.365 3.403l.004-.047Zm-13.365 18.227c1.1.097 2.155.142 3.237.165a39.25 39.25 0 0 1-1.304 2.413 64.304 64.304 0 0 1-2.15-.984c.048-.526.144-1.047.217-1.594Zm7.6-15.221c.93.901 2.576 1.335 2.884 2.711-1.698 1.198-3.514-1.081-2.884-2.711Zm.127-4.564c.499.863.951 1.721 1.35 2.623-.438-.207-1.298-.548-1.715-.729.104-.617.208-1.234.339-1.872l.026-.022Z"/>
    <path fill="#000" d="M330.529 188.946c1.13-.238 2.259-.475 3.367-.738.973-1.961 1.399-4.259.331-6.28-4.127-2.026-9.932 5.383-3.65 7.022l-.048-.004Zm1.647-5.393c.317.75.63 1.549.899 2.295-2.798 2.16-3.809-1.011-.899-2.295Zm5.028-15.015c3.427 1.772 8.106-.68 8.085-4.679.747-2.125-1.715-5.762-3.349-2.632-.786-.093-1.568-.235-2.376-.354-2.016 2.037-2.972 4.866-2.36 7.665Zm-27.078 45.309c.052 2.34-1.895 5.467.555 7.128 1.369 1.108 3.15.327 4.57-.198 1.782-2.901-1.658-9.561-5.125-6.93Zm1.903 1.059c.504.55 1.007 1.1 1.49 1.624-.231 1.208.499 3.512-1.504 3.287-1.216-1.456-.538-3.347.04-4.933l-.026.022Zm15.83-43.991c-1.247 3.381.308 7.468 4.005 8.396 2.602-1.6 3.476-5.64 1.426-7.988-1.608-1.13-3.641-.755-5.431-.408Zm2.324.928 1.286.691a22.26 22.26 0 0 1-2.32 1.938c.348-.908.669-1.795 1.039-2.677l-.005.048Z"/>
    <path fill="#000" d="M327.289 183.795c4.561-2.486-.221-8.423-4.07-6.885-3.067 2.474.116 8.775 4.07 6.885Zm-2.434 55.312c-.413 2.42.294 4.963 1.676 6.987 2.502 1.618 4.57-1.258 6.112-2.855-.117-1.359-.434-2.639-1.298-3.727a42.616 42.616 0 0 0-.982 1.792c-.934-1.913-3.688-4.733-5.487-2.171l-.021-.026Zm2.354 1.123c1.32.839 2.267 2.079 3.145 3.288-.869.549-1.821.947-2.837 1.002-.208-1.415-.391-2.852-.282-4.311l-.026.021Zm3.427-70.442a90.39 90.39 0 0 0 2.841.01 189.94 189.94 0 0 0 2.029-3.77c-.782-1.73-2.42-2.525-4.166-2.92-3.723.682-2.616 4.657-.731 6.702l.027-.022Zm-.022-4.794c.613.151 1.764.469 2.377.62l-.101 2.688c-1.898.217-2.163-1.901-2.276-3.308Zm3.38-1.411c3.133-1.336 5.088-4.029 5.679-7.348-1.729-2.44-5.061-3.144-7.411-1.136.829 2.794-1.282 6.677 1.732 8.484Zm-16.167-18.452c3.133-1.337 5.088-4.03 5.679-7.349-1.729-2.44-5.061-3.144-7.411-1.136.829 2.794-1.282 6.677 1.732 8.485Zm.47 30.55c2.433 1.587 5.878.254 6.061-2.812-.969-2.325-1.903-4.767-4.544-5.651-3.089 1.654-3.467 5.81-1.517 8.463Zm.579-5.825c.512-.075 1.494-.277 1.985-.378.721.81 1.42 1.594 2.168 2.383-.387 1.603-1.513 2.587-3.063 2.956-1.099-1.422-1.998-3.187-1.043-4.956l-.047-.005Zm3.267-2.817c2.615-.949 4.514-3.021 5.678-5.494-1.038-1.561-1.624-3.322-2.232-5.11 1.225-1.288 2.694-2.603 2.512-4.57-1.873-1.393-3.31-4.385-6.065-3.232-1.816 3.018-1.36 7.272 1.789 9.188-1.147 1.487-1.764 3.239-2.472 4.934.33 1.402.56 2.843.794 4.236l-.004.048Zm-38.333 35.332c.065.873.33 1.667.799 2.334.669.854 1.703 1.403 3.21 1.247a76.727 76.727 0 0 1 1.582-3.351c.108 4.103 4.899 8.355 8.249 4.364.009-.89-.004-1.806-.017-2.722 1.36-.65 2.698-1.327 4.036-2.003l.182-2.007c-.899.089-1.798.178-2.676.294-.199-1.511-.199-3.1.718-4.44.547 1.132.847 2.338.972 3.602 1.695-1.151 3.993-4.175.574-4.453-.595-.606-1.172-1.403-1.846-1.945-.517-.406-1.073-.648-1.798-.616-.947 1.409-.73 2.994-.583 4.548.096 1.068.191 2.136-.122 3.192a138.21 138.21 0 0 0-5.513 1.029c-.725-1.821-1.424-3.665-1.706-5.592-3.736-2.088-6.4 2.829-6.035 6.498l-.026.021Zm-8.65-70.859a77.31 77.31 0 0 1 1.582-3.352c.108 4.103 4.899 8.355 8.271 4.391-.013-.916-.005-1.806-.039-2.748 1.36-.651 2.719-1.301 4.01-1.982l.182-2.006c-.899.089-1.75.182-2.676.293-.221-1.537-.199-3.1.718-4.439.547 1.132.82 2.36.951 3.575 1.694-1.15 4.014-4.148.574-4.452-1.013-1.053-1.925-2.674-3.645-2.561-1.56 2.318.056 5.206-.705 7.739-1.859.317-3.718.635-5.513 1.03-.725-1.822-1.424-3.666-1.706-5.593-5.891-3.289-9.168 10.748-2.026 10.079l.022.026Zm-39.314-15.273a77.28 77.28 0 0 1 1.582-3.351c.108 4.103 4.899 8.355 8.249 4.364.009-.89-.004-1.806-.017-2.722 1.36-.65 2.698-1.327 4.036-2.003l.183-2.007c-.9.089-1.777.205-2.676.294-.2-1.511-.2-3.1.717-4.44.547 1.132.847 2.338.973 3.602 1.694-1.151 3.992-4.174.574-4.452-1.039-1.031-1.972-2.679-3.645-2.562-1.56 2.318.056 5.206-.731 7.761-1.859.318-3.671.639-5.513 1.03-.725-1.822-1.424-3.665-1.706-5.592-5.869-3.264-9.168 10.748-2.026 10.078Zm90.77 26.538c-.865 1.561-.856 3.319-.891 5.026 1.455 1.742 3.683 3.191 5.942 1.922.617-1.752.935-3.65.839-5.513 0-.529-.073-1.042-.169-1.58-.382.231-.791.484-1.173.715-.356.21-.665.423-1.021.632a60.963 60.963 0 0 0-3.527-1.202Zm1.172 2.728c.882.367 1.79.712 2.72 1.083a27.575 27.575 0 0 1-1.604 1.737c-.373-.924-.747-1.848-1.116-2.82Zm-16.054 25.815c5.873.832 6.712-7.858 1.552-9.374-4.436.571-4.81 7.064-1.552 9.374Z"/>
    <path fill="#000" d="M316.697 152.519c-3.923 2.086-1.544 10.339 3.026 9.346 1.604-1.737 2.334-3.936 2.03-6.154a7.445 7.445 0 0 0-.456-1.87c1.212-1.145 2.359-2.368 3.028-3.898-.269-.217-.764-.598-1.034-.814a2.962 2.962 0 0 0-.151-.712c-.496-1.705-2.246-2.317-3.988-2.495-1.334 1.953-2.807 4.11-2.481 6.619l.026-.022Zm-.418 2.997c.365-.304.73-.609 1.117-.888.426.086 1.255.231 1.681.317.387.781.725 1.557 1.112 2.338a46.202 46.202 0 0 0-3.649-.13l-.287-1.615.026-.022Zm37.92 4.916c-1.15-4.291-9.717-3.844-9.805.819 1.316 1.947 3.302 3.158 5.521 3.378a7.613 7.613 0 0 0 1.929-.022c.834 1.422 1.742 2.826 3.071 3.835l1.017-.85c.26.048.525.047.721.016 1.768-.109 2.776-1.657 3.358-3.291-1.598-1.755-3.375-3.669-5.881-3.915l.069.03Zm-2.841-1.069c.226.429.404.854.582 1.279a22.06 22.06 0 0 1-.721 1.574c-.86.189-1.673.382-2.533.57.348-1.173.696-2.346.995-3.523.552.024 1.104.049 1.629.095l.048.005Z"/>
    <path fill="#474340" d="M304.755 186.331c1.065-2.169 1.439-4.689.218-6.891 1.951.003 3.397-1.338 4.67-2.622a91.685 91.685 0 0 0-.277-2.24c-1.903-1.324-3.31-3.591-5.891-3.554-1.051 2.291-1.968 4.69-1.577 7.277-3.393.495-4.132 3.849-2.938 6.603 1.659 1.351 3.666 1.793 5.747 1.423l.048.004Z"/>
    <path fill="#000" d="M296.76 197.424c5.348-1.864 2.591-13.641-3.109-11.087-.252 1.447-.787 2.82-1.108 4.237.191 2.93 2.914 4.495 4.239 6.876l-.022-.026Zm-.066-64.611a30.476 30.476 0 0 1-.544 3.588c2.22 3.663 9.019.411 7.191-3.844-2.007-.972-5.135-2.067-6.647.256Zm4.926 2.241c-1.186 1.388-4.014 2.559-3.649-.395-.534-3.394 3.68-2.323 3.649.395Zm1.853 21.45c2.032 4.923 10.299 1.945 9.223-3.158-.965-1.314-1.924-2.675-2.884-4.036 2.941-2.148 6.525-6.069 3.676-9.692-1.951-.533-3.997-.281-5.982.098-1.551 3.282.616 6.724.377 10.146-3.775-.863-6.3 3.585-4.41 6.642Zm1.594-3.76c1.773-1.481 4.001-.297 5.183 1.277-.331 2.571-2.781 3.294-4.97 2.474-.13-1.215-.591-2.508-.213-3.751Zm-24.174-11.72c2.407-.245 3.441-3.404 3.467-5.545-1.524-2.831-4.165-6.099-7.723-5.907-2.312 3.431-.027 7.173.368 10.772 2.185.867 3.093-1.966 5.078-1.55-.291.552-.877 1.704-1.168 2.256l-.022-.026Zm-2.783 62.577c-.065 1.777.482 3.438 1.103 5.082a17.72 17.72 0 0 0 4.601-.797c.378-.713.756-1.426 1.086-2.144-.091-.321-.204-.668-.295-.989-.217-.789-.43-1.627-.799-2.334a3.872 3.872 0 0 0-1.312-1.464c-1.855.004-3.037 1.61-4.362 2.672l-.022-.026Zm2.841-.254c1.89.408 1.833 2.088.708 3.337-.356-.055-1.095-.145-1.473-.226.192-1.043.479-2.077.765-3.111Zm10.379-40.716c-.227 2.484-.592 5.173 1.224 7.187 1.716 1.789-.066 4.16-1.087 5.852.3.941.578 1.857.856 2.772 1.055.575 2.111 1.15 3.193 1.703 2.658-.367 4.6-2.122 4.544-4.944-1.681-1.641-2.232-4.05-3.935-5.717a26.037 26.037 0 0 0 1.295-3.377 182.288 182.288 0 0 1-4.066-4.55c-.682.35-1.316.703-1.998 1.052l-.026.022Zm2.693 3.223c1.194-.159 1.094 1.735.134 1.963-1.173.185-1.116-1.76-.134-1.963Zm-6.696 13.76c.616 3.546-.305 8.907 4.5 9.572-.269-3.13 3.293-4.694 3.289-7.824-2.433-1.323-4.904-2.745-7.789-1.748Zm3.115.709c.434.255 1.307.717 1.72.946.99 2.086-.909 6.012-3.402 4.034a13.33 13.33 0 0 1 1.682-4.98Zm-2.521 13.671c.838-3.394-1.911-8.645-6.016-7.202-.926 1.171-.974 2.756-1.365 4.142-.022 3.417 4.956 6.409 7.333 3.056l.048.004Z"/>
    <path fill="#474340" d="M389.357 236.692c-1.673 3.825-2.911 8.435-1.157 12.443 1.868 1.971 4.518.64 6.386-.567.604-2.138 1.33-4.289 1.079-6.551-2.046-1.866-3.319-4.82-6.308-5.325Z"/>
    <path fill="#5F5D59" d="M138.362 272.979c-1.947 4.451-3.429 9.882-1.348 14.545 2.198 2.313 5.278.755 7.476-.64.756-2.485 1.565-5.015 1.226-7.645-2.38-2.161-3.822-5.635-7.332-6.234l-.022-.026Z"/>
    <path fill="#000" d="M296.153 149.861c1.477 3.093 5.039 1.264 6.942-.325.752-2.173.44-4.561-1.824-5.627-.195-1.029-.364-2.079-.607-3.112-5.678-2.452-7.152 5.532-4.559 9.06l.048.004Zm2.317-7.717c1.502 1.746 2.519 3.81 3.387 5.91a69.054 69.054 0 0 1-1.924 1.828c-3.328-.486-4.027-6.038-1.49-7.716l.027-.022Zm-48.819-20.399c1.621.986 3.072 2.246 4.861 2.958.109 2.779 1.372 5.298 4.04 6.425-.834.167-1.625.386-2.455.506-1.82 3.33-.5 8.142 2.593 10.149 5.408-1.472 2.472-7.583 1.109-11.123 1.225-1.288 2.428-2.602 3.271-4.189-.391-.998-.755-2.018-1.172-2.993 1.729.586 3.453.16 5.069-.395.535-1.109.861-2.308 1.048-3.568-1.681-1.906-3.949-3.455-6.638-2.753-.817 2.095-1.412 4.667.482 6.351a59.312 59.312 0 0 0-5.826.232c.182-.418.526-1.278.682-1.674-.243-.238-.777-.719-1.021-.957 1.508-3.069-2.975-6.21-5.429-3.851-1.743 1.147-1.308 3.256-.713 4.922l.099-.04Zm8.101 11.817c1.937 1.471 2.333 3.745 1.433 5.954-1.472-1.551-2.515-3.859-1.433-5.954Zm115.651 89.753c1.62.986 3.071 2.246 4.86 2.958.109 2.778 1.373 5.298 4.04 6.425-.812.193-1.625.386-2.459.553-1.816 3.283-.522 8.117 2.592 10.15 5.409-1.473 2.473-7.584 1.109-11.123 1.226-1.289 2.429-2.603 3.272-4.19l-1.173-2.993c1.729.586 3.454.16 5.07-.395.535-1.109.861-2.308 1.048-3.568-1.708-1.884-3.949-3.455-6.638-2.753-.817 2.095-1.413 4.667.481 6.351a66.596 66.596 0 0 0-5.825.232c.182-.417.526-1.278.704-1.648-.265-.264-.778-.718-1.021-.957 1.508-3.069-2.975-6.21-5.43-3.851-1.742 1.147-1.308 3.256-.713 4.922l.083-.113Zm8.074 11.838c1.916 1.445 2.333 3.746 1.459 5.932-1.472-1.551-2.515-3.858-1.459-5.932Z"/>
    <path fill="#5F5D59" d="M110.711 120.882c-5.3-.516-6.526 8.188-1.5 9.596a281.05 281.05 0 0 1 4.879-.677c.543 3.564 2.349 8.587 6.906 7.738 1.365-1.493 2.121-3.449 2.703-5.348-2.146-2.886-6.221-2.572-9.14-4.371 2.507-2.933-.233-7.221-3.848-6.938Zm2.58 3.142c.473 2.209-1.586 3.664-3.541 3.973-2.154-1.467-1.637-3.973.118-5.528 1.164.44 2.494.654 3.423 1.555Z"/>
    <path fill="#000" d="M134.769 157.947c2.407-.245 3.441-3.404 3.468-5.545-1.525-2.831-4.166-6.099-7.724-5.908-2.311 3.432-.027 7.174.368 10.772 2.185.868 3.094-1.966 5.079-1.549-.291.552-.878 1.704-1.169 2.256l-.022-.026Zm-9.204-49.165c2.407-.244 3.441-3.404 3.468-5.544-1.525-2.832-4.166-6.1-7.724-5.908-2.311 3.432-.027 7.173.368 10.772 2.185.867 3.094-1.966 5.079-1.55-.291.552-.878 1.704-1.169 2.256l-.022-.026Zm56.107 27.111c2.407-.245 3.441-3.404 3.467-5.545-1.524-2.831-4.165-6.099-7.723-5.908-2.311 3.432-.027 7.174.368 10.772 2.185.868 3.093-1.966 5.079-1.549-.291.552-.878 1.704-1.169 2.256l-.022-.026Zm-5.895-42.13c-.621 2.329 1.985 4.39 3.936 5.188 3.193-.416 7.194-1.773 8.276-5.193-2.367-3.363-6.703-2.566-10.213-3.43-1.577 1.715.734 3.58-.339 5.315-.413-.494-1.269-1.412-1.681-1.906l.021.026Z"/>
    <path fill="#5F5D59" d="M148.018 171.157c1.45 3.114 5.039 1.264 6.942-.325.752-2.173.439-4.561-1.824-5.627-.195-1.029-.365-2.079-.582-3.134-5.656-2.426-7.151 5.532-4.536 9.086Zm2.316-7.717c1.503 1.746 2.545 3.789 3.388 5.91a73.197 73.197 0 0 1-1.899 1.807c-3.349-.513-4.026-6.039-1.489-7.717Z"/>
    <path fill="#000" d="M136.717 143.166c1.62.986 3.071 2.246 4.861 2.958.108 2.778 1.372 5.298 4.039 6.425-.786.171-1.624.386-2.432.531-1.817 3.283-.523 8.117 2.618 10.128 5.43-1.446 2.473-7.583 1.109-11.123 1.247-1.262 2.429-2.603 3.272-4.19-.391-.997-.756-2.017-1.173-2.993 1.729.587 3.454.161 5.118-.39a13.724 13.724 0 0 0 1.047-3.568c-1.703-1.932-3.97-3.481-6.612-2.775-.817 2.095-1.412 4.667.482 6.351a66.603 66.603 0 0 0-5.826.232c.183-.417.526-1.278.704-1.648-.265-.264-.777-.718-.999-.931 1.508-3.069-2.949-6.232-5.43-3.851-1.72 1.173-1.286 3.282-.713 4.922l-.065-.078Zm8.075 11.838c1.937 1.472 2.332 3.746 1.459 5.932-1.473-1.551-2.515-3.858-1.459-5.932Zm132.796 20.74c-.987 2.633-2.925 5.135-2.061 8.077 4.205 2.225 8.389-1.402 7.304-5.88-1.694-.969-3.036-3.688-5.217-2.219l-.026.022Zm1.337 1.442a46.52 46.52 0 0 0 2.815 1.621c.169 2.11-1.017 3.763-3.024 4.381-2.558-1.527-1.09-4.166.188-6.028l.021.026Zm-4.389 18.057c.152-.877.33-1.777.482-2.654-.79-1.9-.412-3.937-.642-5.908-1.364-1.421-3.288-1.182-4.735-.106.295 2.579-2.173 4.817-1.435 7.29 1.803 1.363 4.188 1.093 6.33 1.378Zm-14.809-80.192c.152-.878.33-1.777.482-2.655-.79-1.9-.412-3.937-.642-5.908-1.364-1.421-3.289-1.181-4.735-.105.295 2.578-2.173 4.816-1.435 7.29 1.803 1.363 4.188 1.092 6.33 1.378Zm15.459 58.241c1.307 1.777 3.197.331 4.722-.281 2.659-2.751 1.052-6.529-2.002-8.171-3.189 1.428-5.27 5.506-2.742 8.426l.022.026Zm1.282-4.558c.642.61 1.316 2.211.759 3.029-1.242-.11-1.528-2.254-.759-3.029Zm4.259-21.391c.37 1.501.261 3.49 1.872 4.307 2.316.758 5.027-.447 5.978-2.699-.629-2.343-2.115-5.605-5.034-5.285-1.199 1.002-1.886 2.458-2.794 3.702l-.022-.025Zm2.103-.344c.435-.275 1.299-.777 1.734-1.051.868 1.04 1.685 2.123 2.501 3.207-1.794 2.514-4.995.642-4.209-2.178l-.026.022Z"/>
    <path fill="#5F5D59" d="M167.832 326.27c-.444.9-.909 1.774-1.395 2.622 1.298 3.461 1.519 7.382 3.643 10.507 2.129-1.16 4.193-2.399 6.152-3.815.161-2.827-.394-5.717-2.44-7.849-.639.137-1.325.269-1.964.405-1.255-.761-2.576-1.335-3.97-1.892l-.026.022Zm.985 2.663c3.189.691 3.571 4.433 1.52 6.588-.968-2.06-1.389-4.313-1.52-6.588Z"/>
    <path fill="#000" d="M176.523 109.649c.369 1.501.26 3.49 1.871 4.307 2.316.758 5.027-.447 5.978-2.698-.651-2.37-2.115-5.605-5.056-5.311-1.199 1.002-1.885 2.458-2.793 3.702Zm2.102-.344c.456-.249 1.299-.776 1.755-1.025a52.676 52.676 0 0 1 2.455 3.203c-1.773 2.54-4.996.642-4.21-2.178Zm-39.303 201.009c-.856 2.525-1.269 5.21-.665 7.84.339.246.995.713 1.355.986 1.69-.043 3.384.131 4.931.869.612 3.859 3.826 8.236 8.088 5.603.339-1.607.535-3.228.757-4.869.464-.08 1.416-.212 1.881-.292.734-1.187 1.694-2.21 2.871-2.973-.165 2.346-.934 4.975.686 7.02 2.172-.314 4.375-.432 6.477-1.041.574-4.452 5.274 1.598 8.154-.146.991 1.556 2.064 2.999 3.21 4.425 2.325-.662 4.384-2.117 4.241-4.778 2.007-1.677-.152-3.626-.834-5.396-1.503-.157-2.893.299-4.105 1.179-1.16-1.548-2.367-3.099-3.757-4.498-.283.457-.895 1.366-1.178 1.822-.239-.286-.638-.923-.851-1.231-1.303-.235-2.585-.445-3.936-.685-1.351 1.88-.635 4.062-.1 6.132a52.068 52.068 0 0 0-1.955-.221c.069-2.089-.499-4.041-2.133-5.414 1.634-.482 2.868-1.601 2.598-3.406a35.675 35.675 0 0 0 1.708-.764c-.556-1.302-1.134-2.629-1.538-4.013-.564-.411-1.125-.87-1.733-1.333-.408-3.455-1.563-7.169-5.173-8.524-1.042.342-2.133.679-3.197.994-1.851 2.606-1.474 5.866-.001 8.476l3.245 1.659a88.166 88.166 0 0 1-.07 3.413 84.453 84.453 0 0 0-4.162-.055c-.417-2.83-1.433-5.953-4.717-6.388-1.451 1.124-3.258 1.398-5.031 1.554-.317 4.282 2.684 7.557 5.621 10.225-1.443.498-2.881.949-4.301 1.474.474-3.883-2.298-7.571-6.364-7.618l-.022-.026Zm12.751 1.223c-.626.523-1.226 1.024-1.856 1.594-.195-.234-.708-.689-.951-.927a54.854 54.854 0 0 0 2.294-2.446c.13.421.387 1.311.491 1.753l.022.026Zm4.714-6.277c-.343-1.524-.76-3.029-1.177-4.535a35.493 35.493 0 0 0 1.577-1.98c.087.899.174 1.798.239 2.67a54.919 54.919 0 0 0 2.198-.335c1.907 2.6.221 4.98-2.859 4.154l.022.026Zm23.244 16.381a70.678 70.678 0 0 1-1.517 3.694c-3.271-1.372-1.876-6.378 1.517-3.694Zm-12.906-4.271c1.881-2.41 4.987 1.043 7.137 1.762-1.486 4.685-6.842 2.141-7.137-1.762Zm-5.635.249c.169 1.315 2.05 4.467-.626 3.966.217-1.33.409-2.637.626-3.966Zm-5.86-1.77a42.295 42.295 0 0 0-1.355-.722c.061-.404.156-1.19.217-1.594a11.1 11.1 0 0 0 5.752.051c-.452.73-.904 1.461-1.378 2.165a7.34 7.34 0 0 0-3.236.1Zm-8.007 5.408c.704-1.117 1.443-2.352 2.715-2.842.622 1.644 1.221 3.262 1.646 4.937-.973.107-1.994.209-3.015.312-.456-.811-.89-1.596-1.372-2.385l.026-.022Zm-6.094-6.341c1.277-.273 1.855 1.849.634 2.295-1.204.255-1.664-1.832-.634-2.295Zm38.998-4.019c1.764 2.588 5.457.121 6.378-2.061-.135-1.962-.686-3.841-1.064-5.777-.851-.171-1.703-.343-2.576-.54l-2.698 1.856c-.1 2.158-.665 4.396-.04 6.522Zm-57.789-55.191c-.287 2.888-.696 6.054 1.428 8.385 2.025 2.105-.083 4.881-1.273 6.847a44.02 44.02 0 0 1 1.003 3.267c1.264.665 2.502 1.352 3.744 1.992 3.146-.42 5.405-2.484 5.318-5.767-1.941-1.953-2.601-4.756-4.595-6.666a30.615 30.615 0 0 0 1.495-3.986c-1.603-1.707-3.197-3.509-4.77-5.285-.76.414-1.546.85-2.328 1.239l-.022-.026Zm3.101 3.765c1.391-.19 1.308 2.042.152 2.301-1.368.216-1.307-2.042-.152-2.301Zm97.753-149.106c1.477 3.092 5.039 1.264 6.942-.326.752-2.173.44-4.56-1.824-5.627-.195-1.029-.364-2.079-.607-3.112-5.656-2.426-7.152 5.533-4.537 9.087l.026-.022Zm2.317-7.718c1.502 1.746 2.519 3.811 3.387 5.91a70.596 70.596 0 0 1-1.924 1.829c-3.35-.513-4.027-6.039-1.49-7.717l.027-.022Zm20.91 220.055c-.957 2.829-1.248 6.03 1.024 8.326 2.563-.376 5.508-1.247 6.16-4.175a91.131 91.131 0 0 0 3.571 5.757c-.513.075-1.56.199-2.073.275-.108.399-.299 1.177-.36 1.581-3.997.249-4.649 6.62-.779 7.757 2.168 1.058 4.075-.579 5.396-2.124.083-2.232.5-4.434.196-6.652 2.733-1.709 4.575-4.484 4.206-7.84l1.946 2.171c4.414-.068 8.572-4.203 8.82-8.516-4.587-4.643-9.158 1.912-11.973 5.323-2.003-.49-4.058-.936-6.134-.879-.787.966-1.573 1.932-2.385 2.92-.439-2.062-1.842-3.582-3.358-4.92-1.455.112-2.885.467-4.257.996Zm25.453-2.591c-.748 2.39-2.46 4.792-5.192 4.911.4-2.806 2.485-4.548 5.192-4.911ZM128.494 104.129c1.468.539 3.067.44 4.596.575 1.108-1.058 2.902-1.983 2.82-3.724-.478-2.426-2.85-4.153-5.308-3.865-1.747 1.724-3.841 4.622-2.108 7.014Zm3.081-5.796c3.058.27 3.005 4.022.194 4.737a30.693 30.693 0 0 1-1.763-.999c.452-1.26 1.021-2.486 1.569-3.738Zm-79.265 78.31c-1.772-2.758-5.687-.238-6.734 2.005.104 2.032.621 4.028.968 6.033.873.198 1.768.421 2.69.623.947-.614 1.92-1.251 2.867-1.865.156-2.25.826-4.575.187-6.822l.022.026Zm105.771 96.417-1.395 2.621c1.298 3.462 1.52 7.382 3.643 10.508 2.155-1.182 4.193-2.399 6.152-3.815.161-2.827-.394-5.718-2.419-7.823-.638.136-1.325.268-1.985.379-1.234-.735-2.602-1.314-3.975-1.844l-.021-.026Zm.985 2.663c3.189.691 3.571 4.433 1.52 6.588-.99-2.086-1.389-4.313-1.52-6.588Z"/>
    <path fill="#5F5D59" d="M169.659 302.761c-1.169 3.051 1.233 7.092 4.674 6.866 2.61-.371 4.275-2.511 4.974-4.906-.377-3.26-2.645-5.338-5.951-5.534-1.286 1.163-2.724 2.143-3.697 3.574Z"/>
    <path fill="#000" d="M177.767 286.718c-2.016 3.362-.766 7.349-.788 11.031.522.095 1.586.309 2.129.429.686-.661 1.377-1.371 2.064-2.033.352-1.486.986-2.898 1.76-4.251-.365-1.019-.73-2.039-1.069-3.08-1.359-.674-2.689-1.417-4.07-2.117l-.026.021Zm1.216 2.516c1.968 2.196 2.493 5.156.303 7.515-.569-2.482-.699-5.022-.303-7.515Zm-69.819-44.48c-2.016 3.362-.766 7.349-.762 11.009a70.44 70.44 0 0 0 2.129.429c.686-.661 1.377-1.371 2.064-2.033.378-1.507.986-2.898 1.759-4.251-.338-1.041-.729-2.039-1.068-3.08a222.611 222.611 0 0 0-4.07-2.117l-.052.043Zm1.242 2.494c1.963 2.244 2.488 5.204.303 7.515-.547-2.456-.677-4.996-.303-7.515Zm102.184 44.546a39.365 39.365 0 0 0 3.484-2.823c-.03-2.314.561-6.427-2.84-6.367-5.313-.638-5.575 8.321-.644 9.19Zm-.517-5.969c1.321-.221 1.907 2.07.795 2.646-1.242.155-1.907-2.07-.795-2.646Z"/>
    <path fill="#000" d="M201.934 286.614c.352 2.223 3.084 1.308 4.639 1.422 2.316-2.685 3.303-6.114 4.65-9.269 1.49-1.819 3.006-3.66 3.415-6.032.313-.261.999-.658 1.312-.919-.538-3.082-3.201-6.905-6.616-4.582-.83 2.503-1.33 5.084-1.76 7.695-6.056-.15-6.843 7.173-5.688 11.681l.048.004Zm6.026-8.256c-.408.253-1.255.828-1.642 1.107.352 2.222.169 4.494-1.161 6.399-2.628-2.351-1.128-11.417 2.829-7.528l-.026.022Zm-95.849-87.402c.295.46.517.937.812 1.396-.869.815-1.864 1.425-3.072 1.463a6.76 6.76 0 0 0-1.672-1.472c-1.82.152-3.254 1.35-4.74 2.326.135-1.746-.395-3.334-1.841-4.377.056-.886.065-1.776.096-2.64-1.533-2.736-5-3.018-7.542-1.557-1.407 1.441-1.855 3.448-2.29 5.312-.951.927-1.863 1.954-2.754 3.007.994 1.773 1.533 4.06 3.74 4.689a53.625 53.625 0 0 0-2.151 2.458c.204.669.43 1.363.656 2.057 2.172 1.011 4.587 2.259 6.89.777.825-2.19.465-5.112 2.298-6.731.374 1.453.921 2.85 1.646 4.142 2.95-1.449 8.163-.242 9.541-3.467l-2.503.501c1.521-2.418 5.166-2.77 7.781-2.13.925-.64 1.829-1.307 2.707-1.952.504.815 1.007 1.63 1.537 2.424 4.31.019 8.806-4.399 6.309-8.713a30.208 30.208 0 0 0-2.068-.303c-2.05.83-3.797 2.289-5.856 2.95-2.042-1.385-4.292-2.33-6.764-1.369.243-.291.713-.948.934-1.266 3.193-.151 6.195-1.379 8.667-3.399-.204-.669-.364-1.285-.569-1.953a15.97 15.97 0 0 0-1.042-.718c-.339-.777-.656-1.527-1.021-2.282-2.671.776-6.408 1.336-6.881 4.69-1.547-.209-3.128-.036-4.644.215 1.303-1.618 2.785-3.606 2.572-5.768-1.72-2.006-4.4-2.195-6.872-2.028-1.729-2.175.057-6.183-3.592-7.373-1.92.722-4.18 1.196-4.84 3.426-.326.139-.977.419-1.282.585-.365.834-.751 1.643-1.116 2.477 2.358 1.341 4.2 3.333 5.403 5.727.374.129 1.117.436 1.49.565.061 1.715.838 3.229 1.846 4.594.786.094 1.568.235 2.328.35a80.29 80.29 0 0 1-.126 2.445c1.338.648 2.646 1.366 4.014 1.944 1.382-.095 2.702-.58 3.953-1.095l.018.073Zm-16.08-15.17c-.487-2.595 2.993-3.516 4.969-3.534-.261 2.602-2.928 3.064-4.97 3.534Zm4.899 4.912c-.413-.229-1.19-.683-1.581-.886a49.925 49.925 0 0 1 2.754-2.743c1.073 1.443-.122 2.662-1.173 3.629Zm6.916 1.55c-1.212 1.675-2.868 2.925-4.853 3.568l-1.056-1.899c2.268 1.284 3.858-1.104 5.909-1.669Zm.651 7.402c-.178-2.015 1.438-2.57 3.11-2.687-.269 1.637-1.551 2.487-3.11 2.687Zm6.316 2.051a35.891 35.891 0 0 1 2.728-.072c.074.777.147 1.554.195 2.353-.499.196-.999.393-1.477.616a86.779 86.779 0 0 0-1.468-2.923l.022.026ZM92.5 197.362c-.551-1.084-1.055-2.164-1.433-3.305.93-.688 1.834-1.355 2.759-1.995.573.315 1.12.652 1.668.99-.474 1.764-1.59 3.182-2.994 4.31Zm4.549-.224c-.596.188-1.195.424-1.79.613.487-.848 1.02-1.692 1.594-2.436.03.46.14 1.385.217 1.849l-.021-.026Zm2.237-1.56c.309-1.273-.095-2.922.956-3.888 1.873.863.804 3.61-.956 3.888Z"/>
    <path fill="#474340" d="M342.394 261.269c1.498 1.794 4.235 2.951 4.743 5.307-1.433-.391-2.91-.57-4.427-.584-.2 3.258-3.81 7.201-1.73 10.009.291-.817.531-1.59.822-2.408 1.359 2.529-.127 5.889-2.013 7.817.092 1.116.209 2.21.326 3.304-.943.037-1.912.096-2.854.133-2.168 3.709-.557 9.823 4.434 9.758l1.304-1.618c.295-2.189-.104-4.416.356-6.566 2.22-1.105 4.141-2.62 4.545-5.209.135.373.456 1.075.639 1.453-1.439 2.834-1.878 6.07-1.344 9.2.66.154 1.321.309 1.959.438.278-.144.882-.428 1.182-.546a84.38 84.38 0 0 0 2.481.267c.656-2.711 1.986-6.205-.669-8.27.935-1.266 1.595-2.7 2.138-4.169.786 1.947 1.737 4.199 3.753 5.075 2.624-.515 4.08-2.746 5.17-4.937 2.763-.454 5.356 3.074 8.193.483.352-2.015 1.009-4.197-.572-5.878.056-.356.121-1.072.152-1.407-.534-.745-1.073-1.443-1.629-2.215-2.342 1.383-4.974 1.993-7.663 1.9-.313.261-.913.762-1.247.997-1.495-.782-3.224-.838-4.927-.652-.464.609-.955 1.24-1.446 1.871a92.043 92.043 0 0 0-2.072-1.315c-1.208.832-2.459 1.613-3.698 2.515-.595 1.247-.843 2.646-1.012 3.98-.53.001-1.06.002-1.616.025-.283-1.132-.343-2.317.261-3.396a7.739 7.739 0 0 0 2.111-.704c.778-1.665.417-3.527.335-5.268 1.455.947 3.11 1.286 4.718.561.751.476 1.529.93 2.259 1.38 3.132-.012 5.126-2.87 5.127-5.784-.548-1.926-2.085-3.29-3.506-4.62a36.232 36.232 0 0 0-1.237-3.865c-1.999-.008-4.275-.667-5.913.922-.339-1.041-.708-2.013-1.068-3.08-.713-.111-1.395-.292-2.129-.429-1.933 1.394-4.236 2.876-4.097 5.585l-.139-.06Zm25.964 12.167c2.476.845 1.533 4.325.603 6.073-2.128-1.489-1.246-4.035-.603-6.073Zm-6.743 1.836c.383-.231 1.173-.715 1.556-.946a65.988 65.988 0 0 1 1.007 3.749c-1.777.204-2.233-1.401-2.563-2.803Zm-5.478-.677c.748-.006 1.447-.016 2.168-.001-2.215 1.321-.956 3.889-1.482 5.961-.816-1.878-1.133-3.953-.686-5.96Zm-6.069 2.907c1.829.812 1.529 2.519.79 4.019-1.251-1.074-1.402-2.58-.79-4.019Zm.215-13.2c-.37-.177-.765-.333-1.021-.428.095-.521.187-.994.282-1.516.031-.069.013-.143.044-.213 0 0 .008-.095.035-.117l.065.078c.504.815.934 1.648 1.311 2.524-.186-.065-.417-.181-.695-.302l-.021-.026Zm5.004-.738-.052.044c-.534.314-1.069.628-1.651.937l-.217-.26c-.725-.762-1.221-1.673-1.542-2.64-.152-.447-.278-.916-.404-1.384-.035-.148-.065-.343-.1-.491a30.09 30.09 0 0 1 3.58.365c.104.707.182 1.437.239 2.14.043.317.086.634.108.924 0 0 .022.026-.009.096a.688.688 0 0 1 .026.243l.022.026Zm-13.365 18.227c1.099.097 2.155.142 3.237.166-.413.83-.821 1.613-1.304 2.413-.695-.302-1.433-.657-2.15-.985.048-.525.143-1.047.217-1.594Zm7.448-14.343a1.987 1.987 0 0 1 .13-.904c.643.611 1.664 1.038 2.303 1.697.286.29.499.598.582 1.014-1.391.985-2.902-.401-3.011-1.855l-.004.048Z"/>
    <path fill="#000" d="M85.391 178.627c.282 4.575 9.574 5.95 7.928-.311-.79-.841-1.507-1.699-2.298-2.539-2.202.118-4.418.91-5.63 2.85Zm2.441.962c.496-.679 1.034-1.306 1.551-1.958 3.271 1.372 1 3.844-1.55 1.958Zm-13.872.243c-.155-3.843-4.568-6.689-8.048-4.709-2.229.406-4.154 4.353-.674 4.227.295.724.586 1.497.855 2.243 2.75.748 5.717.168 7.842-1.739l.026-.022Zm50.828 118.17c4.001 2.087 9.467-.801 9.458-5.473.878-2.499-2.01-6.752-3.909-3.091-.904-.128-1.855-.26-2.78-.414-2.36 2.368-3.481 5.688-2.769 8.978Zm-48.16-113.335c-.178 1.958 1.125 3.518 2.323 4.9 3.545-.577 6.313-3.993 5.297-7.646-2.659-1.487-6.603-.223-7.642 2.72l.022.026Zm1.959.967c.96.302 1.916.651 2.845 1.022-.955.181-1.88.292-2.832.424a32.454 32.454 0 0 1-.013-1.446Z"/>
    <path fill="#000" d="M90.447 183.672c-4.4-2.724-7.216 4.395-3.98 6.945 3.675 1.432 7.559-4.461 3.98-6.945Zm-20.027 6.755c.63.754 1.294 1.126 1.963 1.185a2.22 2.22 0 0 0 1.199-.207c1.373-.529 2.555-2.134 3.007-3.66-.452-.858-.93-1.695-1.386-2.506l-4.296.102c-1.104 1.54-.978 3.333-.51 5.06l.022.026Zm1.377-2.696c.808-.41 1.594-.846 2.376-1.234 1.112 1.543-.595 2.836-1.777 3.647-.16-.616-.438-1.797-.625-2.391l.026-.022Zm-5.339-2.205c-2.702-2.069-5.995-2.408-9.18-1.293-1.28 2.704-.226 5.928 2.663 7.002 2.02-2.085 6.438-2.201 6.517-5.709Zm13.205 12.893c2.936 1.873 6.781.118 8.115-2.895.192-2.896-2.654-5.243-5.404-3.872-1.555 2.005-3.232 4.024-2.685 6.746l-.026.021Zm2.485-5.078c1.586-.485 3.01.002 4.106 1.206-.709 1.695-1.795 3.309-3.824 3.37l-1.281-1.534a72.286 72.286 0 0 0 1-3.042Z"/>
    <path fill="#000" d="M80.05 193.638c-2.098-1.823-4.861-2.428-7.554-2.209-.852 1.683-2.086 3.067-3.346 4.472-1.72-.417-3.588-1.063-5.187.096-.283 2.31-2.194 5.055.169 6.877 3.51.07 6.99-2.44 7.108-6.114 1.854.26 3.692-.083 5.495-.309 1.03-.993 2.194-1.877 3.289-2.792l.026-.021Zm-29.52 7.577c.756.428 1.516.808 2.25 1.21.2 1.246.426 2.47.7 3.698 1.759-.013 3.288-.938 4.804-1.719.796-2.121.965-4.779-1.25-6.106-2.329.444-4.653 1.371-6.504 2.917Zm4.319-.341c.782.141 1.56.33 2.337.52-.626.787-1.252 1.575-1.903 2.384-.152-.977-.257-1.949-.413-2.878l-.021-.026Z"/>
    <path fill="#5F5D59" d="M79.783 210.59c2.685 3.584 8.537.682 8.924-3.305-2.15-5.487-10.13-1.955-8.924 3.305Z"/>
    <path fill="#000" d="M63.714 208.255c-1.829 1.307-1.56 3.378-.739 5.208 2.346.159 4.974.392 6.968-1.142 3.736 2.353 9.762-3.785 6.613-7.29-2.95-.669-5.808.306-7.776 2.612-1.595-.478-3.22-.886-4.874-.695l-.192 1.307Zm7.155.777c.5-.727 1-1.453 1.473-2.158.552 1.085 1.077 2.191 1.703 3.257a27.78 27.78 0 0 1-1.3 1.041c-.443-.159-.86-.341-1.303-.5-.13-.421-.443-1.219-.573-1.64Zm-19.932 5.438c.108 2.249.73 5.483 3.458 5.676 1.129-.503 2.254-.957 3.418-1.312 2.078-3.765-4.082-8.066-6.876-4.364Zm3.032.292c1.799.352 4.231 2.204 1.477 3.357-2.702 2.17-3.836-2.048-1.477-3.357Zm6.346 6.75c.495 1.97 1.742 3.621 3.023 5.155 3.615-.283 5.531-3.87 8.629-5.354 1.107 3.71 6.194 3.654 7.902.506 3.271-4.19-3.362-9.905-7.267-6.422a177.152 177.152 0 0 1-2.069 4.465c-3.31-1.472-8.527-2.632-10.24 1.624l.022.026Zm14.076-4.343c2.38-1.018 4.24.784 4.583 3.102-1.03.727-1.894 1.759-3.172 2.031-2.141-.815-2.228-3.303-1.433-5.159l.022.026Zm17.482-1.803c-1.386-1.976-4.653-1.277-6.525-.287-1.742 2.735-3.255 6.647-1.313 9.66 4.114.315 6.247-3.541 9.162-5.668-.295-2.313-3.24-1.707-3.883-3.642.63-.04 1.886-.074 2.537-.089l.022.026Zm-.657 6.95a267.08 267.08 0 0 1-1.925 5.801l1.915 1.181c2.26-1.005 4.766-2.083 5.648-4.63.7-2.394 3.676-2.011 5.622-1.96a83.53 83.53 0 0 1 1.977-2.136c-.035-1.207-.043-2.436-.078-3.643-1.638-2.12-4.114-2.964-6.538-1.469-.617 2.281-2.455 3.949-3.05 6.256-1.19.112-2.411.293-3.593.574l.022.026Zm3.119 1.985c.76.91-1.013 1.861-1.643 1.107-.755-.958.939-1.844 1.643-1.107Zm-26.74 7.726c.695 6.13 8.332 3.457 10.118-.55 1.99-2.81-1.376-4.986-3.705-5.866-2.254.427-4.192 1.869-4.01 4.365l-2.45 2.047.047.004Zm5.744-4.621c.847.219 1.69.486 2.533.753 1.207 3.141-3.29 6.5-5.983 5.13.773-2.146 2.06-4.104 3.498-5.879l-.048-.004Z"/>
    <path fill="#5F5D59" d="M82.444 229.776c-.821 2.407-1.074 5.178.868 7.132 2.22-.31 4.722-1.076 5.266-3.605.93 1.696 1.984 3.33 3.04 4.965l-1.777.204c-.078.33-.26 1.012-.317 1.368-3.415.204-3.937 5.672-.674 6.611 1.868.911 3.488-.487 4.622-1.831.053-1.898.444-3.814.179-5.667 2.35-1.478 3.936-3.818 3.593-6.666.57.629 1.143 1.209 1.686 1.859 3.762-.053 7.311-3.592 7.529-7.305-3.901-3.981-7.828 1.596-10.24 4.537-1.72-.417-3.466-.812-5.252-.777l-2.033 2.493c-.343-1.788-1.55-3.075-2.867-4.226-1.238.107-2.446.41-3.619.86l-.004.048Zm21.782-2.217c-.643 2.038-2.107 4.1-4.453 4.205.339-2.402 2.112-3.883 4.453-4.205Z"/>
    <path fill="#000" d="M78.55 245.565c1.468.539 3.067.439 4.596.574 1.112-1.105 2.902-1.983 2.824-3.771-.503-2.405-2.849-4.153-5.286-3.839-1.768 1.698-3.84 4.621-2.13 6.988l-.004.048Zm3.107-5.818c3.054.318 3.006 4.022.195 4.737-.434-.255-1.303-.765-1.764-.999.478-1.282 1.021-2.486 1.569-3.738Zm5.858 14.749c.052 1.281.1 2.609.126 3.912 3.34.078 5.795-2.546 8.515-4.112-.13-.421-.434-1.315-.565-1.735a71.644 71.644 0 0 0-2.371-.667c-1.26.346-2.572.471-3.901.522-.618.692-1.187 1.388-1.83 2.101l.026-.021Zm6.977-1.503c-1.577 1.45-3.445 2.658-5.443 3.444.821-2.407 2.802-4.062 5.443-3.444Zm107.921 63.281c.078 1.524.108 3.044.16 4.59 3.919.081 6.799-2.987 9.975-4.802-.169-.52-.486-1.536-.656-2.056-.938-.276-1.855-.525-2.771-.775-1.482.399-3.015.576-4.557.585-.726.826-1.404 1.658-2.151 2.458Zm8.133-1.761a20.094 20.094 0 0 1-6.387 4.011c.956-2.83 3.276-4.768 6.387-4.011ZM87.971 141.291c2.267 2.608 5.17-.17 6.586-2.236.135-2.275-.842-4.505-3.31-4.915-.469-.933-.933-1.913-1.424-2.871-6.121-.758-5.362 7.304-1.848 9.974l-.004.048Zm.105-8.034c1.933 1.255 3.488 2.957 4.891 4.743-.43.756-.886 1.535-1.316 2.291-3.341.452-5.57-4.706-3.553-7.008l-.022-.026Z"/>
    <path fill="#5F5D59" d="M71.444 153.507c1.855.526 3.567 1.303 5.474 1.52.868 2.629 2.775 4.699 5.634 5.048-.734.393-1.469.786-2.229 1.2-.839 3.658 1.759 7.933 5.32 9.018 4.793-2.899.293-7.968-2.01-10.989.844-1.587 1.59-3.182 1.99-4.929a98.447 98.447 0 0 0-1.932-2.579c1.824.065 3.35-.811 4.787-1.792.21-1.234.179-2.488.027-3.73-2.142-1.345-4.757-2.25-7.124-.846-.205 2.245-.058 4.859 2.227 5.952-1.876.508-3.718 1.164-5.513 1.824.018-.456.148-1.359.187-1.789-.3-.147-.92-.467-1.268-.618.596-3.367-4.565-5.147-6.277-2.216-1.325 1.592-.344 3.509.686 4.9l.021.026Zm11.042 9.139c2.233.872 3.271 2.962 3.01 5.299-1.828-1.077-3.462-2.979-3.01-5.299Z"/>
    <path fill="#000" d="M72.462 143.123c.769 1.344 1.22 3.262 2.971 3.609 2.472.098 4.718-1.822 4.988-4.254-1.256-2.086-3.588-4.772-6.312-3.688-.865 1.296-1.151 2.86-1.647 4.333Zm1.912-.891c.347-.378 1.016-1.114 1.386-1.467 1.112.749 2.193 1.567 3.275 2.385-1.034 2.894-4.662 1.996-4.661-.918Zm-14.914 2.439c-.874 3.246 1.094 6.237 1.975 9.252.46-.031 1.408-.116 1.82-.152.426-.709.83-1.444 1.208-2.157-.073-1.306.144-2.636.431-3.935a1363.53 1363.53 0 0 0-1.624-2.262l-3.832-.772.022.026Zm1.62 1.78c2.142 1.345 3.28 3.661 2.045 6.105a17.276 17.276 0 0 1-2.045-6.105Zm305.471 79.63c-.226 2.484-.565 5.151 1.225 7.187 1.715 1.789-.044 4.186-1.087 5.852.304.893.577 1.857.855 2.772 1.082.553 2.159 1.154 3.215 1.729 2.659-.367 4.601-2.122 4.545-4.944-1.655-1.663-2.229-4.098-3.936-5.718.509-1.086.926-2.229 1.295-3.377a182.204 182.204 0 0 1-4.065-4.549c-.661.375-1.343.724-2.025 1.074l-.022-.026Zm2.672 3.197c1.194-.159 1.116 1.76.156 1.989-1.173.185-1.116-1.76-.156-1.989Zm2.152-15.967c1.45 3.114 5.039 1.264 6.942-.325.752-2.173.439-4.561-1.824-5.628-.196-1.028-.387-2.105-.582-3.133-5.656-2.426-7.151 5.532-4.536 9.086Zm2.316-7.717c1.503 1.746 2.545 3.788 3.388 5.91-.634.618-1.243 1.214-1.899 1.806-3.327-.486-4.026-6.038-1.489-7.716Z"/>
    <path fill="#000" d="M352.103 220.494c1.62.986 3.071 2.245 4.861 2.957.108 2.779 1.372 5.299 4.039 6.425-.786.172-1.62.339-2.433.532-1.816 3.283-.522 8.117 2.593 10.15 5.43-1.447 2.472-7.584 1.109-11.123 1.225-1.289 2.428-2.603 3.271-4.19-.39-.998-.755-2.017-1.172-2.993 1.729.586 3.432.135 5.096-.417.512-1.134.838-2.334 1.025-3.593-1.707-1.885-3.948-3.455-6.637-2.754-.817 2.095-1.413 4.667.481 6.351a67.37 67.37 0 0 0-5.825.232c.182-.417.525-1.278.703-1.647-.265-.265-.777-.719-1.02-.957 1.507-3.07-2.975-6.211-5.43-3.851-1.721 1.172-1.308 3.255-.713 4.921l.052-.043Zm8.075 11.838c1.915 1.445 2.332 3.746 1.459 5.932-1.473-1.551-2.515-3.858-1.459-5.932Zm-106.38-87.61c1.62.986 3.071 2.246 4.861 2.958.086 2.753 1.372 5.298 3.991 6.421-.786.171-1.598.364-2.432.531-1.817 3.283-.501 8.143 2.618 10.128 5.383-1.451 2.473-7.583 1.109-11.123 1.225-1.288 2.407-2.629 3.272-4.189-.391-.998-.756-2.018-1.173-2.994 1.729.587 3.454.161 5.07-.394.534-1.109.865-2.356 1.047-3.568-1.681-1.906-3.97-3.481-6.637-2.754-.817 2.095-1.387 4.646.507 6.33-1.924-.026-3.884.066-5.799.21.182-.417.521-1.23.682-1.674-.243-.238-.756-.692-.999-.931 1.508-3.069-2.949-6.232-5.404-3.872-1.747 1.194-1.308 3.255-.713 4.921Zm8.075 11.838c1.915 1.446 2.332 3.746 1.437 5.906-1.447-1.572-2.515-3.858-1.437-5.906Z"/>
    <path fill="#000" d="M355.949 210.792c.395 1.48.26 3.491 1.85 4.281 2.316.759 5.027-.446 5.978-2.698-.651-2.369-2.115-5.605-5.082-5.289-1.199 1.002-1.886 2.458-2.794 3.702l.048.004Zm2.103-.344c.456-.248 1.299-.776 1.755-1.024a52.639 52.639 0 0 1 2.454 3.202c-1.768 2.493-4.996.642-4.209-2.178Zm-15.014-1.76c-1.707 2.883-.669 6.298-.644 9.455a23.4 23.4 0 0 0 1.799.351l1.772-1.745c.309-1.273.852-2.477 1.487-3.625-.304-.894-.613-1.74-.917-2.634a68.31 68.31 0 0 0-3.497-1.802Zm1.056 2.164c1.659 1.881 2.128 4.402.26 6.404-.482-2.113-.599-4.266-.26-6.404Zm-145.947-49.039-1.217 2.253c1.103 2.963 1.281 6.301 3.084 8.989 1.824-.995 3.584-2.067 5.261-3.292.148-2.419-.326-4.892-2.063-6.707-.565.118-1.13.237-1.716.33a21.746 21.746 0 0 0-3.371-1.599l.022.026Zm.829 2.265c2.715.601 3.028 3.783 1.316 5.654-.825-1.782-1.181-3.692-1.316-5.654Z"/>
    <path fill="#000" d="M173.76 148.197c-.726 2.151-1.104 4.453-.562 6.692.27.217.861.606 1.13.823 1.446-.017 2.906.088 4.196.732.543 3.298 3.31 7.034 6.933 4.802.291-1.347.47-2.776.644-4.157.39-.062 1.22-.181 1.611-.243.648-1.026 1.425-1.897 2.446-2.529-.078.86-.234 1.785-.295 2.719-.057 1.151.056 2.293.833 3.276.952-.132 1.899-.217 2.85-.35.925-.111 1.829-.248 2.72-.506.491-3.809 4.5 1.361 6.994-.104.847 1.278 1.763 2.587 2.741 3.757 1.976-.547 3.705-1.815 3.597-4.064 1.721-1.437-.104-3.092-.712-4.614-1.264-.136-2.48.262-3.51.99-.986-1.339-2.024-2.635-3.193-3.822l-1.008 1.549c-.217-.26-.577-.798-.768-1.08-1.091-.192-2.229-.389-3.341-.608-1.182 1.605-.561 3.514-.092 5.241-.547-.072-1.121-.123-1.668-.195.065-1.776-.456-3.46-1.841-4.642 1.385-.407 2.437-1.374 2.215-2.91.352-.162 1.104-.481 1.456-.642-.478-1.102-.977-2.23-1.303-3.414-.495-.381-.969-.736-1.464-1.117-.356-2.969-1.32-6.136-4.417-7.301-.895.306-1.812.587-2.724.819-1.573 2.197-1.278 5.04-.014 7.295.921.466 1.864.959 2.784 1.426-.017.985-.034 1.971-.074 2.931a187.154 187.154 0 0 0-3.558-.074c-.382-2.417-1.246-5.094-4.03-5.461-1.243.95-2.781 1.175-4.288 1.331-.283 3.635 2.28 6.438 4.79 8.755-1.242.42-2.459.818-3.658 1.29.422-3.31-1.962-6.482-5.429-6.5l.009-.095Zm10.886 1.058c-.521.436-1.069.893-1.568 1.354-.196-.234-.621-.584-.821-.77a27.321 27.321 0 0 0 1.972-2.09c.135.373.309 1.111.443 1.484l-.026.022Zm4.028-5.351c-.291-1.302-.656-2.586-.995-3.892.461-.562.895-1.101 1.356-1.662l.226 2.283a41.782 41.782 0 0 0 1.881-.291c1.65 2.24.19 4.255-2.42 3.566l-.048-.004Zm19.873 13.988c-.435 1.07-.843 2.117-1.299 3.16-2.807-1.187-1.598-5.462 1.299-3.16Zm-11.034-3.671c1.586-2.076 4.279.883 6.077 1.5-1.277 3.98-5.851 1.842-6.077-1.5Zm-5.361 3.595c.174-1.116.352-2.28.526-3.397.139 1.12 1.772 3.817-.526 3.397Zm-4.47-4.873c-.369-.178-.756-.428-1.147-.631.057-.357.118-1.026.174-1.382 1.642.482 3.306.461 4.931.075a38.2 38.2 0 0 1-1.182 1.87c-.921-.202-1.842-.139-2.776.068Zm-6.851 4.619c.595-.982 1.243-2.009 2.342-2.441.521 1.418 1.046 2.789 1.42 4.243-.852.093-1.703.186-2.55.232-.374-.659-.791-1.37-1.186-2.055l-.026.021Zm-5.191-5.419c1.104-.215 1.59 1.586.543 1.975-1.008.224-1.399-1.569-.543-1.975Zm33.36-3.457c1.507 2.228 4.665.075 5.461-1.781-.113-1.671-.569-3.277-.899-4.943-.734-.138-1.442-.296-2.198-.46-.769.51-1.543 1.068-2.312 1.578-.095 1.846-.582 3.753-.026 5.584l-.026.022Z"/>
    <path fill="#000" d="M199.713 141.701c-1.008 2.608 1.037 6.063 3.996 5.843 2.241-.283 3.662-2.132 4.258-4.175-.348-2.799-2.281-4.583-5.109-4.737-1.077.988-2.311 1.842-3.145 3.069Zm6.883-13.695c-1.708 2.883-.67 6.298-.644 9.454.451.064 1.372.266 1.798.352.582-.575 1.19-1.171 1.773-1.746.308-1.273.851-2.477 1.486-3.625-.309-.846-.613-1.739-.917-2.633-1.151-.583-2.324-1.193-3.496-1.802Zm1.055 2.164c1.659 1.88 2.128 4.402.26 6.404a17.384 17.384 0 0 1-.26-6.404Zm-45.732.992c1.507 2.228 4.666.075 5.461-1.781-.113-1.672-.569-3.277-.899-4.944-.734-.137-1.442-.296-2.198-.459a77.056 77.056 0 0 1-2.311 1.578c-.096 1.846-.583 3.753-.027 5.584l-.026.022Z"/>
    <path fill="#5F5D59" d="M152.606 124.199c-.986 2.633 1.038 6.063 4.018 5.869 2.22-.31 3.641-2.159 4.284-4.197-.347-2.8-2.28-4.584-5.108-4.737-1.099.962-2.333 1.816-3.168 3.043l-.026.022Z"/>
    <path fill="#000" d="M159.515 110.482c-1.729 2.857-.67 6.298-.666 9.428.452.064 1.373.266 1.82.378.583-.575 1.191-1.171 1.773-1.746.309-1.273.852-2.477 1.486-3.625-.308-.846-.612-1.739-.916-2.633-1.151-.584-2.298-1.215-3.497-1.802Zm1.055 2.164c1.707 1.885 2.15 4.428.282 6.43a17.997 17.997 0 0 1-.282-6.43Zm176.376 147.612c1.704-4.16-5.846-6.946-7.007-2.666-.204 2.775-1.508 5.718.134 8.319 3.888.681 4.588-3.567 6.899-5.675l-.026.022Z"/>
    <path fill="#474340" d="M357.631 239.138c-2.367-.45-4.253 2.273-4.922 4.333.651 3.164 2.249 7.037 5.737 7.875 3.202-2.631 2.095-6.87 2.73-10.402-1.82-1.437-3.536 1.012-5.304.061l1.781-1.841-.022-.026Z"/>
    <path fill="#000" d="M386.939 262.99c-.039 1.754.182 4.085 1.407 5.446.456.546 1.099.891 1.903 1.059.152-.083.325-.14.503-.245 1.169-.667 2.151-1.664 3.215-2.509.04-.695.179-1.429.196-2.15l.026-.286c.026-.022.005-.048.009-.096a15.372 15.372 0 0 0-.109-.925c-.082-.416-.308-.846-.66-1.214a4.84 4.84 0 0 0-3.032-.821c-1.307.077-2.589.662-3.432 1.719l-.026.022Zm1.581.356s-.065-.078-.056-.173l.104-.088.052-.043c.747-.536 1.525-.612 2.133-.414 1.03.332 1.729 1.381 1.542 2.641-.035.382-.191.778-.447 1.212-.496.149-1.456.378-1.951.526a33.936 33.936 0 0 1-.665-1.696 44.84 44.84 0 0 1-.738-1.943l.026-.022Zm-13.344-14.013c-.803-2.551-4.448-1.405-5.721.144-.365 1.63-.374 3.314-.526 4.986.643.346 1.307.718 1.998 1.068.869-.284 1.785-.565 2.654-.849.617-1.752 1.638-3.443 1.643-5.345l-.048-.004Zm-.513 5.372c-.469 2.776.89 5.039 3.549 5.997 1.307-.607 2.75-1.106 3.892-2.016 1.721-2.232.748-6.098-2.154-6.764-2.228-.39-4.114 1.009-5.287 2.783Zm-6.078 9.625c.061.92.095 1.862.13 2.804.929.901 1.881 1.828 2.836 2.707 2.468-2.238 2.412-5.855 3.312-8.857l-1.655-.869-2.177 1.156c-.682 1.144-1.542 2.127-2.472 3.08l.026-.021Zm4.136-3.102c-.126 2.18-.657 4.3-1.556 6.243-1.068-2.285-.786-4.861 1.556-6.243Zm-135.752 31.829c-2.324 3.84.073 7.664 3.557 9.609.93-.424 1.885-.869 2.789-1.271.774-1.882.839-3.923.122-5.84-2.015-1.141-4.135-2.195-6.494-2.476l.026-.022Zm1.19 4.656c2.155-1.447 4.605.214 2.884 2.711a49.252 49.252 0 0 1-2.884-2.711Zm.041-15.792c-.4 2.011-.413 4.009-.114 6.01a484.07 484.07 0 0 0 3.041 2.05c4.844-1.089 4.341-7.466.175-9.062-1.017.319-2.085.682-3.128 1.024l.026-.022Zm3.531 5.922c-.543-.65-1.055-1.369-1.62-2.045 1.16-3.221 4.878 1.177 1.62 2.045Zm-15.761-.694c.299 5.709 7.463 8.774 11.364 4.279-.308-2.17.014-5.441-2.579-6.32-2.998-.674-6.569-.34-8.785 2.041Zm2.281 1.67c.964-1.335 2.45-2.047 3.884-2.715-.313 1.056-.7 2.13-1.039 3.208.317.75.565 1.47.86 2.194-.89-.271-1.781-.542-2.645-.835-.296-.46-.813-1.396-1.06-1.852Zm-80.638-30.145c-2.325 3.84.073 7.664 3.556 9.609.93-.423 1.886-.869 2.79-1.27.773-1.883.838-3.923.122-5.841-2.016-1.141-4.136-2.195-6.494-2.476l.026-.022Zm1.189 4.656c2.155-1.447 4.605.215 2.885 2.711a49.588 49.588 0 0 1-2.885-2.711Zm-22.077-32.098c-.422 1.986-.414 4.009-.114 6.01 1.021.692 2.042 1.384 3.041 2.051 4.822-1.115 4.34-7.467.179-9.111l-3.128 1.024.022.026Zm3.531 5.923c-.543-.65-1.056-1.37-1.62-2.046 1.138-3.246 4.856 1.152 1.62 2.046Zm176.942 126.568a14.622 14.622 0 0 0-.104 5.12c.886.584 1.724 1.163 2.61 1.747 4.132-.935 3.715-6.414.153-7.764-.895.306-1.764.591-2.659.897Zm3.032 5.06c-.478-.572-.929-1.166-1.381-1.76.973-2.755 4.149.993 1.381 1.76ZM136.635 252.792c.299 5.709 7.463 8.774 11.364 4.279-.308-2.17.014-5.441-2.579-6.32-2.998-.674-6.569-.34-8.785 2.041Zm2.281 1.67c.964-1.335 2.45-2.047 3.884-2.714-.313 1.055-.7 2.129-1.039 3.207.317.75.565 1.47.86 2.195-.89-.272-1.781-.543-2.645-.836-.296-.46-.813-1.396-1.06-1.852Zm9.594-15.694c.03 3.108 1.215 6.488 4.087 8.018 5.474-1.659 6.752-9.348 1.456-12.031-2.05.83-5.274 1.315-5.543 4.013Zm1.598 2.284c1.125.075 2.224.172 3.349.248.643-.449 1.312-.92 1.929-1.347a51.55 51.55 0 0 1-.178 2.753c-.395.375-1.16 1.102-1.534 1.502-1.533-.617-2.55-1.886-3.592-3.134l.026-.022Zm248.125 34.133c.047 2.653 1.037 5.533 3.47 6.856 4.683-1.441 5.761-7.991 1.226-10.294-1.751.712-4.509 1.118-4.744 3.433l.048.005Zm1.385 1.976c.982.063 1.89.143 2.872.206.565-.384 1.129-.767 1.646-1.155-.021.769-.095 1.581-.117 2.349-.365.305-.978.949-1.321 1.28-1.325-.526-2.189-1.614-3.058-2.654l-.022-.026Zm-94.769 40.676c.191.547.335 1.089.521 1.683-.512 1.135-.886 2.33-1.19 3.555l2.372.932c2.828-1.436 6.134-2.034 8.567-4.155-1.195-1.695-2.446-3.298-3.849-4.819-2.424.171-4.804.924-6.425 2.852l.004-.048Zm6.912 2.128c-1.66 1.033-3.519 1.615-5.452 1.95.3-2.767 3.423-3.478 5.452-1.95Zm3.529-18.663c-.447 1.213-.943 2.421-1.395 3.681 3.054 1.378 6.343-.089 9.462-.488l.144-1.841a52.167 52.167 0 0 0-1.907-1.542c-1.312-.14-2.576-.54-3.806-1.058-.808.41-1.664.816-2.498 1.248Zm.651 2.369c1.691-1.897 4.167-2.642 6.356-1.028a18.001 18.001 0 0 1-6.356 1.028Zm-21.476 23.988c-.769 1.834-1.447 3.725-1.512 5.766 3.467 1.606 6.508-.846 7.829-3.98-.461-.763-.899-1.5-1.36-2.263-1.668-.461-3.414-.326-4.957.477Zm4.34 1.539a46.857 46.857 0 0 1-2.007 2.736c-1.438-1.668-.269-3.924 2.007-2.736Zm-12.377 6.853c-.287 2.623.355 5.617 2.592 7.236 4.796-.829 6.752-7.229 2.53-10.059-1.803.491-4.601.533-5.122 2.823Zm1.133 2.098c.947.18 1.868.382 2.815.562.608-.331 1.191-.641 1.799-.973l-.431 2.346c-.365.305-1.133.815-1.472 1.098-1.238-.687-1.999-1.862-2.711-3.033Zm-15.547-7.803c.934 1.648 1.65 4.36 3.944 4.298 2.659-.367 5.383-1.716 6.434-4.272-1.928-4.48-8.596-4.78-10.378-.026Zm4.297-1.691a39.7 39.7 0 0 0 2.35-.153c.382.298 1.077.865 1.412 1.16-.413 1.36-1.373 2.383-2.329 3.358a57.64 57.64 0 0 1-.1-2.874c-.456-.546-.895-1.019-1.355-1.517l.022.026Zm-16.307 27.527c-1.981 3.244.077 6.556 3.057 8.216l2.412-1.087c.63-1.63.738-3.354.07-5.002-1.721-.947-3.541-1.854-5.539-2.127Zm1.007 4.014c1.873-1.255 3.958.181 2.489 2.291-.825-.724-1.672-1.473-2.489-2.291Zm-10.377-9.032c.278 4.889 6.398 7.5 9.735 3.653-.286-1.879-.034-4.65-2.206-5.396-2.598-.566-5.608-.303-7.529 1.743Zm1.938 1.472c.829-1.179 2.085-1.743 3.345-2.354-.3.913-.6 1.826-.921 2.712.251.673.486 1.271.742 1.896-.751-.211-1.498-.47-2.272-.707-.204-.403-.686-1.192-.916-1.573l.022.026Zm8.207-13.434c.047 2.653 1.064 5.512 3.47 6.856 4.657-1.418 5.787-8.012 1.252-10.315-1.75.712-4.509 1.118-4.722 3.459Zm1.39 1.929c.956.084 1.916.121 2.845.227a41.1 41.1 0 0 1 1.673-1.176l-.144 2.371c-.339.283-.999.923-1.342 1.254-1.277-.522-2.19-1.614-3.058-2.654l.026-.022Z"/>
  </g>
  <defs>
    <clipPath id="clip0_701_3236">
      <path fill="#fff" d="m229.472 0 234.807 281.083-229.473 191.693L0 191.693z"/>
    </clipPath>
  </defs>
</svg>