<svg xmlns="http://www.w3.org/2000/svg" width="54" height="43" fill="none" viewBox="0 0 54 43">
  <path fill="#FFE5B1" stroke="#000" stroke-linecap="round" stroke-linejoin="round" stroke-width="1.25" d="M52.77 23.62c0 1.99-1.61 3.6-3.59 3.6h-3.07a3.596 3.596 0 0 1 0 7.19h-3.98c1.99 0 3.59 1.61 3.59 3.59 0 1.98-1.6 3.59-3.57 3.59h-.02l-24.86-.04C8.24 41.51.96 34.17 1 25.14c.02-3.71 1.26-7.11 3.36-9.85 2.09-2.72 5.02-4.78 8.41-5.76 3.62-1.05 7.02-2.74 9.86-5.22l2.58-2.27a4.356 4.356 0 0 1 6.14.49 4.365 4.365 0 0 1 .32 5.21c-.22.34-.48.65-.81.93l-4.82 4.17H45.1c1.99 0 3.59 1.61 3.59 3.59 0 1.99-1.6 3.6-3.59 3.6h4.08c1.98 0 3.59 1.61 3.59 3.59Z"/>
  <path stroke="#000" stroke-linecap="round" stroke-linejoin="round" stroke-width="1.25" d="M45.1 20.03H30.88m-4.84-7.19h-.01m20.08 14.38H32.56m9.57 7.19H29.26"/>
  <path fill="#FFE5B1" d="M18.39 29.44c8.42-4.79 3.45-12.97 3.45-12.97l4.19-3.63h.01"/>
  <path stroke="#000" stroke-linecap="round" stroke-linejoin="round" stroke-width="1.25" d="M18.39 29.44c8.42-4.79 3.45-12.97 3.45-12.97l4.19-3.63h.01"/>
</svg>