<svg xmlns="http://www.w3.org/2000/svg" width="249" height="368" fill="none" viewBox="0 0 249 368">
  <g clip-path="url(#clip0_701_3425)">
    <path fill="#797774" d="M136.684 65.1c12.195-18.24 25.788-36.985 45.794-46.076 16.454-7.49 52.416-7.809 60.097 11.45 10.352 25.915-.003 55.123-11.25 80.646a1112.806 1112.806 0 0 1-117.483 204.707c-8.905 12.266-18.196 24.52-30.26 33.678-25.576 19.429-69.301 19.108-74.36-19.82-2.952-22.718 8.376-43.198 17.148-63.172a1298.563 1298.563 0 0 1 33.166-70.002c23.13-45.248 48.893-89.168 77.148-131.411Z" opacity=".6" style="mix-blend-mode:multiply"/>
    <path fill="#FFF1B3" d="M130.657 57.703c12.196-18.24 25.789-36.984 45.794-46.075 16.454-7.49 52.416-7.81 60.097 11.449 10.352 25.916-.003 55.124-11.25 80.646A1112.74 1112.74 0 0 1 107.815 308.43c-8.905 12.266-18.196 24.521-30.26 33.679-25.576 19.429-69.301 19.108-74.36-19.82-2.952-22.718 8.376-43.198 17.148-63.173a1299.209 1299.209 0 0 1 33.166-70.002c23.131-45.247 48.893-89.167 77.148-131.41Z"/>
    <path fill="#FFE455" d="M237.235 24.927c9.175 25.465-.933 53.91-11.939 78.86a1109 1109 0 0 1-117.483 204.708c-8.874 12.298-18.196 24.52-30.26 33.678-17.423 13.242-43.266 17.317-59.543 6.257.162-.028.324-.087.455-.148 12.866-4.608 23.518-13.838 33.34-23.316 66.144-63.825 109.463-146.988 151.675-228.578 12.085-23.347 24.242-46.981 33.755-71.462Z"/>
    <path stroke="#000" stroke-miterlimit="10" stroke-width=".86" d="M130.657 57.703c12.196-18.24 25.789-36.984 45.794-46.075 16.454-7.49 52.416-7.81 60.097 11.449 10.352 25.916-.003 55.124-11.25 80.646A1112.74 1112.74 0 0 1 107.815 308.43c-8.905 12.266-18.196 24.521-30.26 33.679-25.576 19.429-69.301 19.108-74.36-19.82-2.952-22.718 8.376-43.198 17.148-63.173a1299.133 1299.133 0 0 1 33.166-70.002c23.131-45.247 48.893-89.167 77.148-131.41Z"/>
  </g>
  <defs>
    <clipPath id="clip0_701_3425">
      <path fill="#fff" d="m10.335 0 237.902 6.813-10.335 360.852L0 360.852z"/>
    </clipPath>
  </defs>
</svg>