<svg xmlns="http://www.w3.org/2000/svg" width="381" height="265" fill="none" viewBox="0 0 381 265">
  <g clip-path="url(#clip0_701_3383)">
    <path fill="#797774" d="M308.444 152.311c16.959 12.931 34.336 27.224 41.962 47.146 6.278 16.39 4.408 51.221-14.806 57.46-25.8 8.446-53.531-3.388-77.675-15.839A1081.762 1081.762 0 0 1 66.233 114.811c-11.374-9.35-22.701-19.133-30.873-31.367C18.046 57.49 21.032 15.22 59.17 12.716c22.25-1.459 41.453 10.773 60.332 20.461a1263.044 1263.044 0 0 1 65.998 36.41 1274.635 1274.635 0 0 1 122.975 82.727l-.031-.003Z" opacity=".6" style="mix-blend-mode:multiply"/>
    <path fill="#FFF1B3" d="M304.589 145.125c16.959 12.93 34.336 27.224 41.962 47.146 6.277 16.39 4.408 51.22-14.807 57.46-25.8 8.446-53.53-3.388-77.674-15.839A1081.73 1081.73 0 0 1 62.377 107.624c-11.373-9.349-22.7-19.132-30.872-31.367-17.283-25.95-14.294-68.25 23.81-70.727 22.25-1.459 41.453 10.773 60.332 20.461A1263.451 1263.451 0 0 1 181.645 62.4a1274.761 1274.761 0 0 1 122.975 82.728l-.031-.003Z"/>
    <path fill="#FFE664" d="M331.776 249.734c-25.828 8.412-53.531-3.388-77.675-15.839-68.146-35.135-132.522-77.548-191.696-126.236-10.647-8.8-21.261-17.911-29.263-29.093 9.432 7.823 19.574 14.907 29.762 21.839 50.422 34.259 102.52 66.096 155.954 95.442 17.655 9.681 35.674 19.183 55.046 24.596 19.403 5.416 40.555 6.568 59.466-.363 5.793-2.135 11.324-5.052 16.342-8.745.304 16.122-4.712 34.086-17.971 38.427l.035-.028Z"/>
    <path fill="#FFF8D9" d="M24.383 61.282C34.342 67.437 46.33 69.64 57.3 73.99c14.795 5.892 27.582 15.833 40.103 25.62l43.126 33.723c12.901 10.047 26.394 20.44 42.391 23.639 8.611 1.744 17.58 1.331 25.984 3.836 9.737 2.963 17.854 9.578 25.671 16.066 11.651 9.693 23.368 19.361 35.022 29.023 6.834 5.692 14.214 11.569 23.081 12.4 15.895 1.525 31.654-13.774 46.344-7.486 4.295 1.843 7.457 5.163 10.358 8.863"/>
    <path stroke="#000" stroke-miterlimit="10" stroke-width=".88" d="M24.383 61.282C34.342 67.437 46.33 69.64 57.3 73.99c14.795 5.892 27.582 15.833 40.103 25.62l43.126 33.723c12.901 10.047 26.394 20.44 42.391 23.639 8.611 1.744 17.58 1.331 25.984 3.836 9.737 2.963 17.854 9.578 25.671 16.066 11.651 9.693 23.368 19.361 35.022 29.023 6.834 5.692 14.214 11.569 23.081 12.4 15.895 1.525 31.654-13.774 46.344-7.486 4.295 1.843 7.457 5.163 10.358 8.863"/>
    <path fill="#FFF8D9" stroke="#000" stroke-miterlimit="10" stroke-width="3" d="M349.219 221.444c-2.904-3.669-6.062-7.02-10.358-8.863-14.689-6.289-30.449 9.011-46.343 7.485-8.867-.83-16.244-6.738-23.081-12.399-11.655-9.662-23.371-19.33-35.022-29.023-7.817-6.488-15.935-13.103-25.672-16.066-8.403-2.506-17.404-2.096-25.984-3.837-15.993-3.23-29.52-13.595-42.39-23.639l-43.126-33.723c-12.521-9.787-25.308-19.728-40.103-25.62-10.97-4.35-22.93-6.517-32.916-12.706-8.022-24.701-.46-53.743 30.935-55.784C77.38 5.807 96.58 18.04 115.46 27.727c22.333 11.472 44.374 23.603 65.97 36.375a1268.503 1268.503 0 0 1 122.941 82.755c16.993 12.904 34.367 27.228 41.996 47.119 2.702 7.003 3.849 17.351 2.824 27.434l.028.034Z"/>
    <path fill="#FEFEFE" d="M48.167 10.906c-1.281.52-2.542 1.137-3.775 1.788-9.96 5.513-20.428 20.41-8.186 29.289 3.352 2.431 7.431 3.655 11.461 4.748 30.164 8.208 62.23 11.603 89.654 26.571 19.29 10.548 35.167 26.217 51.776 40.647 16.577 14.426 34.836 28.125 56.215 33.284 5.574 1.353 11.852 1.999 16.706-1.053 7.141-4.436 7.828-15.182 3.749-22.522-4.08-7.34-11.518-12.094-18.645-16.531-29.917-18.657-48.049-35.572-86.09-56.703-28.203-15.618-75.22-42.39-91.611-42.809-7.147-.175-14.576.53-21.25 3.26l-.004.031Z"/>
    <path stroke="#000" stroke-miterlimit="10" stroke-width=".86" d="M304.589 145.125c16.959 12.93 34.336 27.224 41.962 47.146 6.277 16.39 4.408 51.22-14.807 57.46-25.8 8.446-53.53-3.388-77.674-15.839A1081.73 1081.73 0 0 1 62.377 107.624c-11.373-9.349-22.7-19.132-30.872-31.367-17.283-25.95-14.294-68.25 23.81-70.727 22.25-1.459 41.453 10.773 60.332 20.461A1263.451 1263.451 0 0 1 181.645 62.4a1274.761 1274.761 0 0 1 122.975 82.728l-.031-.003Z"/>
  </g>
  <defs>
    <clipPath id="clip0_701_3383">
      <path fill="#fff" d="m24.391 0 355.786 38.361-24.392 226.225L0 226.225z"/>
    </clipPath>
  </defs>
</svg>